%TF.GenerationSoftware,KiCad,Pcbnew,9.0.6-9.0.6~ubuntu22.04.1*%
%TF.CreationDate,2025-11-19T14:02:57+01:00*%
%TF.ProjectId,TRX055.01.01.PB.00.00,54525830-3535-42e3-9031-2e30312e5042,rev?*%
%TF.SameCoordinates,Original*%
%TF.FileFunction,Profile,NP*%
%FSLAX46Y46*%
G04 Gerber Fmt 4.6, Leading zero omitted, Abs format (unit mm)*
G04 Created by KiCad (PCBNEW 9.0.6-9.0.6~ubuntu22.04.1) date 2025-11-19 14:02:57*
%MOMM*%
%LPD*%
G01*
G04 APERTURE LIST*
%TA.AperFunction,Profile*%
%ADD10C,0.050000*%
%TD*%
%TA.AperFunction,Profile*%
%ADD11C,0.000000*%
%TD*%
%TA.AperFunction,Profile*%
%ADD12C,0.100000*%
%TD*%
G04 APERTURE END LIST*
D10*
X127000000Y-168000000D02*
X115400000Y-168000000D01*
X115400000Y-169900000D02*
X109000000Y-169900000D01*
X61400000Y-168000000D02*
X61400000Y-170000000D01*
X109000000Y-168000000D02*
X97000000Y-168000000D01*
X60000000Y-170000000D02*
X60000000Y-30200000D01*
X151800000Y-170000000D02*
X151800000Y-30200000D01*
X72800000Y-168000000D02*
X61400000Y-168000000D01*
X151300000Y-170000000D02*
X151800000Y-170000000D01*
X145925000Y-169550000D02*
X145925000Y-169950000D01*
X139250000Y-169550000D02*
X139250000Y-169950000D01*
X142425000Y-169950000D02*
X139250000Y-169950000D01*
X97000000Y-168000000D02*
X97000000Y-169900000D01*
X90800000Y-169900000D02*
X90800000Y-168000000D01*
X61400000Y-170000000D02*
X60000000Y-170000000D01*
X142425000Y-169550000D02*
X142425000Y-169950000D01*
X79000000Y-168000000D02*
X79000000Y-169900000D01*
X135750000Y-169550000D02*
X135750000Y-169950000D01*
X79000000Y-169900000D02*
X72800000Y-169900000D01*
X127000000Y-170000000D02*
X135600000Y-170000000D01*
X109000000Y-169900000D02*
X109000000Y-168000000D01*
X135600000Y-170000000D02*
X135750000Y-169950000D01*
X127000000Y-170000000D02*
X127000000Y-168000000D01*
X90800000Y-168000000D02*
X79000000Y-168000000D01*
X72800000Y-169900000D02*
X72800000Y-168000000D01*
X115400000Y-168000000D02*
X115400000Y-169900000D01*
X97000000Y-169900000D02*
X90800000Y-169900000D01*
X151300000Y-30200000D02*
X151800000Y-30200000D01*
X151300000Y-170000000D02*
X146000000Y-170000000D01*
X60000000Y-30200000D02*
X151300000Y-30200000D01*
X146000000Y-170000000D02*
X145925000Y-169950000D01*
D11*
%TA.AperFunction,Profile*%
%TO.C,J21*%
G36*
X112053073Y-33430448D02*
G01*
X112143505Y-33482659D01*
X112217341Y-33556495D01*
X112269552Y-33646927D01*
X112296578Y-33747790D01*
X112296578Y-33852210D01*
X112269552Y-33953073D01*
X112217341Y-34043505D01*
X112143505Y-34117341D01*
X112053073Y-34169552D01*
X111952210Y-34196578D01*
X111847790Y-34196578D01*
X111746927Y-34169552D01*
X111656495Y-34117341D01*
X111582659Y-34043505D01*
X111530448Y-33953073D01*
X111503422Y-33852210D01*
X111503422Y-33747790D01*
X111530448Y-33646927D01*
X111582659Y-33556495D01*
X111656495Y-33482659D01*
X111746927Y-33430448D01*
X111847790Y-33403422D01*
X111952210Y-33403422D01*
X112053073Y-33430448D01*
G37*
%TD.AperFunction*%
%TA.AperFunction,Profile*%
G36*
X115053073Y-33430448D02*
G01*
X115143505Y-33482659D01*
X115217341Y-33556495D01*
X115269552Y-33646927D01*
X115296578Y-33747790D01*
X115296578Y-33852210D01*
X115269552Y-33953073D01*
X115217341Y-34043505D01*
X115143505Y-34117341D01*
X115053073Y-34169552D01*
X114952210Y-34196578D01*
X114847790Y-34196578D01*
X114746927Y-34169552D01*
X114656495Y-34117341D01*
X114582659Y-34043505D01*
X114530448Y-33953073D01*
X114503422Y-33852210D01*
X114503422Y-33747790D01*
X114530448Y-33646927D01*
X114582659Y-33556495D01*
X114656495Y-33482659D01*
X114746927Y-33430448D01*
X114847790Y-33403422D01*
X114952210Y-33403422D01*
X115053073Y-33430448D01*
G37*
%TD.AperFunction*%
D12*
%TO.C,J20*%
X142425000Y-165050000D02*
X142425000Y-169550000D01*
X145925000Y-165050000D02*
X142425000Y-165050000D01*
X145925000Y-169550000D02*
X145925000Y-165050000D01*
%TO.C,J19*%
X135750000Y-165050000D02*
X135750000Y-169550000D01*
X139250000Y-165050000D02*
X135750000Y-165050000D01*
X139250000Y-169550000D02*
X139250000Y-165050000D01*
D11*
%TA.AperFunction,Profile*%
%TO.C,J22*%
G36*
X98953073Y-33430448D02*
G01*
X99043505Y-33482659D01*
X99117341Y-33556495D01*
X99169552Y-33646927D01*
X99196578Y-33747790D01*
X99196578Y-33852210D01*
X99169552Y-33953073D01*
X99117341Y-34043505D01*
X99043505Y-34117341D01*
X98953073Y-34169552D01*
X98852210Y-34196578D01*
X98747790Y-34196578D01*
X98646927Y-34169552D01*
X98556495Y-34117341D01*
X98482659Y-34043505D01*
X98430448Y-33953073D01*
X98403422Y-33852210D01*
X98403422Y-33747790D01*
X98430448Y-33646927D01*
X98482659Y-33556495D01*
X98556495Y-33482659D01*
X98646927Y-33430448D01*
X98747790Y-33403422D01*
X98852210Y-33403422D01*
X98953073Y-33430448D01*
G37*
%TD.AperFunction*%
%TA.AperFunction,Profile*%
G36*
X101953073Y-33430448D02*
G01*
X102043505Y-33482659D01*
X102117341Y-33556495D01*
X102169552Y-33646927D01*
X102196578Y-33747790D01*
X102196578Y-33852210D01*
X102169552Y-33953073D01*
X102117341Y-34043505D01*
X102043505Y-34117341D01*
X101953073Y-34169552D01*
X101852210Y-34196578D01*
X101747790Y-34196578D01*
X101646927Y-34169552D01*
X101556495Y-34117341D01*
X101482659Y-34043505D01*
X101430448Y-33953073D01*
X101403422Y-33852210D01*
X101403422Y-33747790D01*
X101430448Y-33646927D01*
X101482659Y-33556495D01*
X101556495Y-33482659D01*
X101646927Y-33430448D01*
X101747790Y-33403422D01*
X101852210Y-33403422D01*
X101953073Y-33430448D01*
G37*
%TD.AperFunction*%
%TD*%
M02*
