M48
; DRILL file {KiCad 9.0.6-9.0.6~ubuntu22.04.1} date 2025-11-19T14:02:57+0100
; FORMAT={-:-/ absolute / inch / decimal}
; #@! TF.CreationDate,2025-11-19T14:02:57+01:00
; #@! TF.GenerationSoftware,Kicad,Pcbnew,9.0.6-9.0.6~ubuntu22.04.1
; #@! TF.FileFunction,Plated,1,6,PTH
FMAT,2
INCH
; #@! TA.AperFunction,Plated,PTH,ViaDrill
T1C0.0118
; #@! TA.AperFunction,Plated,PTH,ViaDrill
T2C0.0236
; #@! TA.AperFunction,Plated,PTH,ComponentDrill
T3C0.0236
; #@! TA.AperFunction,Plated,PTH,ComponentDrill
T4C0.0256
; #@! TA.AperFunction,Plated,PTH,ComponentDrill
T5C0.0335
; #@! TA.AperFunction,Plated,PTH,ComponentDrill
T6C0.0350
; #@! TA.AperFunction,Plated,PTH,ComponentDrill
T7C0.0374
; #@! TA.AperFunction,Plated,PTH,ComponentDrill
T8C0.0413
; #@! TA.AperFunction,Plated,PTH,ComponentDrill
T9C0.0618
; #@! TA.AperFunction,Plated,PTH,ComponentDrill
T10C0.1496
%
G90
G05
T1
X2.378Y-1.2205
X2.378Y-1.25
X2.378Y-1.2795
X2.378Y-1.3091
X2.378Y-1.3386
X2.378Y-1.3681
X2.378Y-1.3976
X2.378Y-1.4272
X2.378Y-1.4567
X2.378Y-1.4862
X2.378Y-1.5157
X2.378Y-1.5522
X2.378Y-1.5827
X2.378Y-1.6122
X2.378Y-1.6417
X2.378Y-1.6713
X2.378Y-1.7008
X2.378Y-1.7303
X2.378Y-1.7598
X2.378Y-1.7894
X2.378Y-1.8189
X2.378Y-1.8484
X2.378Y-1.878
X2.378Y-1.9075
X2.378Y-1.937
X2.378Y-1.9665
X2.378Y-1.9961
X2.378Y-2.0256
X2.378Y-2.0551
X2.378Y-2.0846
X2.378Y-2.1142
X2.378Y-2.1437
X2.378Y-2.1732
X2.378Y-2.2028
X2.378Y-2.2323
X2.378Y-2.2618
X2.378Y-2.2913
X2.378Y-2.3209
X2.378Y-2.3504
X2.378Y-2.3799
X2.378Y-2.4094
X2.378Y-2.439
X2.378Y-2.4685
X2.378Y-2.498
X2.378Y-2.5276
X2.378Y-2.5571
X2.378Y-2.5866
X2.378Y-2.6161
X2.378Y-2.6457
X2.378Y-2.6752
X2.378Y-2.7047
X2.378Y-2.7343
X2.378Y-2.7638
X2.378Y-2.7933
X2.378Y-2.8228
X2.378Y-2.8524
X2.378Y-2.8819
X2.378Y-2.9114
X2.378Y-2.9409
X2.378Y-2.9705
X2.378Y-3.002
X2.378Y-3.0354
X2.378Y-3.065
X2.378Y-3.0945
X2.378Y-3.124
X2.378Y-3.1535
X2.378Y-3.1831
X2.378Y-3.2126
X2.378Y-3.2421
X2.378Y-3.2717
X2.378Y-3.3012
X2.378Y-3.3307
X2.378Y-3.3602
X2.378Y-3.3898
X2.378Y-3.4193
X2.378Y-3.4488
X2.378Y-3.4783
X2.378Y-3.5079
X2.378Y-3.5374
X2.378Y-3.5669
X2.378Y-3.5965
X2.378Y-3.626
X2.378Y-3.6555
X2.378Y-3.685
X2.378Y-3.7215
X2.378Y-3.752
X2.378Y-3.7815
X2.378Y-3.811
X2.378Y-3.8406
X2.378Y-3.8701
X2.378Y-3.8996
X2.378Y-3.9291
X2.378Y-3.9587
X2.378Y-3.9882
X2.378Y-4.0177
X2.378Y-4.0472
X2.378Y-4.0768
X2.378Y-4.1063
X2.378Y-4.1358
X2.378Y-4.1654
X2.378Y-4.1949
X2.378Y-4.2244
X2.378Y-4.2539
X2.378Y-4.2835
X2.378Y-4.313
X2.378Y-4.3425
X2.378Y-4.372
X2.378Y-4.4016
X2.378Y-4.4311
X2.378Y-4.4606
X2.378Y-4.4902
X2.378Y-4.5197
X2.378Y-4.5492
X2.378Y-4.5787
X2.378Y-4.6083
X2.378Y-4.6378
X2.378Y-4.6673
X2.378Y-4.6969
X2.378Y-4.7264
X2.378Y-4.7559
X2.378Y-4.7854
X2.378Y-4.815
X2.378Y-4.8445
X2.378Y-4.874
X2.378Y-4.9035
X2.378Y-4.9331
X2.378Y-4.9626
X2.378Y-4.9921
X2.378Y-5.0217
X2.378Y-5.0512
X2.378Y-5.0807
X2.378Y-5.1102
X2.378Y-5.1398
X2.378Y-5.1713
X2.378Y-5.2047
X2.378Y-5.2343
X2.378Y-5.2638
X2.378Y-5.2933
X2.378Y-5.3228
X2.378Y-5.3524
X2.378Y-5.3819
X2.378Y-5.4114
X2.378Y-5.4409
X2.378Y-5.4705
X2.378Y-5.5
X2.378Y-5.5295
X2.378Y-5.5591
X2.378Y-5.5886
X2.378Y-5.6181
X2.378Y-5.6476
X2.378Y-5.6772
X2.378Y-5.7067
X2.378Y-5.7362
X2.378Y-5.7657
X2.378Y-5.7953
X2.378Y-5.8248
X2.378Y-5.8543
X2.378Y-5.8907
X2.378Y-5.9213
X2.378Y-5.9508
X2.378Y-5.9803
X2.378Y-6.0098
X2.378Y-6.0394
X2.378Y-6.0689
X2.378Y-6.0984
X2.378Y-6.128
X2.378Y-6.1575
X2.378Y-6.187
X2.378Y-6.2165
X2.378Y-6.2461
X2.378Y-6.2756
X2.378Y-6.3051
X2.378Y-6.3346
X2.378Y-6.3642
X2.378Y-6.3937
X2.378Y-6.4232
X2.378Y-6.4528
X2.378Y-6.4823
X2.378Y-6.5118
X2.378Y-6.5413
X2.378Y-6.5709
X2.378Y-6.6004
X2.378Y-6.628
X2.378Y-6.6575
X2.4016Y-6.5709
X2.4016Y-6.6004
X2.4016Y-6.628
X2.4016Y-6.6575
X2.4287Y-3.1469
X2.4287Y-3.1693
X2.4291Y-3.189
X2.4291Y-3.2087
X2.436Y-5.3609
X2.436Y-5.3834
X2.4364Y-5.4031
X2.4364Y-5.4228
X2.4508Y-3.1465
X2.4508Y-3.1693
X2.4508Y-3.189
X2.4508Y-3.2087
X2.4508Y-6.4764
X2.4508Y-6.4961
X2.4508Y-6.5157
X2.4508Y-6.5354
X2.4576Y-3.8189
X2.4577Y-3.6555
X2.458Y-5.3606
X2.458Y-5.3834
X2.458Y-5.4031
X2.458Y-5.4228
X2.4587Y-5.1417
X2.4587Y-5.1614
X2.4606Y-3.6772
X2.4626Y-3.749
X2.4636Y-3.7283
X2.4636Y-3.799
X2.4646Y-2.7756
X2.4685Y-5.124
X2.4695Y-5.7254
X2.4754Y-5.6939
X2.4764Y-3.622
X2.4764Y-3.6417
X2.4764Y-3.689
X2.4764Y-3.7087
X2.4764Y-3.7638
X2.4764Y-3.7835
X2.4793Y-5.6634
X2.4803Y-3.8435
X2.4803Y-3.875
X2.4803Y-3.9065
X2.4803Y-5.1417
X2.4803Y-5.1614
X2.4803Y-5.6309
X2.4803Y-6.4764
X2.4803Y-6.4961
X2.4803Y-6.5157
X2.4803Y-6.5354
X2.4882Y-1.3228
X2.4882Y-1.3504
X2.4882Y-1.378
X2.5098Y-6.4764
X2.5098Y-6.4961
X2.5098Y-6.5157
X2.5098Y-6.5354
X2.5294Y-3.1526
X2.5295Y-3.8593
X2.5295Y-3.9222
X2.5305Y-3.8907
X2.5335Y-5.6467
X2.5344Y-5.6781
X2.5344Y-5.7096
X2.5354Y-5.5984
X2.5362Y-3.4957
X2.5366Y-3.5154
X2.5382Y-3.4498
X2.539Y-5.0185
X2.5394Y-5.2441
X2.5394Y-5.4882
X2.5394Y-6.4764
X2.5394Y-6.4961
X2.5394Y-6.5157
X2.5394Y-6.5354
X2.5445Y-3.1378
X2.5512Y-3.8425
X2.5646Y-3.3831
X2.5646Y-3.4055
X2.565Y-3.4252
X2.5665Y-5.1516
X2.5669Y-5.1713
X2.5669Y-5.1909
X2.5709Y-5.8465
X2.5756Y-2.5863
X2.5758Y-2.565
X2.5767Y-2.5435
X2.5778Y-2.5197
X2.5787Y-5.3858
X2.5807Y-2.4951
X2.5827Y-2.2402
X2.5827Y-2.2677
X2.5827Y-2.2953
X2.5827Y-2.3622
X2.5827Y-2.6217
X2.5866Y-3.3827
X2.5866Y-3.4055
X2.5866Y-3.4252
X2.5886Y-5.1516
X2.5886Y-5.1713
X2.5886Y-5.1909
X2.5906Y-2.1496
X2.5906Y-5.4882
X2.5913Y-1.8945
X2.5945Y-3.9409
X2.5984Y-5.8465
X2.6014Y-5.7111
X2.602Y-4.8921
X2.6063Y-1.7244
X2.6142Y-1.5
X2.6142Y-3.9882
X2.6181Y-2.3622
X2.622Y-1.3346
X2.626Y-5.8465
X2.6378Y-1.3583
X2.6417Y-1.5
X2.6445Y-2.439
X2.6496Y-2.185
X2.6496Y-2.2126
X2.6496Y-2.2402
X2.6496Y-2.2638
X2.6496Y-2.2913
X2.6496Y-2.3189
X2.6535Y-1.4803
X2.6535Y-5.7283
X2.6545Y-3.7524
X2.6571Y-3.1988
X2.6575Y-3.2185
X2.6575Y-3.2382
X2.6575Y-6.25
X2.6591Y-5.3004
X2.6591Y-5.3228
X2.6594Y-5.3425
X2.6614Y-1.5
X2.6622Y-3.7343
X2.6642Y-2.4547
X2.6654Y-3.8307
X2.6669Y-5.1043
X2.6673Y-5.124
X2.6673Y-5.1437
X2.6693Y-1.3583
X2.6693Y-5.4173
X2.6693Y-5.4409
X2.6693Y-5.4646
X2.6693Y-5.4882
X2.6772Y-5.2146
X2.6791Y-3.1988
X2.6791Y-3.2185
X2.6791Y-3.2382
X2.6799Y-3.5224
X2.6811Y-2.2323
X2.6811Y-2.2598
X2.6811Y-2.2874
X2.6811Y-5.3
X2.6811Y-5.3228
X2.6811Y-5.3425
X2.6815Y-2.439
X2.6827Y-3.5665
X2.685Y-1.3346
X2.685Y-1.5
X2.687Y-6.25
X2.689Y-2.1142
X2.689Y-3.5402
X2.689Y-3.8268
X2.689Y-3.8898
X2.689Y-3.9094
X2.689Y-3.9291
X2.689Y-3.9488
X2.689Y-5.1043
X2.689Y-5.124
X2.689Y-5.1437
X2.689Y-5.6073
X2.689Y-5.627
X2.6948Y-3.6981
X2.6969Y-3.626
X2.6988Y-2.4528
X2.7008Y-1.3543
X2.7008Y-1.4803
X2.7024Y-6.0092
X2.7031Y-3.522
X2.7035Y-3.5551
X2.7037Y-5.687
X2.7037Y-5.7096
X2.7047Y-5.6644
X2.7057Y-5.6447
X2.7126Y-2.2323
X2.7126Y-2.2598
X2.7126Y-2.2874
X2.715Y-2.4375
X2.7165Y-3.6378
X2.7165Y-3.7139
X2.7165Y-6.25
X2.7205Y-1.3543
X2.7229Y-4.4045
X2.7229Y-4.7805
X2.7264Y-6.4764
X2.7264Y-6.4961
X2.7264Y-6.5157
X2.7264Y-6.5354
X2.7305Y-5.986
X2.7319Y-4.3189
X2.7362Y-1.3346
X2.7402Y-3.8783
X2.7402Y-3.898
X2.7417Y-3.187
X2.7421Y-3.2067
X2.7421Y-3.2264
X2.7429Y-2.0016
X2.7461Y-6.25
X2.7515Y-4.3386
X2.7559Y-6.4764
X2.7559Y-6.4961
X2.7559Y-6.5157
X2.7559Y-6.5354
X2.7628Y-4.2126
X2.7638Y-3.187
X2.7638Y-3.2067
X2.7638Y-3.2264
X2.7657Y-2.3622
X2.7657Y-2.3996
X2.7657Y-2.437
X2.7677Y-4.3046
X2.7693Y-2.4764
X2.7751Y-4.4035
X2.7756Y-1.7638
X2.7756Y-2.9291
X2.7756Y-6.25
X2.7854Y-3.6299
X2.7854Y-3.6516
X2.7854Y-6.4764
X2.7854Y-6.4961
X2.7854Y-6.5157
X2.7854Y-6.5354
X2.7874Y-2.8878
X2.7933Y-2.9469
X2.7953Y-1.6417
X2.7953Y-3.3031
X2.7953Y-3.3307
X2.8051Y-6.25
X2.8071Y-2.1417
X2.81Y-2.9065
X2.811Y-1.7638
X2.815Y-6.4764
X2.815Y-6.4961
X2.815Y-6.5157
X2.815Y-6.5354
X2.8177Y-3.5409
X2.8189Y-1.9134
X2.828Y-2.3996
X2.8346Y-2.6575
X2.8346Y-3.4791
X2.8346Y-6.25
X2.8361Y-2.5177
X2.8367Y-6.1436
X2.839Y-2.3827
X2.8465Y-3.2165
X2.8465Y-3.374
X2.85Y-2.4236
X2.8504Y-2.4843
X2.8543Y-6.4567
X2.8543Y-6.4764
X2.8543Y-6.4961
X2.8543Y-6.5157
X2.8543Y-6.5354
X2.8543Y-6.5551
X2.8543Y-6.5748
X2.8543Y-6.5945
X2.861Y-6.1164
X2.8642Y-6.25
X2.8661Y-2.502
X2.8705Y-2.4695
X2.872Y-2.532
X2.874Y-2.4375
X2.874Y-6.5945
X2.878Y-2.3588
X2.8819Y-4.5463
X2.8898Y-1.7165
X2.8898Y-1.7441
X2.8898Y-1.7717
X2.8927Y-3.1604
X2.8927Y-3.3612
X2.8937Y-6.25
X2.8937Y-6.5945
X2.8937Y-6.6142
X2.8937Y-6.6339
X2.8937Y-6.6535
X2.8937Y-6.6732
X2.8976Y-5.1575
X2.8976Y-5.1811
X2.9016Y-5.2362
X2.9016Y-5.2638
X2.9016Y-5.2874
X2.9016Y-5.315
X2.9016Y-5.3425
X2.9016Y-5.3661
X2.9016Y-5.4134
X2.9016Y-5.437
X2.9035Y-2.1949
X2.9035Y-2.6417
X2.9055Y-2.3031
X2.9071Y-5.0012
X2.9071Y-5.0236
X2.9075Y-5.0433
X2.9075Y-5.063
X2.9094Y-5.1969
X2.9134Y-1.3425
X2.9134Y-6.4665
X2.9134Y-6.4862
X2.9134Y-6.5059
X2.9134Y-6.5256
X2.9134Y-6.6732
X2.9173Y-4.6614
X2.9173Y-4.6811
X2.9173Y-4.7008
X2.9173Y-4.7244
X2.9173Y-4.748
X2.9173Y-4.7717
X2.9173Y-4.7992
X2.9173Y-4.8228
X2.9173Y-4.8465
X2.9181Y-1.4531
X2.9193Y-1.4717
X2.9213Y-1.6614
X2.9213Y-1.689
X2.9213Y-1.7165
X2.9213Y-2.9872
X2.9213Y-5.1378
X2.9213Y-5.1811
X2.9213Y-5.248
X2.9213Y-5.2795
X2.9213Y-5.3031
X2.9213Y-5.5079
X2.9232Y-6.25
X2.9252Y-2.122
X2.9252Y-2.6929
X2.9252Y-5.1181
X2.9281Y-5.3504
X2.9291Y-5.0008
X2.9291Y-5.0236
X2.9291Y-5.0433
X2.9291Y-5.4252
X2.9291Y-6.1457
X2.9291Y-6.1811
X2.9311Y-6.0906
X2.9323Y-6.0487
X2.9331Y-6.4665
X2.9331Y-6.4862
X2.9331Y-6.5059
X2.9331Y-6.5256
X2.9331Y-6.6732
X2.936Y-3.0118
X2.9409Y-5.4685
X2.9449Y-5.1024
X2.9528Y-5.4252
X2.9528Y-6.25
X2.9528Y-6.6732
X2.9537Y-3.0374
X2.9567Y-5.3504
X2.9587Y-2.626
X2.9604Y-5.0115
X2.9606Y-4.8937
X2.9606Y-4.9173
X2.9606Y-4.9409
X2.9606Y-4.9646
X2.9606Y-4.9882
X2.9606Y-5.0866
X2.9632Y-3.0719
X2.9656Y-3.0138
X2.9685Y-5.6575
X2.9723Y-6.6731
X2.9724Y-5.1378
X2.9724Y-5.1575
X2.9724Y-5.1772
X2.9803Y-6.0089
X2.9803Y-6.0285
X2.9813Y-5.3514
X2.9823Y-6.25
X2.9843Y-1.4449
X2.9843Y-1.4724
X2.9843Y-1.5
X2.9843Y-2.7008
X2.9882Y-3.1835
X2.9889Y-3.2572
X2.9921Y-5.1378
X2.9921Y-5.1575
X2.9921Y-5.1772
X2.9921Y-6.6732
X2.9961Y-5.4843
X2.9961Y-5.5079
X2.9961Y-5.5315
X2.9961Y-5.5551
X2.9961Y-5.5787
X2.9961Y-5.6024
X2.998Y-2.1949
X2.998Y-2.2815
X3.0Y-6.0276
X3.001Y-6.0089
X3.0035Y-2.6905
X3.0049Y-5.3514
X3.0118Y-2.5
X3.0118Y-5.1378
X3.0118Y-5.1575
X3.0118Y-5.1772
X3.0118Y-5.9646
X3.0118Y-6.25
X3.0118Y-6.6732
X3.0157Y-1.6614
X3.0157Y-1.689
X3.0157Y-1.7165
X3.0217Y-6.0276
X3.0226Y-6.0089
X3.0236Y-1.9016
X3.0236Y-5.3661
X3.0266Y-2.6211
X3.0315Y-5.9646
X3.0315Y-6.6732
X3.0354Y-2.4173
X3.0354Y-3.063
X3.0354Y-3.1417
X3.0354Y-3.313
X3.0354Y-3.3425
X3.0354Y-3.3681
X3.0394Y-2.4882
X3.0394Y-3.0394
X3.0394Y-3.0906
X3.0404Y-3.1822
X3.0413Y-5.3514
X3.0413Y-6.25
X3.0433Y-2.1457
X3.0433Y-5.4094
X3.0449Y-3.0114
X3.0512Y-5.9449
X3.0512Y-5.9646
X3.0512Y-6.4665
X3.0512Y-6.4862
X3.0512Y-6.5059
X3.0512Y-6.5256
X3.0512Y-6.6732
X3.0522Y-3.2274
X3.0526Y-3.2066
X3.0571Y-2.624
X3.0591Y-2.4173
X3.0591Y-5.4843
X3.0591Y-5.5079
X3.0591Y-5.5276
X3.0591Y-5.5512
X3.0591Y-5.5748
X3.0591Y-5.5984
X3.062Y-2.7003
X3.063Y-5.4252
X3.0669Y-2.4882
X3.0709Y-5.9646
X3.0709Y-6.25
X3.0709Y-6.4665
X3.0709Y-6.4862
X3.0709Y-6.5059
X3.0709Y-6.5256
X3.0709Y-6.6732
X3.0733Y-3.4909
X3.0807Y-5.9448
X3.0827Y-5.3661
X3.0866Y-2.4173
X3.0904Y-6.6336
X3.0906Y-5.9646
X3.0906Y-6.5945
X3.0906Y-6.6142
X3.0906Y-6.6535
X3.0906Y-6.6732
X3.0945Y-1.7598
X3.0945Y-2.4882
X3.0945Y-2.6797
X3.0965Y-2.1949
X3.0965Y-2.2815
X3.1004Y-5.9449
X3.1004Y-6.25
X3.1024Y-4.5354
X3.1024Y-4.8071
X3.1055Y-5.1449
X3.1063Y-5.3661
X3.1098Y-4.7146
X3.1101Y-5.9644
X3.1102Y-2.4173
X3.1102Y-6.5945
X3.1126Y-3.5283
X3.1142Y-2.8287
X3.1148Y-2.7928
X3.1161Y-2.6201
X3.126Y-2.4882
X3.126Y-2.9469
X3.1291Y-5.1449
X3.1299Y-1.7598
X3.1299Y-2.4173
X3.1299Y-2.7776
X3.1299Y-2.811
X3.1299Y-4.5354
X3.1299Y-5.3661
X3.1299Y-5.9449
X3.1299Y-5.9646
X3.1299Y-6.25
X3.1299Y-6.4567
X3.1299Y-6.4764
X3.1299Y-6.4961
X3.1299Y-6.5157
X3.1299Y-6.5354
X3.1299Y-6.5551
X3.1299Y-6.5748
X3.1299Y-6.5945
X3.1335Y-4.7146
X3.1378Y-5.8071
X3.1496Y-5.3465
X3.1496Y-5.9646
X3.1528Y-5.1449
X3.1575Y-2.122
X3.1575Y-5.2992
X3.1575Y-5.3228
X3.1575Y-6.0906
X3.1575Y-6.1457
X3.1587Y-3.5004
X3.1594Y-6.25
X3.1594Y-6.4764
X3.1594Y-6.4961
X3.1594Y-6.5157
X3.1594Y-6.5354
X3.1624Y-3.2156
X3.1673Y-4.9528
X3.1673Y-4.9705
X3.1693Y-3.2362
X3.1764Y-5.1449
X3.178Y-3.0213
X3.1811Y-5.2992
X3.1854Y-1.9098
X3.189Y-2.3031
X3.189Y-3.2539
X3.189Y-6.25
X3.189Y-6.4764
X3.189Y-6.4961
X3.189Y-6.5157
X3.189Y-6.5354
X3.1969Y-4.5539
X3.2Y-5.1449
X3.2028Y-2.6913
X3.2043Y-4.7146
X3.2077Y-5.6181
X3.2087Y-3.2677
X3.2087Y-5.5236
X3.2106Y-3.2382
X3.2116Y-5.4567
X3.2126Y-5.3701
X3.2126Y-5.4094
X3.2126Y-5.7717
X3.2136Y-5.7923
X3.2136Y-5.811
X3.2146Y-3.1969
X3.2165Y-1.9055
X3.2165Y-4.5354
X3.2185Y-3.3268
X3.2185Y-6.25
X3.2185Y-6.4764
X3.2185Y-6.4961
X3.2185Y-6.5157
X3.2185Y-6.5354
X3.2205Y-5.8504
X3.2205Y-5.874
X3.2205Y-5.8972
X3.2205Y-5.9213
X3.2236Y-5.1449
X3.2244Y-3.2874
X3.228Y-4.7146
X3.2283Y-3.3071
X3.2331Y-3.2146
X3.2343Y-2.5295
X3.2343Y-5.7904
X3.2343Y-5.81
X3.2362Y-2.4882
X3.2362Y-5.7717
X3.2402Y-2.2933
X3.2402Y-5.3701
X3.2402Y-5.4094
X3.2441Y-2.4178
X3.2441Y-3.252
X3.2441Y-5.8504
X3.2441Y-5.874
X3.2441Y-5.8976
X3.2441Y-5.9213
X3.2472Y-5.1449
X3.248Y-6.25
X3.248Y-6.4764
X3.248Y-6.4961
X3.248Y-6.5157
X3.248Y-6.5354
X3.2516Y-4.7146
X3.2559Y-2.6024
X3.2579Y-3.3248
X3.2579Y-3.3661
X3.2598Y-2.2244
X3.2598Y-4.5472
X3.2626Y-2.0071
X3.2638Y-6.0394
X3.2677Y-5.3228
X3.2677Y-5.3701
X3.2677Y-5.4094
X3.2677Y-5.689
X3.2677Y-5.7087
X3.2677Y-5.7283
X3.2677Y-5.8504
X3.2677Y-5.874
X3.2677Y-5.8976
X3.2677Y-5.9213
X3.2678Y-3.267
X3.2709Y-5.1449
X3.2717Y-2.1496
X3.2736Y-3.4035
X3.2736Y-3.4252
X3.2752Y-4.7146
X3.2756Y-2.5984
X3.2776Y-5.5906
X3.2776Y-5.6102
X3.2776Y-5.6299
X3.2776Y-6.25
X3.2795Y-4.5472
X3.2874Y-3.3232
X3.2913Y-5.8504
X3.2913Y-5.874
X3.2913Y-5.8976
X3.2913Y-5.9213
X3.2913Y-6.0394
X3.2945Y-5.1449
X3.2953Y-4.937
X3.2953Y-4.9606
X3.2953Y-4.9843
X3.2953Y-5.4685
X3.2957Y-3.3017
X3.2982Y-3.4537
X3.2988Y-2.0071
X3.2992Y-4.5472
X3.3071Y-6.25
X3.311Y-4.8661
X3.311Y-4.9094
X3.313Y-2.5984
X3.313Y-2.6181
X3.313Y-3.3161
X3.315Y-6.0394
X3.3189Y-4.5472
X3.3189Y-4.937
X3.3189Y-4.9606
X3.3189Y-4.9843
X3.3224Y-4.7146
X3.3256Y-3.3598
X3.3268Y-3.4134
X3.3307Y-5.502
X3.3346Y-4.8661
X3.3346Y-4.8898
X3.3346Y-4.9094
X3.3366Y-6.25
X3.3386Y-2.5669
X3.3402Y-6.0396
X3.3417Y-5.1449
X3.3425Y-2.3406
X3.3445Y-2.4035
X3.3465Y-4.937
X3.3465Y-4.9606
X3.3465Y-4.9843
X3.3465Y-5.3228
X3.3543Y-5.3701
X3.3583Y-4.8681
X3.3583Y-4.8898
X3.3583Y-4.9094
X3.3594Y-3.3594
X3.3622Y-3.4252
X3.3622Y-6.0394
X3.3661Y-6.25
X3.3697Y-4.7146
X3.376Y-5.252
X3.378Y-5.0374
X3.3783Y-2.922
X3.3791Y-2.972
X3.3819Y-2.4469
X3.3819Y-3.0579
X3.3819Y-4.8701
X3.3819Y-4.8898
X3.3819Y-4.9094
X3.3819Y-5.315
X3.3819Y-5.3701
X3.3858Y-2.122
X3.3937Y-1.6236
X3.3937Y-1.8976
X3.3957Y-6.25
X3.3976Y-5.252
X3.3986Y-5.6575
X3.3996Y-5.0374
X3.4055Y-4.8701
X3.4055Y-4.8898
X3.4055Y-4.9094
X3.4126Y-5.1449
X3.4173Y-5.2402
X3.4193Y-5.0492
X3.4232Y-4.6004
X3.4252Y-5.4685
X3.4252Y-5.4921
X3.4252Y-5.5118
X3.4252Y-5.5315
X3.4252Y-5.5866
X3.4252Y-5.6063
X3.4252Y-6.25
X3.4272Y-4.8268
X3.435Y-4.9941
X3.435Y-6.4764
X3.435Y-6.4961
X3.435Y-6.5157
X3.435Y-6.5354
X3.4362Y-5.1449
X3.437Y-5.0315
X3.4409Y-3.0472
X3.4409Y-5.2559
X3.4409Y-5.311
X3.443Y-4.714
X3.4445Y-3.0693
X3.4449Y-4.5472
X3.4449Y-4.6004
X3.4449Y-5.4685
X3.4449Y-5.4921
X3.4449Y-5.5118
X3.4449Y-5.5315
X3.4449Y-5.5866
X3.4449Y-5.6063
X3.4488Y-4.8268
X3.4547Y-6.25
X3.4567Y-4.9941
X3.4589Y-4.8844
X3.4596Y-5.0326
X3.461Y-3.0878
X3.4646Y-4.5472
X3.4646Y-4.6122
X3.4646Y-5.4685
X3.4646Y-5.4921
X3.4646Y-5.5118
X3.4646Y-5.5315
X3.4646Y-5.5866
X3.4646Y-5.6063
X3.4646Y-6.4764
X3.4646Y-6.4961
X3.4646Y-6.5157
X3.4646Y-6.5354
X3.4649Y-2.165
X3.4665Y-3.1988
X3.4685Y-2.2638
X3.4685Y-4.815
X3.4724Y-1.811
X3.4724Y-1.8346
X3.4724Y-1.8583
X3.4724Y-1.8819
X3.4724Y-2.2283
X3.4764Y-4.9941
X3.4764Y-5.3228
X3.4805Y-4.8844
X3.4823Y-3.0768
X3.484Y-5.5865
X3.4843Y-2.3622
X3.4843Y-5.4921
X3.4843Y-5.5118
X3.4843Y-5.5315
X3.4843Y-5.6063
X3.4843Y-6.25
X3.4882Y-2.4449
X3.4882Y-5.4685
X3.4898Y-4.7146
X3.4902Y-4.5276
X3.4921Y-4.9508
X3.4941Y-6.4764
X3.4941Y-6.4961
X3.4941Y-6.5157
X3.4941Y-6.5354
X3.4961Y-4.5551
X3.5Y-4.6142
X3.5Y-4.8189
X3.5002Y-4.8844
X3.5034Y-3.0802
X3.5079Y-4.5374
X3.5087Y-2.9299
X3.5098Y-3.8189
X3.5134Y-4.7146
X3.5138Y-6.25
X3.5157Y-2.685
X3.5197Y-4.5551
X3.5236Y-3.2283
X3.5236Y-6.4764
X3.5236Y-6.4961
X3.5236Y-6.5157
X3.5236Y-6.5354
X3.5256Y-3.2028
X3.5276Y-4.5295
X3.5276Y-5.1102
X3.5276Y-5.1339
X3.5276Y-5.1575
X3.5276Y-5.1811
X3.5295Y-2.7343
X3.5295Y-3.0118
X3.5345Y-5.2491
X3.5374Y-2.7598
X3.5394Y-3.8189
X3.5433Y-3.2244
X3.5433Y-6.25
X3.5472Y-4.6161
X3.5512Y-3.0222
X3.5512Y-4.5276
X3.561Y-5.3012
X3.562Y-5.2491
X3.563Y-6.4959
X3.563Y-6.4567
X3.563Y-6.4764
X3.563Y-6.5157
X3.563Y-6.5354
X3.563Y-6.5551
X3.563Y-6.5748
X3.563Y-6.5945
X3.5648Y-3.1745
X3.5679Y-5.8071
X3.5681Y-2.9969
X3.5689Y-4.6161
X3.5689Y-4.937
X3.5693Y-2.2815
X3.5706Y-2.2431
X3.5709Y-4.6791
X3.5709Y-4.7028
X3.5709Y-4.7264
X3.5709Y-4.75
X3.5709Y-6.1457
X3.5728Y-3.0236
X3.5728Y-6.25
X3.5748Y-3.8169
X3.5778Y-2.2049
X3.5793Y-1.9885
X3.58Y-1.8825
X3.5827Y-6.0472
X3.5827Y-6.0906
X3.5827Y-6.4567
X3.5827Y-6.5945
X3.5839Y-5.1453
X3.5866Y-5.3031
X3.5925Y-4.9705
X3.5945Y-3.2062
X3.5945Y-3.496
X3.5945Y-6.1457
X3.595Y-3.5277
X3.5965Y-3.0433
X3.5965Y-4.7146
X3.598Y-1.8288
X3.5984Y-2.4882
X3.6024Y-4.6146
X3.6024Y-6.25
X3.6024Y-6.5945
X3.6024Y-6.6142
X3.6024Y-6.6339
X3.6024Y-6.6535
X3.6024Y-6.6732
X3.6033Y-3.2638
X3.6063Y-6.0906
X3.6075Y-5.1453
X3.6091Y-3.0256
X3.6102Y-6.0472
X3.6111Y-3.5104
X3.612Y-3.542
X3.6122Y-4.9705
X3.6142Y-5.3031
X3.6161Y-2.0827
X3.6181Y-3.376
X3.6181Y-3.4134
X3.6181Y-6.1457
X3.6205Y-3.0642
X3.622Y-6.6732
X3.622Y-1.9134
X3.622Y-1.9764
X3.622Y-2.0394
X3.622Y-3.0441
X3.622Y-4.874
X3.622Y-6.4665
X3.622Y-6.4862
X3.622Y-6.5059
X3.622Y-6.5256
X3.6299Y-2.1969
X3.6299Y-3.3563
X3.6299Y-5.0433
X3.6299Y-5.2421
X3.6299Y-6.0906
X3.6301Y-2.2912
X3.6311Y-5.1453
X3.6319Y-2.1004
X3.6319Y-2.2283
X3.6319Y-2.2579
X3.6319Y-2.3228
X3.6319Y-2.3543
X3.6319Y-6.25
X3.6331Y-4.5594
X3.6339Y-2.4055
X3.6339Y-4.9705
X3.6339Y-6.0472
X3.6358Y-3.279
X3.6358Y-3.3937
X3.6358Y-3.4291
X3.6378Y-5.6181
X3.6382Y-4.8248
X3.6388Y-5.5236
X3.6417Y-4.874
X3.6417Y-5.3031
X3.6417Y-5.4567
X3.6417Y-5.7717
X3.6417Y-5.7913
X3.6417Y-5.811
X3.6417Y-6.1457
X3.6417Y-6.4665
X3.6417Y-6.4862
X3.6417Y-6.5059
X3.6417Y-6.5256
X3.6417Y-6.6732
X3.6437Y-4.7146
X3.6457Y-3.342
X3.6469Y-3.0783
X3.6479Y-3.1592
X3.6496Y-5.0315
X3.6496Y-5.2539
X3.6513Y-5.1457
X3.6535Y-3.2047
X3.6535Y-6.0472
X3.6535Y-6.0906
X3.6575Y-3.2908
X3.6575Y-4.0866
X3.6614Y-4.1732
X3.6614Y-6.25
X3.6614Y-6.6732
X3.6634Y-4.874
X3.6639Y-2.4094
X3.6654Y-5.7717
X3.6654Y-5.7913
X3.6654Y-5.811
X3.6654Y-6.1457
X3.6673Y-4.7146
X3.6692Y-2.181
X3.6693Y-1.8976
X3.6693Y-1.9291
X3.6693Y-2.1181
X3.6693Y-2.2441
X3.6693Y-2.2756
X3.6693Y-2.3071
X3.6693Y-2.3701
X3.6713Y-5.0315
X3.6713Y-5.2539
X3.6772Y-4.3307
X3.6772Y-4.6181
X3.6772Y-6.0472
X3.6772Y-6.0906
X3.6791Y-4.8071
X3.6811Y-6.6732
X3.6831Y-3.5443
X3.684Y-3.1629
X3.6848Y-3.3142
X3.685Y-4.0906
X3.687Y-3.5758
X3.689Y-3.2264
X3.69Y-3.5971
X3.6909Y-4.7146
X3.6909Y-6.25
X3.6969Y-4.6063
X3.6988Y-4.8189
X3.6998Y-3.5246
X3.7004Y-2.0559
X3.7008Y-6.6732
X3.7008Y-1.8976
X3.7008Y-2.1181
X3.7008Y-2.3386
X3.7008Y-2.3701
X3.7008Y-6.0472
X3.7008Y-6.0906
X3.7017Y-2.0241
X3.7018Y-3.5049
X3.702Y-5.1453
X3.7049Y-3.5586
X3.7071Y-3.0122
X3.7074Y-2.9278
X3.7087Y-4.0118
X3.7126Y-3.3071
X3.7134Y-3.0327
X3.7185Y-4.6063
X3.7205Y-4.8189
X3.7205Y-6.25
X3.7205Y-6.6732
X3.7241Y-3.077
X3.7244Y-2.5
X3.7244Y-6.0472
X3.7244Y-6.0906
X3.7264Y-3.2437
X3.7283Y-2.8346
X3.735Y-2.2756
X3.7362Y-5.3031
X3.7402Y-2.0394
X3.7402Y-2.2008
X3.7402Y-5.4626
X3.7402Y-5.4823
X3.7402Y-5.502
X3.7402Y-5.5217
X3.7402Y-5.5413
X3.7402Y-5.561
X3.7402Y-6.6732
X3.7406Y-1.8331
X3.7441Y-3.0154
X3.7452Y-2.1474
X3.7461Y-1.5925
X3.7473Y-3.3608
X3.748Y-6.0472
X3.7492Y-3.2573
X3.7492Y-5.1453
X3.75Y-5.5807
X3.75Y-5.6929
X3.75Y-6.25
X3.752Y-2.1004
X3.752Y-2.124
X3.7528Y-2.9272
X3.7559Y-1.937
X3.7559Y-2.5
X3.7559Y-3.0492
X3.7567Y-1.8474
X3.7598Y-4.3307
X3.7598Y-4.5276
X3.7598Y-4.5472
X3.7598Y-5.4626
X3.7598Y-5.4823
X3.7598Y-5.502
X3.7598Y-5.5217
X3.7598Y-5.5413
X3.7598Y-5.561
X3.7598Y-6.4665
X3.7598Y-6.4862
X3.7598Y-6.5059
X3.7598Y-6.5256
X3.7598Y-6.6732
X3.7618Y-4.7146
X3.7638Y-1.6457
X3.7638Y-5.3031
X3.7693Y-4.1671
X3.771Y-2.1335
X3.7717Y-4.9331
X3.772Y-1.9035
X3.7728Y-5.1453
X3.7729Y-2.952
X3.7742Y-2.1572
X3.7783Y-1.9724
X3.7795Y-3.0472
X3.7795Y-3.3996
X3.7795Y-3.5197
X3.7795Y-4.5276
X3.7795Y-4.5472
X3.7795Y-6.0906
X3.7795Y-6.25
X3.7795Y-6.4665
X3.7795Y-6.4862
X3.7795Y-6.5059
X3.7795Y-6.5256
X3.7795Y-6.6732
X3.7803Y-1.8504
X3.7813Y-2.0285
X3.7835Y-2.9705
X3.7835Y-3.2047
X3.7854Y-4.7146
X3.7874Y-1.6299
X3.7898Y-1.9528
X3.7904Y-1.9203
X3.7906Y-1.9921
X3.7913Y-2.1969
X3.7913Y-5.3031
X3.7965Y-5.1453
X3.7992Y-4.5276
X3.7992Y-4.5472
X3.7992Y-4.9331
X3.7992Y-5.7244
X3.7992Y-5.7421
X3.7992Y-6.5945
X3.7992Y-6.6142
X3.7992Y-6.6339
X3.7992Y-6.6535
X3.7992Y-6.6732
X3.8071Y-3.6654
X3.8091Y-4.7146
X3.8091Y-6.25
X3.8107Y-2.1387
X3.811Y-1.3622
X3.811Y-1.3819
X3.811Y-1.4016
X3.811Y-1.6299
X3.811Y-6.0906
X3.8142Y-2.1866
X3.815Y-1.4685
X3.815Y-5.3031
X3.8185Y-3.1259
X3.8189Y-3.4094
X3.8189Y-3.4409
X3.8189Y-3.4724
X3.8189Y-4.1181
X3.8189Y-4.5276
X3.8189Y-4.5472
X3.8189Y-6.5945
X3.8201Y-2.2098
X3.8201Y-5.1453
X3.821Y-3.0315
X3.8254Y-2.0876
X3.8256Y-5.5925
X3.8256Y-5.6122
X3.8268Y-2.2441
X3.8268Y-2.8858
X3.8268Y-3.6732
X3.8268Y-4.9331
X3.8297Y-1.8419
X3.8307Y-1.3701
X3.8307Y-1.3937
X3.8307Y-4.3307
X3.8307Y-5.7618
X3.8312Y-2.024
X3.8316Y-2.0563
X3.8327Y-4.7146
X3.8346Y-1.4528
X3.8346Y-1.6299
X3.8385Y-6.5736
X3.8386Y-4.5276
X3.8386Y-4.5472
X3.8386Y-6.25
X3.8386Y-6.4567
X3.8386Y-6.4764
X3.8386Y-6.4961
X3.8386Y-6.5157
X3.8386Y-6.5354
X3.8386Y-6.5551
X3.8386Y-6.5945
X3.8425Y-5.3031
X3.8437Y-5.1453
X3.8494Y-2.8839
X3.8504Y-1.3622
X3.8504Y-1.3819
X3.8504Y-1.4016
X3.8504Y-2.9675
X3.8504Y-3.0
X3.8504Y-3.063
X3.8504Y-3.189
X3.8504Y-3.2205
X3.8504Y-3.315
X3.8504Y-3.3465
X3.8504Y-3.4094
X3.8504Y-3.4724
X3.8504Y-3.5039
X3.8531Y-5.5217
X3.8531Y-5.6939
X3.8535Y-5.7677
X3.8543Y-1.4685
X3.8563Y-4.7146
X3.8566Y-3.707
X3.8583Y-2.2126
X3.8583Y-2.3071
X3.8583Y-2.3701
X3.8583Y-4.5276
X3.8583Y-4.5472
X3.8583Y-4.9331
X3.8585Y-3.7266
X3.8592Y-2.0533
X3.8592Y-2.0862
X3.8594Y-1.8321
X3.8622Y-3.7913
X3.8622Y-4.0748
X3.8622Y-4.3071
X3.8661Y-2.9016
X3.8673Y-5.1453
X3.8681Y-6.25
X3.8681Y-6.4764
X3.8681Y-6.4961
X3.8681Y-6.5157
X3.8681Y-6.5354
X3.8701Y-5.3031
X3.874Y-2.5256
X3.8776Y-3.5653
X3.878Y-4.5276
X3.878Y-4.5472
X3.8799Y-4.7146
X3.8811Y-2.6291
X3.8815Y-2.5886
X3.8819Y-2.6661
X3.8819Y-2.937
X3.8819Y-3.0
X3.8819Y-3.063
X3.8819Y-3.0945
X3.8819Y-3.126
X3.8819Y-3.189
X3.8819Y-3.2205
X3.8819Y-3.2835
X3.8819Y-3.315
X3.8819Y-3.3465
X3.8819Y-3.4724
X3.8819Y-3.5039
X3.8819Y-3.5354
X3.8827Y-3.0323
X3.8829Y-2.9685
X3.8829Y-3.4409
X3.8858Y-1.2323
X3.8858Y-2.4055
X3.8858Y-3.7953
X3.8858Y-4.9331
X3.8878Y-2.5079
X3.8898Y-2.3386
X3.8909Y-5.1453
X3.8932Y-1.9997
X3.8937Y-4.2717
X3.8976Y-4.5276
X3.8976Y-4.5472
X3.8976Y-4.8622
X3.8976Y-4.8819
X3.8976Y-4.9016
X3.8976Y-6.25
X3.8976Y-6.4764
X3.8976Y-6.4961
X3.8976Y-6.5157
X3.8976Y-6.5354
X3.9094Y-1.2323
X3.9122Y-1.8085
X3.9134Y-1.5276
X3.9134Y-3.0626
X3.9134Y-3.0945
X3.9134Y-3.126
X3.9134Y-3.189
X3.9134Y-3.2205
X3.9134Y-3.2835
X3.9134Y-3.315
X3.9134Y-3.3465
X3.9134Y-3.4094
X3.9134Y-3.4724
X3.9134Y-3.5354
X3.9134Y-4.9331
X3.9144Y-3.4409
X3.9146Y-5.1453
X3.9173Y-1.3031
X3.9173Y-3.6142
X3.9173Y-4.5276
X3.9173Y-4.5472
X3.9173Y-4.8622
X3.9173Y-4.8819
X3.9252Y-5.748
X3.9272Y-6.25
X3.9272Y-6.4764
X3.9272Y-6.4961
X3.9272Y-6.5157
X3.9272Y-6.5354
X3.9291Y-1.2638
X3.9291Y-1.3622
X3.9291Y-1.3819
X3.9291Y-1.4016
X3.9331Y-1.2323
X3.9345Y-2.3346
X3.9349Y-2.0899
X3.937Y-1.3031
X3.937Y-2.1969
X3.937Y-2.2283
X3.937Y-4.5276
X3.937Y-4.5472
X3.937Y-4.8819
X3.937Y-4.9016
X3.938Y-6.0487
X3.938Y-6.093
X3.9382Y-2.1657
X3.9382Y-5.1453
X3.9409Y-2.2598
X3.9409Y-2.2913
X3.9409Y-4.1378
X3.9427Y-3.252
X3.9443Y-3.1575
X3.9446Y-4.1607
X3.9449Y-2.9685
X3.9449Y-3.0
X3.9449Y-3.0618
X3.9449Y-3.0945
X3.9449Y-3.126
X3.9449Y-3.189
X3.9449Y-3.2205
X3.9449Y-3.2835
X3.9449Y-3.315
X3.9449Y-3.4094
X3.9449Y-3.4409
X3.9449Y-3.4724
X3.9449Y-3.5039
X3.9449Y-3.5354
X3.9459Y-3.0305
X3.9469Y-1.4272
X3.9488Y-1.3701
X3.9488Y-1.3937
X3.9488Y-5.7008
X3.9488Y-5.748
X3.9508Y-4.7146
X3.9528Y-1.2638
X3.9528Y-5.2717
X3.9528Y-5.5827
X3.9547Y-4.3898
X3.9567Y-1.2323
X3.9567Y-4.5276
X3.9567Y-4.5472
X3.9567Y-4.8622
X3.9567Y-4.8819
X3.9567Y-4.9016
X3.9567Y-5.0118
X3.9567Y-6.25
X3.9567Y-6.4764
X3.9567Y-6.4961
X3.9567Y-6.5157
X3.9567Y-6.5354
X3.9638Y-5.1453
X3.9685Y-1.3622
X3.9685Y-1.3819
X3.9685Y-1.4016
X3.9746Y-3.3783
X3.9751Y-4.1676
X3.9762Y-2.9999
X3.9764Y-1.2638
X3.9764Y-1.5512
X3.9764Y-2.9685
X3.9764Y-3.0315
X3.9764Y-3.062
X3.9764Y-3.0945
X3.9764Y-3.126
X3.9764Y-3.189
X3.9764Y-3.252
X3.9764Y-3.2835
X3.9764Y-3.315
X3.9764Y-3.3465
X3.9764Y-3.4409
X3.9764Y-3.4724
X3.9764Y-3.5039
X3.9764Y-3.5354
X3.9764Y-4.7146
X3.9764Y-4.8622
X3.9764Y-4.8819
X3.9764Y-4.9016
X3.9768Y-3.2201
X3.9803Y-1.2323
X3.9803Y-4.5276
X3.9803Y-5.748
X3.9862Y-6.25
X3.9872Y-4.439
X3.9874Y-5.1453
X3.9921Y-1.3031
X3.9921Y-2.7953
X3.9921Y-4.2283
X3.9939Y-2.4506
X3.9941Y-4.1909
X3.9961Y-1.4803
X3.9961Y-4.8622
X3.9961Y-4.8819
X3.9961Y-4.9016
X4.0Y-4.7146
X4.0039Y-1.2323
X4.0039Y-1.2638
X4.0039Y-5.9173
X4.0074Y-3.157
X4.0079Y-2.3976
X4.0079Y-2.9685
X4.0079Y-3.0
X4.0079Y-3.0315
X4.0079Y-3.063
X4.0079Y-3.2835
X4.0079Y-3.315
X4.0079Y-3.3465
X4.0079Y-3.378
X4.0079Y-3.4094
X4.0079Y-3.4409
X4.0079Y-3.4724
X4.0079Y-3.5039
X4.0079Y-3.5354
X4.0079Y-3.5669
X4.0079Y-4.248
X4.0079Y-3.2205
X4.0118Y-2.5591
X4.0118Y-4.2825
X4.0118Y-4.311
X4.0157Y-4.1732
X4.0157Y-4.5276
X4.0157Y-4.5472
X4.0157Y-4.8622
X4.0157Y-4.8819
X4.0157Y-4.9016
X4.0157Y-6.25
X4.0177Y-3.8711
X4.0207Y-1.8085
X4.0236Y-2.8976
X4.0236Y-3.0787
X4.0236Y-4.372
X4.0244Y-3.1406
X4.0256Y-2.3346
X4.0276Y-4.2638
X4.0315Y-2.5039
X4.0315Y-4.2968
X4.0315Y-4.3268
X4.0354Y-3.8878
X4.0354Y-4.1496
X4.0354Y-4.5276
X4.0354Y-4.5472
X4.0354Y-4.8622
X4.0354Y-4.8819
X4.0354Y-4.9016
X4.0374Y-4.3484
X4.039Y-3.126
X4.0394Y-2.9685
X4.0394Y-3.0
X4.0394Y-3.0315
X4.0394Y-3.063
X4.0394Y-3.0945
X4.0394Y-3.252
X4.0394Y-3.315
X4.0394Y-3.4094
X4.0394Y-3.4409
X4.0394Y-3.4724
X4.0394Y-3.5039
X4.0394Y-3.5354
X4.0394Y-3.2205
X4.0399Y-3.157
X4.0433Y-4.1201
X4.0453Y-6.25
X4.0472Y-1.3622
X4.0472Y-1.3819
X4.0472Y-1.4016
X4.0492Y-5.3362
X4.052Y-5.6687
X4.0551Y-2.4567
X4.0551Y-4.5276
X4.0551Y-4.5472
X4.0551Y-5.0
X4.0551Y-5.0197
X4.0579Y-5.4882
X4.0581Y-3.8583
X4.06Y-4.0738
X4.063Y-4.05
X4.063Y-4.3602
X4.0669Y-1.3701
X4.0669Y-1.3937
X4.0669Y-4.1161
X4.0669Y-5.2744
X4.0673Y-5.3205
X4.0677Y-5.2949
X4.0684Y-3.999
X4.0694Y-3.8361
X4.0709Y-3.0
X4.0709Y-3.0315
X4.0709Y-3.0941
X4.0709Y-3.126
X4.0709Y-3.1575
X4.0709Y-3.2205
X4.0709Y-3.3465
X4.0709Y-3.378
X4.0709Y-3.4094
X4.0709Y-3.4409
X4.0709Y-3.4724
X4.0709Y-3.2835
X4.0719Y-5.4715
X4.072Y-3.0641
X4.0748Y-1.5669
X4.0748Y-4.9409
X4.0748Y-4.9606
X4.0748Y-4.9803
X4.0748Y-5.0
X4.0748Y-5.0197
X4.0748Y-6.25
X4.0787Y-4.0217
X4.0787Y-5.4331
X4.0807Y-5.3933
X4.0807Y-5.3647
X4.0827Y-4.622
X4.0861Y-3.7889
X4.0866Y-1.3622
X4.0866Y-1.3819
X4.0866Y-1.4016
X4.0866Y-3.6063
X4.0886Y-4.4508
X4.0886Y-5.3197
X4.089Y-5.2736
X4.089Y-5.2961
X4.0894Y-5.7087
X4.0901Y-5.5354
X4.0902Y-4.4724
X4.0906Y-5.4646
X4.0945Y-4.376
X4.0945Y-5.379
X4.0945Y-5.4114
X4.0959Y-4.8071
X4.0988Y-5.3504
X4.1019Y-3.2536
X4.1024Y-2.9685
X4.1024Y-3.0
X4.1024Y-3.0315
X4.1024Y-3.063
X4.1024Y-3.0945
X4.1024Y-3.2205
X4.1024Y-3.2835
X4.1024Y-3.4094
X4.1024Y-3.4409
X4.1024Y-3.4724
X4.1024Y-3.5039
X4.1024Y-3.5354
X4.1024Y-3.315
X4.1043Y-6.25
X4.1063Y-5.4449
X4.1117Y-5.4898
X4.122Y-6.0906
X4.1256Y-2.1652
X4.126Y-6.0433
X4.1334Y-3.3155
X4.1339Y-3.001
X4.1339Y-3.126
X4.1339Y-3.1575
X4.1339Y-3.4409
X4.1339Y-3.4724
X4.1339Y-3.5039
X4.1339Y-3.5354
X4.1339Y-6.25
X4.1339Y-3.189
X4.1342Y-3.2199
X4.1348Y-1.8079
X4.1417Y-4.0472
X4.1435Y-1.3203
X4.1437Y-4.0236
X4.1443Y-2.0573
X4.1496Y-6.0906
X4.1535Y-6.0433
X4.1535Y-6.4764
X4.1535Y-6.4961
X4.1535Y-6.5157
X4.1535Y-6.5354
X4.1558Y-2.1651
X4.1575Y-5.2874
X4.1597Y-1.7311
X4.1634Y-6.25
X4.1654Y-2.9685
X4.1654Y-3.0315
X4.1654Y-3.063
X4.1654Y-3.0945
X4.1654Y-3.126
X4.1654Y-3.3465
X4.1654Y-3.4094
X4.1654Y-3.4409
X4.1654Y-3.315
X4.1663Y-3.3789
X4.1718Y-2.0611
X4.174Y-5.561
X4.174Y-5.5807
X4.174Y-5.6024
X4.174Y-5.622
X4.174Y-5.7539
X4.174Y-5.7795
X4.1752Y-5.7146
X4.1752Y-5.7343
X4.1772Y-6.0906
X4.1811Y-1.2598
X4.1811Y-2.313
X4.1811Y-2.8976
X4.1811Y-6.0433
X4.1831Y-6.4764
X4.1831Y-6.4961
X4.1831Y-6.5157
X4.1831Y-6.5354
X4.189Y-1.748
X4.1921Y-1.7785
X4.1929Y-6.25
X4.195Y-3.126
X4.1957Y-3.0304
X4.1969Y-1.685
X4.1969Y-2.9361
X4.1969Y-3.063
X4.1969Y-3.0945
X4.1969Y-3.315
X4.1969Y-3.4094
X4.1969Y-3.4409
X4.1969Y-3.4724
X4.1969Y-3.5039
X4.1969Y-3.5354
X4.1969Y-3.5669
X4.2008Y-1.7126
X4.2126Y-1.748
X4.2126Y-6.4764
X4.2126Y-6.4961
X4.2126Y-6.5157
X4.2126Y-6.5354
X4.2169Y-1.9213
X4.2174Y-1.8078
X4.2203Y-1.3197
X4.2205Y-3.9252
X4.2224Y-6.25
X4.2244Y-1.685
X4.2248Y-2.1202
X4.2274Y-3.5039
X4.2283Y-2.4331
X4.2283Y-2.937
X4.2283Y-2.9685
X4.2283Y-3.0
X4.2283Y-3.063
X4.2283Y-3.0945
X4.2283Y-3.126
X4.2283Y-3.189
X4.2283Y-3.2205
X4.2283Y-3.3465
X4.2283Y-3.4094
X4.2283Y-3.4409
X4.2283Y-3.4724
X4.2283Y-3.5354
X4.2283Y-3.5669
X4.2283Y-3.2835
X4.2288Y-3.032
X4.2288Y-3.3155
X4.2293Y-3.3789
X4.2333Y-5.7982
X4.2334Y-2.3228
X4.2419Y-2.0588
X4.2421Y-6.4764
X4.2421Y-6.4961
X4.2421Y-6.5157
X4.2421Y-6.5354
X4.2441Y-3.6063
X4.2443Y-1.3655
X4.248Y-2.2815
X4.2497Y-2.3363
X4.252Y-1.685
X4.252Y-2.378
X4.252Y-2.4016
X4.252Y-5.1476
X4.252Y-5.1969
X4.252Y-6.25
X4.2551Y-2.2598
X4.2559Y-5.3031
X4.2598Y-3.0315
X4.2598Y-3.063
X4.2598Y-3.126
X4.2598Y-3.1575
X4.2598Y-3.2205
X4.2598Y-3.2835
X4.2598Y-3.4094
X4.2598Y-3.4409
X4.2598Y-3.4724
X4.2598Y-3.5354
X4.2598Y-3.5669
X4.2598Y-3.189
X4.2602Y-3.3772
X4.2633Y-2.0587
X4.2657Y-5.7795
X4.2669Y-2.1654
X4.2669Y-2.2298
X4.2708Y-2.2913
X4.2715Y-6.5747
X4.2717Y-1.4646
X4.2717Y-5.0886
X4.2717Y-6.4567
X4.2717Y-6.4764
X4.2717Y-6.4961
X4.2717Y-6.5157
X4.2717Y-6.5354
X4.2717Y-6.5551
X4.2717Y-6.5945
X4.2756Y-5.1752
X4.2756Y-5.1969
X4.277Y-5.3166
X4.2815Y-6.25
X4.2835Y-1.685
X4.2854Y-5.5993
X4.2874Y-3.7333
X4.2874Y-3.7539
X4.2874Y-4.126
X4.2874Y-4.1516
X4.2874Y-4.1693
X4.2894Y-1.872
X4.2904Y-3.7018
X4.2909Y-3.1264
X4.2913Y-2.9685
X4.2913Y-3.0315
X4.2913Y-3.063
X4.2913Y-3.0945
X4.2913Y-3.2839
X4.2913Y-3.315
X4.2913Y-3.378
X4.2913Y-3.4094
X4.2913Y-3.4409
X4.2913Y-5.0098
X4.2913Y-5.7795
X4.2913Y-6.1358
X4.2913Y-6.5945
X4.2913Y-3.4724
X4.2914Y-3.3487
X4.293Y-3.5042
X4.2958Y-3.9208
X4.2972Y-3.8878
X4.2992Y-1.7126
X4.2992Y-1.748
X4.2992Y-3.8543
X4.3071Y-2.3386
X4.3082Y-2.0551
X4.311Y-1.685
X4.311Y-5.2559
X4.311Y-5.7795
X4.311Y-6.25
X4.311Y-6.5945
X4.311Y-6.6142
X4.311Y-6.6339
X4.311Y-6.6535
X4.311Y-6.6732
X4.312Y-5.5974
X4.3169Y-3.6909
X4.3189Y-3.8386
X4.3209Y-4.126
X4.3209Y-4.1496
X4.3209Y-4.1732
X4.3209Y-5.122
X4.3227Y-2.9684
X4.3228Y-1.4685
X4.3228Y-2.439
X4.3228Y-3.0
X4.3228Y-3.0315
X4.3228Y-3.063
X4.3228Y-3.0945
X4.3228Y-3.126
X4.3228Y-3.1575
X4.3228Y-3.1886
X4.3228Y-3.2205
X4.3228Y-3.252
X4.3228Y-3.2835
X4.3228Y-3.315
X4.3228Y-3.4409
X4.3228Y-3.4724
X4.3248Y-5.2736
X4.3268Y-1.3622
X4.3268Y-1.3819
X4.3268Y-1.4016
X4.3307Y-4.9606
X4.3307Y-6.125
X4.3307Y-6.4665
X4.3307Y-6.4862
X4.3307Y-6.5059
X4.3307Y-6.5256
X4.3307Y-6.6732
X4.3337Y-5.5974
X4.3358Y-4.4843
X4.3366Y-4.4386
X4.3366Y-4.4593
X4.3375Y-4.4173
X4.3377Y-2.0551
X4.3377Y-2.3071
X4.3386Y-1.685
X4.3386Y-1.7736
X4.3386Y-2.2126
X4.3386Y-4.3957
X4.3386Y-4.7598
X4.3386Y-5.0264
X4.3402Y-4.9012
X4.3406Y-6.1024
X4.3406Y-6.25
X4.3425Y-4.6024
X4.3425Y-4.6299
X4.3425Y-4.6614
X4.3425Y-4.6969
X4.3465Y-1.3701
X4.3465Y-1.3937
X4.3465Y-5.5266
X4.3504Y-5.7972
X4.3504Y-6.4665
X4.3504Y-6.4862
X4.3504Y-6.5059
X4.3504Y-6.5256
X4.3504Y-6.6732
X4.3524Y-1.8878
X4.3524Y-5.1929
X4.3526Y-2.9387
X4.3543Y-2.9685
X4.3543Y-3.0
X4.3543Y-3.0315
X4.3543Y-3.063
X4.3543Y-3.0945
X4.3543Y-3.126
X4.3543Y-3.1575
X4.3543Y-3.189
X4.3543Y-3.2205
X4.3543Y-3.252
X4.3543Y-5.2815
X4.3546Y-3.3169
X4.3553Y-5.5984
X4.3563Y-2.8883
X4.3642Y-2.4429
X4.3642Y-5.1713
X4.3642Y-5.2146
X4.3642Y-5.7776
X4.3661Y-1.3622
X4.3661Y-1.3819
X4.3661Y-1.4016
X4.369Y-2.3388
X4.3701Y-1.685
X4.3701Y-4.6299
X4.3701Y-4.6614
X4.3701Y-4.7736
X4.3701Y-4.813
X4.3701Y-4.8524
X4.3701Y-4.8917
X4.3701Y-4.9311
X4.3701Y-4.9705
X4.3701Y-6.25
X4.3701Y-6.6732
X4.3732Y-2.3701
X4.378Y-1.8563
X4.378Y-2.1063
X4.378Y-2.1299
X4.3797Y-2.8344
X4.3818Y-2.2606
X4.3819Y-5.2638
X4.3858Y-2.1811
X4.3858Y-2.937
X4.3858Y-2.9685
X4.3858Y-3.0315
X4.3858Y-3.063
X4.3858Y-3.0945
X4.3858Y-3.1575
X4.3858Y-3.189
X4.3858Y-3.2205
X4.3858Y-3.252
X4.3858Y-3.315
X4.3858Y-3.378
X4.3858Y-3.4094
X4.3858Y-3.4409
X4.3858Y-3.4724
X4.3858Y-3.5039
X4.3858Y-5.128
X4.3861Y-3.5372
X4.3895Y-3.5657
X4.3898Y-4.3894
X4.3898Y-5.7776
X4.3898Y-6.6732
X4.3905Y-1.9366
X4.3927Y-3.7512
X4.3933Y-1.8125
X4.3937Y-1.7559
X4.3937Y-3.9469
X4.3964Y-2.0091
X4.3976Y-1.2323
X4.3976Y-1.2638
X4.3976Y-1.685
X4.3986Y-4.5856
X4.3996Y-6.25
X4.4016Y-3.6831
X4.4055Y-4.2598
X4.4055Y-4.2795
X4.4078Y-1.9035
X4.4094Y-5.7776
X4.4094Y-6.6732
X4.4106Y-1.9724
X4.4114Y-2.1673
X4.4134Y-3.6043
X4.4151Y-3.5354
X4.4168Y-2.969
X4.4169Y-3.0634
X4.4173Y-3.0315
X4.4173Y-3.0945
X4.4173Y-3.126
X4.4173Y-3.189
X4.4173Y-3.2205
X4.4173Y-3.378
X4.4173Y-3.4409
X4.4173Y-3.4724
X4.4173Y-3.5039
X4.4173Y-3.6673
X4.4173Y-4.0591
X4.4173Y-6.0906
X4.4203Y-3.7512
X4.4213Y-1.2323
X4.4213Y-1.2638
X4.4232Y-3.9469
X4.4232Y-4.2146
X4.4252Y-1.685
X4.4255Y-1.9197
X4.4263Y-1.9527
X4.4263Y-1.9913
X4.4291Y-6.25
X4.4291Y-6.6732
X4.4295Y-4.3906
X4.4301Y-5.5266
X4.4331Y-4.5512
X4.4331Y-5.2343
X4.435Y-2.248
X4.439Y-4.0591
X4.4409Y-1.3031
X4.4429Y-5.1831
X4.444Y-1.8543
X4.4449Y-1.2323
X4.4449Y-1.2638
X4.4449Y-1.3622
X4.4449Y-1.3819
X4.4449Y-1.4016
X4.4449Y-6.0906
X4.4469Y-5.2126
X4.4488Y-3.0
X4.4488Y-3.0315
X4.4488Y-3.063
X4.4488Y-3.0945
X4.4488Y-3.189
X4.4488Y-3.378
X4.4488Y-3.4409
X4.4488Y-3.5669
X4.4488Y-5.7776
X4.4488Y-6.6732
X4.4536Y-2.0782
X4.4567Y-1.685
X4.4569Y-2.201
X4.457Y-2.2823
X4.4587Y-6.25
X4.4598Y-2.3386
X4.4601Y-5.1634
X4.4606Y-2.0974
X4.4606Y-4.5512
X4.4646Y-1.3701
X4.4646Y-1.3937
X4.4646Y-3.6142
X4.4666Y-1.8445
X4.4685Y-1.2323
X4.4685Y-1.2638
X4.4685Y-1.3031
X4.4685Y-5.7776
X4.4685Y-6.4665
X4.4685Y-6.4862
X4.4685Y-6.5059
X4.4685Y-6.5256
X4.4685Y-6.6732
X4.4724Y-6.0906
X4.4732Y-5.2894
X4.4843Y-1.3622
X4.4843Y-1.3819
X4.4843Y-1.4016
X4.4843Y-1.685
X4.4843Y-1.7559
X4.4874Y-3.0476
X4.4882Y-2.9921
X4.4882Y-3.3622
X4.4882Y-3.4882
X4.4882Y-4.5512
X4.4882Y-6.25
X4.4882Y-6.4665
X4.4882Y-6.4862
X4.4882Y-6.5059
X4.4882Y-6.5256
X4.4882Y-6.6732
X4.4892Y-5.6289
X4.4902Y-3.4409
X4.4921Y-1.2323
X4.4921Y-1.2638
X4.4921Y-1.3031
X4.4941Y-2.0551
X4.4941Y-2.1496
X4.4952Y-2.2146
X4.4952Y-2.276
X4.4961Y-2.0236
X4.4961Y-3.5512
X4.4961Y-4.2598
X4.4961Y-4.2835
X4.4961Y-4.3071
X4.4961Y-4.3307
X4.4997Y-3.142
X4.5079Y-5.0645
X4.5079Y-5.7776
X4.5079Y-6.6732
X4.5091Y-1.8295
X4.5118Y-1.685
X4.5138Y-5.2165
X4.5157Y-4.2598
X4.5157Y-4.2835
X4.5157Y-4.3071
X4.5157Y-4.3307
X4.5157Y-5.1916
X4.5157Y-5.2376
X4.5167Y-5.6289
X4.5177Y-4.4091
X4.5177Y-6.25
X4.5197Y-1.2323
X4.5197Y-1.2638
X4.5197Y-4.5512
X4.5197Y-5.2618
X4.5217Y-5.0842
X4.5227Y-4.1697
X4.5236Y-5.0433
X4.5236Y-5.124
X4.5236Y-5.1629
X4.5236Y-5.2854
X4.5236Y-5.3091
X4.5256Y-2.0551
X4.5256Y-2.1496
X4.5256Y-5.3563
X4.5257Y-2.4124
X4.5267Y-2.2126
X4.5267Y-2.2441
X4.5267Y-2.3701
X4.5268Y-4.065
X4.5276Y-3.3937
X4.5276Y-5.7776
X4.5276Y-6.5945
X4.5276Y-6.6142
X4.5276Y-6.6339
X4.5276Y-6.6535
X4.5276Y-6.6732
X4.529Y-3.1103
X4.5315Y-3.372
X4.5354Y-3.1299
X4.5354Y-3.6457
X4.5354Y-4.2598
X4.5354Y-4.2835
X4.5354Y-4.3071
X4.5354Y-4.3307
X4.5394Y-2.9433
X4.5406Y-3.4878
X4.5433Y-1.685
X4.5445Y-4.1697
X4.5472Y-6.25
X4.5472Y-6.4567
X4.5472Y-6.4764
X4.5472Y-6.4961
X4.5472Y-6.5157
X4.5472Y-6.5354
X4.5472Y-6.5551
X4.5472Y-6.5748
X4.5472Y-6.5945
X4.5512Y-6.0433
X4.5512Y-6.0906
X4.5522Y-5.7667
X4.5551Y-3.372
X4.5551Y-3.9567
X4.5551Y-4.2598
X4.5551Y-4.2835
X4.5551Y-4.3071
X4.5551Y-4.3307
X4.5551Y-4.4071
X4.5591Y-5.3937
X4.5606Y-2.9445
X4.5609Y-3.1759
X4.563Y-1.3622
X4.563Y-1.3819
X4.563Y-1.4016
X4.5642Y-3.4858
X4.565Y-1.8189
X4.5661Y-2.1969
X4.5669Y-2.0394
X4.5689Y-2.1417
X4.57Y-2.2598
X4.57Y-2.2913
X4.57Y-2.3543
X4.5709Y-1.5
X4.5709Y-1.685
X4.5748Y-3.1619
X4.5768Y-4.0807
X4.5768Y-5.6299
X4.5768Y-5.6496
X4.5768Y-6.25
X4.5768Y-6.4764
X4.5768Y-6.4961
X4.5768Y-6.5157
X4.5768Y-6.5354
X4.5787Y-6.0433
X4.5787Y-6.0906
X4.5827Y-1.3701
X4.5827Y-1.3937
X4.5827Y-3.9567
X4.5835Y-2.1577
X4.5846Y-2.9445
X4.5866Y-2.9921
X4.5886Y-3.315
X4.5886Y-3.3366
X4.5945Y-3.6437
X4.5976Y-2.3858
X4.5984Y-1.685
X4.6Y-4.4185
X4.6024Y-1.3819
X4.6024Y-1.4016
X4.6024Y-1.5157
X4.6024Y-1.7126
X4.6047Y-3.3551
X4.6063Y-6.0433
X4.6063Y-6.0906
X4.6063Y-6.25
X4.6063Y-6.4764
X4.6063Y-6.4961
X4.6063Y-6.5157
X4.6063Y-6.5354
X4.6102Y-1.7362
X4.6102Y-3.9567
X4.6122Y-5.2795
X4.6135Y-4.2106
X4.6142Y-3.6437
X4.6142Y-4.5472
X4.6157Y-2.9453
X4.6161Y-1.9724
X4.6161Y-5.6791
X4.6171Y-5.9173
X4.6181Y-4.9685
X4.6201Y-5.124
X4.623Y-1.2313
X4.623Y-1.2766
X4.6237Y-3.2392
X4.624Y-3.3512
X4.624Y-5.3189
X4.626Y-5.1575
X4.626Y-5.1969
X4.6299Y-1.685
X4.6358Y-3.0294
X4.6358Y-6.25
X4.6358Y-6.4764
X4.6358Y-6.4961
X4.6358Y-6.5157
X4.6358Y-6.5354
X4.6361Y-5.6787
X4.6369Y-3.3726
X4.6369Y-3.3937
X4.6417Y-1.7244
X4.6417Y-1.748
X4.6417Y-1.8045
X4.6417Y-2.0039
X4.6417Y-3.9567
X4.6417Y-4.5472
X4.6429Y-4.1929
X4.6429Y-4.2886
X4.6435Y-3.2269
X4.6437Y-2.9453
X4.6457Y-5.1181
X4.6465Y-3.2827
X4.6496Y-3.3071
X4.6543Y-3.0176
X4.6555Y-5.6791
X4.6563Y-3.561
X4.6575Y-1.685
X4.6634Y-3.6437
X4.6638Y-2.9449
X4.6639Y-3.2147
X4.6654Y-1.811
X4.6654Y-4.065
X4.6654Y-5.1378
X4.6654Y-5.3642
X4.6654Y-6.25
X4.6654Y-6.4764
X4.6654Y-6.4961
X4.6654Y-6.5157
X4.6654Y-6.5354
X4.6693Y-3.9567
X4.6693Y-4.5472
X4.6732Y-1.9134
X4.6752Y-5.6496
X4.6752Y-5.6693
X4.6752Y-6.0531
X4.6791Y-5.0374
X4.6791Y-5.3366
X4.6831Y-1.3563
X4.6831Y-5.3858
X4.685Y-1.2598
X4.685Y-1.2874
X4.685Y-1.315
X4.685Y-1.378
X4.685Y-1.685
X4.685Y-3.6437
X4.685Y-5.1181
X4.685Y-5.1575
X4.687Y-2.9445
X4.688Y-1.4281
X4.689Y-5.7756
X4.6929Y-4.1969
X4.6929Y-4.2953
X4.6949Y-6.25
X4.6969Y-3.9567
X4.698Y-4.4516
X4.698Y-4.5776
X4.6993Y-3.2114
X4.7037Y-5.0492
X4.7047Y-1.9366
X4.7047Y-6.0827
X4.7165Y-5.7756
X4.7205Y-1.9928
X4.7209Y-2.0424
X4.7234Y-6.0207
X4.7244Y-1.7992
X4.7244Y-5.5413
X4.7244Y-6.25
X4.729Y-4.3516
X4.7323Y-4.1417
X4.7323Y-4.2953
X4.7343Y-3.6437
X4.7343Y-5.9154
X4.7366Y-4.4173
X4.7394Y-5.3602
X4.7411Y-6.0207
X4.7429Y-5.3894
X4.7472Y-1.3984
X4.75Y-1.9646
X4.7539Y-4.2776
X4.7539Y-6.25
X4.7559Y-3.6437
X4.7559Y-3.9567
X4.7559Y-4.1417
X4.7559Y-4.5472
X4.7598Y-5.7598
X4.7618Y-6.0128
X4.7638Y-5.1181
X4.7638Y-5.1575
X4.7638Y-5.5413
X4.7657Y-5.482
X4.7677Y-1.9862
X4.7677Y-5.0433
X4.7697Y-2.0236
X4.7717Y-4.2618
X4.7717Y-4.7126
X4.7717Y-4.7402
X4.7717Y-4.7677
X4.7717Y-4.8031
X4.7756Y-1.5315
X4.7835Y-3.9567
X4.7835Y-4.6614
X4.7835Y-6.25
X4.7844Y-2.8514
X4.7854Y-4.9465
X4.7856Y-5.4788
X4.7874Y-5.5404
X4.7874Y-5.7598
X4.788Y-1.4732
X4.7894Y-1.9094
X4.7933Y-2.0965
X4.7953Y-1.5315
X4.7962Y-4.4611
X4.7992Y-4.7126
X4.7992Y-4.7402
X4.7992Y-4.7677
X4.7992Y-4.8031
X4.8002Y-5.3602
X4.8012Y-2.0472
X4.8012Y-5.9419
X4.8012Y-5.9636
X4.8031Y-2.1496
X4.8031Y-3.6437
X4.8031Y-5.0394
X4.8031Y-5.1575
X4.8041Y-2.8514
X4.8091Y-2.7579
X4.8098Y-4.4004
X4.811Y-4.2992
X4.811Y-4.6614
X4.813Y-4.2421
X4.813Y-5.5413
X4.813Y-6.25
X4.8148Y-1.4732
X4.815Y-1.5591
X4.815Y-3.9567
X4.815Y-5.7598
X4.8152Y-4.3209
X4.8159Y-5.378
X4.8169Y-5.4857
X4.8209Y-2.0787
X4.8209Y-2.1654
X4.8209Y-2.1988
X4.8228Y-1.9252
X4.8248Y-2.7756
X4.8268Y-3.6437
X4.8268Y-4.7126
X4.8268Y-4.7402
X4.8268Y-4.7677
X4.8268Y-4.8031
X4.8287Y-1.5394
X4.8287Y-1.5787
X4.8339Y-1.8163
X4.8343Y-5.1567
X4.8356Y-5.6486
X4.8386Y-4.5472
X4.8386Y-4.6614
X4.8406Y-1.4724
X4.8425Y-1.5591
X4.8425Y-1.6575
X4.8425Y-1.9508
X4.8425Y-3.9567
X4.8425Y-5.0394
X4.8425Y-6.1624
X4.8425Y-6.25
X4.8465Y-1.8484
X4.8504Y-4.4626
X4.8504Y-5.7598
X4.8516Y-4.4122
X4.8524Y-5.6791
X4.8583Y-1.7598
X4.8602Y-5.0709
X4.8622Y-1.4724
X4.8622Y-6.4764
X4.8622Y-6.4961
X4.8622Y-6.5157
X4.8622Y-6.5354
X4.8652Y-2.872
X4.8661Y-4.5472
X4.8701Y-1.8307
X4.8701Y-3.9567
X4.8711Y-5.3878
X4.872Y-5.6791
X4.872Y-6.25
X4.878Y-1.5709
X4.878Y-1.6575
X4.878Y-5.7598
X4.8799Y-5.0881
X4.8819Y-4.8543
X4.8819Y-5.0394
X4.8819Y-5.8268
X4.8819Y-5.8465
X4.8819Y-5.9154
X4.8839Y-5.4764
X4.8917Y-2.8799
X4.8917Y-5.6791
X4.8917Y-6.4764
X4.8917Y-6.4961
X4.8917Y-6.5157
X4.8917Y-6.5354
X4.8937Y-4.2559
X4.8937Y-4.2795
X4.8937Y-4.3031
X4.8937Y-4.3268
X4.8937Y-4.5472
X4.9016Y-6.25
X4.9035Y-1.5709
X4.9035Y-5.4764
X4.9055Y-1.8701
X4.9055Y-4.626
X4.9055Y-4.6535
X4.9055Y-4.6811
X4.9055Y-4.7126
X4.9055Y-4.7402
X4.9055Y-4.7677
X4.9055Y-5.7598
X4.9094Y-3.9567
X4.9114Y-5.6791
X4.9114Y-5.8268
X4.9114Y-5.8465
X4.9124Y-5.6486
X4.913Y-4.1724
X4.9134Y-1.7622
X4.9134Y-4.2559
X4.9134Y-4.2795
X4.9134Y-4.3031
X4.9134Y-4.3268
X4.9134Y-4.4167
X4.9154Y-4.1461
X4.9213Y-1.4724
X4.9213Y-2.7874
X4.9213Y-5.9154
X4.9213Y-6.4764
X4.9213Y-6.4961
X4.9213Y-6.5157
X4.9213Y-6.5354
X4.9252Y-4.5472
X4.9272Y-4.5
X4.9291Y-6.0433
X4.9291Y-6.0906
X4.9311Y-6.25
X4.9331Y-4.2559
X4.9331Y-4.2795
X4.9331Y-4.3031
X4.9331Y-4.3268
X4.936Y-5.6486
X4.937Y-3.9567
X4.937Y-5.7598
X4.9386Y-4.4075
X4.939Y-2.9291
X4.9409Y-5.0394
X4.9409Y-5.8268
X4.9409Y-5.8465
X4.9449Y-1.4724
X4.9488Y-4.4547
X4.9489Y-2.7668
X4.9508Y-6.4764
X4.9508Y-6.4961
X4.9508Y-6.5157
X4.9508Y-6.5354
X4.9528Y-4.2559
X4.9528Y-4.2795
X4.9528Y-4.3031
X4.9528Y-4.3268
X4.9528Y-4.5472
X4.9567Y-1.7598
X4.9567Y-6.0433
X4.9567Y-6.0906
X4.9574Y-2.9114
X4.9587Y-1.5492
X4.9587Y-1.5728
X4.9606Y-1.872
X4.9606Y-1.9173
X4.9606Y-2.7402
X4.9606Y-5.6486
X4.9606Y-5.9154
X4.9606Y-6.25
X4.9626Y-2.9488
X4.9626Y-4.0693
X4.9646Y-1.8346
X4.9646Y-5.7598
X4.9685Y-3.9567
X4.9705Y-5.4232
X4.9705Y-5.8268
X4.9705Y-5.8465
X4.9715Y-1.4732
X4.9735Y-2.0852
X4.9803Y-4.5472
X4.9803Y-6.4567
X4.9803Y-6.4764
X4.9803Y-6.4961
X4.9803Y-6.5157
X4.9803Y-6.5354
X4.9803Y-6.5551
X4.9803Y-6.5748
X4.9803Y-6.5945
X4.9807Y-1.75
X4.9843Y-1.5276
X4.9843Y-6.0433
X4.9843Y-6.0906
X4.9902Y-6.25
X4.9921Y-5.7057
X4.9921Y-5.7598
X4.9922Y-1.4731
X4.9961Y-3.9567
X4.9961Y-4.8858
X4.9961Y-4.937
X4.9961Y-5.4094
X5.0Y-5.8268
X5.0Y-5.8465
X5.0Y-6.5945
X5.002Y-4.1063
X5.0039Y-1.5276
X5.0091Y-1.7504
X5.0144Y-5.6496
X5.0197Y-4.0748
X5.0197Y-6.25
X5.0197Y-6.5945
X5.0197Y-6.6142
X5.0197Y-6.6339
X5.0197Y-6.6535
X5.0197Y-6.6732
X5.0236Y-1.8268
X5.0236Y-2.7087
X5.0236Y-2.7953
X5.0236Y-3.9567
X5.0236Y-4.8858
X5.0236Y-4.937
X5.0236Y-5.4094
X5.0315Y-4.4079
X5.0346Y-4.2839
X5.035Y-4.3504
X5.0394Y-4.5472
X5.0394Y-5.4528
X5.0394Y-6.4665
X5.0394Y-6.4862
X5.0394Y-6.5059
X5.0394Y-6.5256
X5.0394Y-6.6732
X5.0406Y-1.7492
X5.0472Y-4.0748
X5.0472Y-6.2159
X5.0492Y-6.25
X5.0512Y-4.8858
X5.0512Y-4.937
X5.0512Y-5.6309
X5.0591Y-5.281
X5.0591Y-5.4134
X5.0591Y-6.4665
X5.0591Y-6.4862
X5.0591Y-6.5059
X5.0591Y-6.5256
X5.0591Y-6.6732
X5.06Y-5.2416
X5.06Y-5.3204
X5.06Y-5.3597
X5.063Y-5.1201
X5.063Y-5.1634
X5.064Y-5.0925
X5.0669Y-4.5472
X5.0669Y-5.0689
X5.0669Y-6.2159
X5.0689Y-5.187
X5.0689Y-5.7756
X5.0697Y-1.7504
X5.0699Y-5.3396
X5.0709Y-5.1398
X5.0719Y-5.3012
X5.0728Y-5.2613
X5.0738Y-5.2224
X5.0738Y-5.6299
X5.0787Y-4.0748
X5.0787Y-6.25
X5.0787Y-6.6732
X5.0827Y-4.1339
X5.0827Y-4.1614
X5.0865Y-6.2159
X5.0906Y-5.9114
X5.0965Y-3.6575
X5.0965Y-3.6791
X5.0984Y-4.5472
X5.0984Y-4.9409
X5.0984Y-5.7756
X5.0984Y-6.6732
X5.1008Y-4.4681
X5.1024Y-4.8858
X5.1043Y-2.815
X5.1043Y-2.9232
X5.1063Y-6.2159
X5.1083Y-6.25
X5.1142Y-3.5864
X5.1142Y-3.6063
X5.1161Y-1.4232
X5.1181Y-5.9154
X5.1181Y-6.6732
X5.1201Y-2.8287
X5.1213Y-4.2622
X5.124Y-4.3209
X5.126Y-1.2933
X5.126Y-4.5472
X5.126Y-4.9409
X5.128Y-1.2303
X5.128Y-1.4724
X5.128Y-2.9232
X5.128Y-5.7756
X5.1299Y-1.2067
X5.1299Y-4.8858
X5.1378Y-1.5197
X5.1378Y-6.25
X5.1378Y-6.6732
X5.1535Y-1.3327
X5.1535Y-1.3543
X5.1535Y-4.5472
X5.1535Y-4.9409
X5.1575Y-1.7165
X5.1575Y-4.1654
X5.1575Y-4.8858
X5.1575Y-6.6732
X5.1583Y-4.3441
X5.1594Y-1.6476
X5.1673Y-6.25
X5.1713Y-1.4724
X5.1772Y-1.748
X5.1772Y-2.9232
X5.1772Y-4.1654
X5.1772Y-4.3913
X5.1772Y-4.4606
X5.1772Y-5.8169
X5.1772Y-5.8366
X5.1772Y-6.4665
X5.1772Y-6.4862
X5.1772Y-6.5059
X5.1772Y-6.5256
X5.1772Y-6.6732
X5.1831Y-1.2362
X5.189Y-3.3996
X5.1929Y-5.9154
X5.1929Y-6.0433
X5.1929Y-6.0906
X5.1949Y-1.4232
X5.1949Y-1.6476
X5.1969Y-5.8169
X5.1969Y-5.8366
X5.1969Y-6.25
X5.1969Y-6.4665
X5.1969Y-6.4862
X5.1969Y-6.5059
X5.1969Y-6.5256
X5.1969Y-6.6732
X5.2016Y-4.2669
X5.2028Y-1.2362
X5.2047Y-3.3858
X5.2096Y-1.6998
X5.2126Y-2.9685
X5.2126Y-3.1063
X5.2126Y-5.0709
X5.2146Y-1.937
X5.2146Y-1.9646
X5.2146Y-5.1033
X5.2156Y-5.1407
X5.2156Y-5.1752
X5.2156Y-5.3868
X5.2165Y-1.2815
X5.2165Y-1.3091
X5.2165Y-1.3327
X5.2165Y-1.3543
X5.2165Y-1.376
X5.2165Y-5.2106
X5.2165Y-5.2461
X5.2165Y-5.2815
X5.2165Y-5.3169
X5.2165Y-5.3524
X5.2165Y-5.4232
X5.2165Y-5.6535
X5.2165Y-5.6811
X5.2165Y-5.7087
X5.2165Y-5.8169
X5.2165Y-5.8366
X5.2165Y-5.9154
X5.2165Y-6.6732
X5.2205Y-2.0197
X5.2205Y-6.0433
X5.2205Y-6.0906
X5.2224Y-1.2362
X5.2264Y-6.25
X5.2323Y-2.9685
X5.2323Y-3.1063
X5.2343Y-5.5217
X5.2362Y-5.8169
X5.2362Y-5.8366
X5.2362Y-5.9154
X5.2362Y-6.6732
X5.248Y-2.9832
X5.248Y-6.0433
X5.248Y-6.0906
X5.2559Y-3.1181
X5.2559Y-5.8169
X5.2559Y-5.8366
X5.2559Y-5.9154
X5.2559Y-6.25
X5.2559Y-6.6732
X5.2717Y-1.7402
X5.2752Y-1.7991
X5.2756Y-1.6339
X5.2756Y-3.1063
X5.2756Y-5.8169
X5.2756Y-5.8366
X5.2756Y-5.9154
X5.2756Y-6.6732
X5.2776Y-3.2736
X5.2854Y-6.25
X5.2874Y-4.752
X5.2894Y-3.2579
X5.2944Y-6.4956
X5.295Y-6.5747
X5.2953Y-6.3583
X5.2953Y-6.378
X5.2953Y-6.3976
X5.2953Y-6.4173
X5.2953Y-6.437
X5.2953Y-6.4567
X5.2953Y-6.4764
X5.2953Y-6.5157
X5.2953Y-6.5354
X5.2953Y-6.5551
X5.2953Y-6.5945
X5.2953Y-6.6142
X5.2953Y-6.6339
X5.2953Y-6.6535
X5.2953Y-6.6732
X5.2992Y-2.7795
X5.2992Y-2.8031
X5.2992Y-2.8268
X5.2992Y-3.1063
X5.315Y-6.25
X5.315Y-6.3583
X5.3228Y-2.7795
X5.3228Y-2.8031
X5.3228Y-2.8268
X5.3228Y-2.8504
X5.3307Y-4.7087
X5.3327Y-5.3445
X5.3327Y-5.3681
X5.3346Y-3.0059
X5.3346Y-4.5984
X5.3346Y-5.2362
X5.3346Y-6.3583
X5.3366Y-2.5984
X5.3366Y-3.0984
X5.3386Y-4.6339
X5.3386Y-6.1457
X5.3406Y-6.1811
X5.3425Y-4.6614
X5.3425Y-4.685
X5.3445Y-6.25
X5.3445Y-6.3976
X5.3445Y-6.4173
X5.3445Y-6.437
X5.3445Y-6.4567
X5.3465Y-2.8031
X5.3465Y-2.8268
X5.3465Y-2.8504
X5.3465Y-2.874
X5.3504Y-3.0281
X5.3543Y-2.6181
X5.3543Y-6.3583
X5.3622Y-4.813
X5.3642Y-6.3976
X5.3642Y-6.4173
X5.3642Y-6.437
X5.3642Y-6.4567
X5.3701Y-2.8268
X5.3701Y-2.8504
X5.3701Y-2.874
X5.374Y-2.5984
X5.374Y-6.25
X5.374Y-6.3583
X5.378Y-5.4134
X5.378Y-5.4409
X5.378Y-5.4685
X5.3858Y-1.8189
X5.4016Y-2.3878
X5.4091Y-5.6728
X5.4095Y-5.6924
X5.4095Y-5.7121
X5.4134Y-6.374
X5.4173Y-2.7953
X5.4197Y-6.1559
X5.4311Y-5.6728
X5.4311Y-5.6924
X5.4311Y-5.7121
X5.4331Y-2.3878
X5.4331Y-5.0856
X5.4331Y-6.25
X5.4488Y-3.1614
X5.4528Y-2.1949
X5.4528Y-6.2303
X5.4528Y-6.3583
X5.4606Y-5.3543
X5.4606Y-5.3819
X5.4606Y-5.4094
X5.4626Y-6.3976
X5.4626Y-6.4173
X5.4626Y-6.437
X5.4626Y-6.4567
X5.4711Y-4.0198
X5.4715Y-4.0394
X5.4723Y-6.3581
X5.4823Y-6.3976
X5.4823Y-6.4173
X5.4823Y-6.437
X5.4823Y-6.4567
X5.485Y-6.1862
X5.4869Y-5.5425
X5.4873Y-5.5622
X5.4873Y-5.5819
X5.4921Y-6.3583
X5.4931Y-3.9969
X5.4931Y-4.0198
X5.4931Y-4.0394
X5.4961Y-2.2736
X5.509Y-5.5425
X5.509Y-5.5622
X5.509Y-5.5819
X5.5118Y-6.3583
X5.5165Y-3.9661
X5.5197Y-4.0965
X5.5266Y-2.2037
X5.5276Y-2.2736
X5.5305Y-5.1919
X5.531Y-6.5943
X5.5315Y-6.3583
X5.5315Y-6.378
X5.5315Y-6.3976
X5.5315Y-6.4173
X5.5315Y-6.437
X5.5315Y-6.4567
X5.5315Y-6.4764
X5.5315Y-6.4961
X5.5315Y-6.5157
X5.5315Y-6.5354
X5.5315Y-6.5551
X5.5315Y-6.5748
X5.5315Y-6.6142
X5.5315Y-6.6339
X5.5315Y-6.6535
X5.5315Y-6.6732
X5.5364Y-5.0364
X5.5446Y-4.1296
X5.545Y-4.1493
X5.545Y-4.169
X5.5492Y-3.0531
X5.551Y-6.496
X5.5512Y-6.3583
X5.5512Y-6.378
X5.5512Y-6.3976
X5.5512Y-6.4173
X5.5512Y-6.437
X5.5512Y-6.4567
X5.5512Y-6.4764
X5.5512Y-6.5157
X5.5512Y-6.5354
X5.5512Y-6.5551
X5.5512Y-6.5748
X5.5512Y-6.5945
X5.5512Y-6.6142
X5.5512Y-6.6339
X5.5512Y-6.6535
X5.5512Y-6.6732
X5.5551Y-2.1969
X5.5551Y-5.1919
X5.562Y-5.1368
X5.5667Y-4.1296
X5.5667Y-4.1493
X5.5667Y-4.169
X5.5689Y-3.7894
X5.5689Y-3.811
X5.5689Y-3.8839
X5.5709Y-3.8624
X5.5709Y-5.2953
X5.5709Y-6.3583
X5.5748Y-5.3346
X5.5827Y-5.4606
X5.5827Y-5.4882
X5.5827Y-5.5157
X5.5837Y-5.1368
X5.5856Y-5.0945
X5.5886Y-3.7303
X5.5906Y-6.3583
X5.5984Y-1.8071
X5.5984Y-5.2953
X5.6004Y-6.3976
X5.6004Y-6.4173
X5.6004Y-6.437
X5.6004Y-6.4567
X5.6024Y-5.3346
X5.6063Y-3.2343
X5.6102Y-3.7382
X5.6102Y-6.3583
X5.6126Y-5.963
X5.614Y-3.945
X5.614Y-3.9675
X5.6144Y-3.9872
X5.6152Y-5.0945
X5.6181Y-3.3701
X5.6187Y-5.7155
X5.6187Y-5.738
X5.6191Y-5.7576
X5.6201Y-5.9281
X5.6201Y-6.3976
X5.6201Y-6.4173
X5.6201Y-6.437
X5.6201Y-6.4567
X5.622Y-2.2736
X5.6228Y-3.4012
X5.626Y-3.7913
X5.626Y-5.2953
X5.6299Y-3.811
X5.6299Y-5.3346
X5.6299Y-6.3583
X5.6309Y-3.9172
X5.6325Y-3.4228
X5.6348Y-2.1673
X5.6348Y-3.2343
X5.6358Y-2.2224
X5.636Y-3.9446
X5.636Y-3.9675
X5.636Y-3.9872
X5.6398Y-5.6319
X5.6408Y-5.7151
X5.6408Y-5.738
X5.6408Y-5.7576
X5.6415Y-4.0808
X5.6419Y-4.1005
X5.6419Y-4.1202
X5.6431Y-3.3675
X5.6496Y-5.1417
X5.6496Y-5.689
X5.6531Y-2.2567
X5.6535Y-2.1831
X5.6604Y-3.2933
X5.6635Y-4.0808
X5.6635Y-4.1005
X5.6635Y-4.1202
X5.6742Y-3.2746
X5.6744Y-2.2764
X5.6752Y-2.3996
X5.6831Y-5.9114
X5.7047Y-5.1575
X5.7087Y-5.8346
X5.7087Y-6.3583
X5.7102Y-5.6608
X5.7106Y-5.6805
X5.7106Y-5.7002
X5.7106Y-2.3287
X5.7106Y-3.3661
X5.7106Y-3.3868
X5.7178Y-4.1528
X5.7178Y-4.1753
X5.7182Y-4.195
X5.7224Y-3.6161
X5.7264Y-3.5945
X5.7283Y-6.3583
X5.7283Y-6.3976
X5.7283Y-6.4173
X5.7283Y-6.437
X5.7283Y-6.4567
X5.7288Y-3.7795
X5.7322Y-5.6608
X5.7322Y-5.6805
X5.7322Y-5.7002
X5.7323Y-5.2992
X5.7323Y-5.3268
X5.7323Y-5.3543
X5.7323Y-5.3898
X5.7323Y-5.4173
X5.7323Y-5.4449
X5.7323Y-5.4764
X5.7323Y-5.5039
X5.7323Y-5.5315
X5.7324Y-3.439
X5.739Y-3.8001
X5.7398Y-4.1524
X5.7398Y-4.1753
X5.7398Y-4.195
X5.7461Y-3.4547
X5.7478Y-3.9105
X5.748Y-3.9449
X5.748Y-3.9843
X5.748Y-6.3583
X5.748Y-6.3976
X5.748Y-6.4173
X5.748Y-6.437
X5.748Y-6.4567
X5.75Y-3.4888
X5.7549Y-5.1841
X5.7559Y-5.1407
X5.7677Y-6.3583
X5.7682Y-3.7303
X5.7682Y-3.75
X5.7686Y-3.4734
X5.7726Y-4.0049
X5.7736Y-3.4331
X5.7736Y-5.2156
X5.7741Y-3.6522
X5.7746Y-3.4006
X5.7746Y-5.2382
X5.7747Y-3.6733
X5.7776Y-3.3642
X5.787Y-6.4177
X5.7874Y-6.3583
X5.7874Y-6.378
X5.7874Y-6.3976
X5.7874Y-6.437
X5.7874Y-6.4567
X5.7874Y-6.4764
X5.7874Y-6.4961
X5.7874Y-6.5157
X5.7874Y-6.5354
X5.7874Y-6.5551
X5.7874Y-6.5748
X5.7874Y-6.5945
X5.7874Y-6.6142
X5.7874Y-6.6339
X5.7874Y-6.6535
X5.7874Y-6.6732
X5.7921Y-5.9322
X5.7925Y-5.9543
X5.7992Y-5.9114
X5.8031Y-4.1339
X5.8071Y-4.0276
X5.8071Y-4.0551
X5.8071Y-4.185
X5.8071Y-6.6732
X5.8149Y-5.9322
X5.8149Y-5.9543
X5.8268Y-6.6732
X5.8297Y-3.3159
X5.8297Y-3.9065
X5.8307Y-3.8858
X5.8313Y-3.6406
X5.8315Y-3.8098
X5.8317Y-3.2746
X5.8317Y-3.3848
X5.8318Y-3.6209
X5.8319Y-3.8308
X5.8324Y-5.6998
X5.8327Y-3.4144
X5.8327Y-3.4478
X5.8327Y-3.7776
X5.8327Y-5.2037
X5.8328Y-5.7195
X5.8328Y-5.7392
X5.8339Y-3.6816
X5.8339Y-3.7013
X5.8346Y-5.9322
X5.8346Y-5.9539
X5.8346Y-3.5098
X5.8346Y-3.5295
X5.8346Y-3.7283
X5.8346Y-3.7559
X5.8366Y-3.2333
X5.8379Y-3.935
X5.8379Y-3.9547
X5.8379Y-3.9744
X5.8406Y-5.1555
X5.8406Y-5.628
X5.8413Y-3.4906
X5.8445Y-5.1752
X5.8465Y-6.6731
X5.8488Y-4.1098
X5.8488Y-4.1322
X5.8492Y-4.1519
X5.8516Y-3.544
X5.852Y-3.5655
X5.8533Y-3.8711
X5.8545Y-5.6998
X5.8545Y-5.7195
X5.8545Y-5.7392
X5.8563Y-3.4626
X5.8576Y-3.935
X5.8576Y-3.9547
X5.8576Y-3.9744
X5.8661Y-6.6732
X5.8709Y-4.1094
X5.8709Y-4.1322
X5.8709Y-4.1519
X5.8858Y-6.6732
X5.9055Y-6.6732
X5.9252Y-6.6732
X5.9449Y-1.2087
X5.9449Y-1.2382
X5.9449Y-1.2677
X5.9449Y-1.2972
X5.9449Y-1.3268
X5.9449Y-1.3563
X5.9449Y-1.3858
X5.9449Y-1.4154
X5.9449Y-1.4449
X5.9449Y-1.4744
X5.9449Y-1.5039
X5.9449Y-1.5335
X5.9449Y-1.563
X5.9449Y-1.5925
X5.9449Y-1.622
X5.9449Y-1.6516
X5.9449Y-1.6811
X5.9449Y-1.7106
X5.9449Y-1.7402
X5.9449Y-1.7697
X5.9449Y-1.7992
X5.9449Y-1.8287
X5.9449Y-1.8583
X5.9449Y-1.8878
X5.9449Y-1.9173
X5.9449Y-1.9469
X5.9449Y-1.9764
X5.9449Y-2.0059
X5.9449Y-2.0354
X5.9449Y-2.065
X5.9449Y-2.0945
X5.9449Y-2.126
X5.9449Y-2.1594
X5.9449Y-2.189
X5.9449Y-2.2185
X5.9449Y-2.248
X5.9449Y-2.2776
X5.9449Y-2.3071
X5.9449Y-2.3366
X5.9449Y-2.3661
X5.9449Y-2.3957
X5.9449Y-2.4252
X5.9449Y-2.4547
X5.9449Y-2.4843
X5.9449Y-2.5138
X5.9449Y-2.5433
X5.9449Y-2.5728
X5.9449Y-2.6024
X5.9449Y-2.6319
X5.9449Y-2.6614
X5.9449Y-2.6909
X5.9449Y-2.7205
X5.9449Y-2.75
X5.9449Y-2.7795
X5.9449Y-2.8091
X5.9449Y-2.8455
X5.9449Y-2.876
X5.9449Y-2.9055
X5.9449Y-2.935
X5.9449Y-2.9646
X5.9449Y-2.9941
X5.9449Y-3.0236
X5.9449Y-3.0531
X5.9449Y-3.0827
X5.9449Y-3.1122
X5.9449Y-3.1417
X5.9449Y-3.1713
X5.9449Y-3.2008
X5.9449Y-3.2303
X5.9449Y-3.2598
X5.9449Y-3.2894
X5.9449Y-3.3189
X5.9449Y-3.3484
X5.9449Y-3.378
X5.9449Y-3.4075
X5.9449Y-3.437
X5.9449Y-3.4665
X5.9449Y-3.4961
X5.9449Y-3.5256
X5.9449Y-3.5551
X5.9449Y-3.5846
X5.9449Y-3.6142
X5.9449Y-3.6437
X5.9449Y-3.6732
X5.9449Y-3.7028
X5.9449Y-3.7323
X5.9449Y-3.7618
X5.9449Y-3.7913
X5.9449Y-3.8209
X5.9449Y-3.8504
X5.9449Y-3.8799
X5.9449Y-3.9094
X5.9449Y-3.939
X5.9449Y-3.9685
X5.9449Y-3.998
X5.9449Y-4.0276
X5.9449Y-4.0571
X5.9449Y-4.0866
X5.9449Y-4.1161
X5.9449Y-4.1457
X5.9449Y-4.1752
X5.9449Y-4.2047
X5.9449Y-4.2343
X5.9449Y-4.2638
X5.9449Y-4.2953
X5.9449Y-4.3287
X5.9449Y-4.3583
X5.9449Y-4.3878
X5.9449Y-4.4173
X5.9449Y-4.4469
X5.9449Y-4.4764
X5.9449Y-4.5059
X5.9449Y-4.5354
X5.9449Y-4.565
X5.9449Y-4.5945
X5.9449Y-4.624
X5.9449Y-4.6535
X5.9449Y-4.6831
X5.9449Y-4.7126
X5.9449Y-4.7421
X5.9449Y-4.7717
X5.9449Y-4.8012
X5.9449Y-4.8307
X5.9449Y-4.8602
X5.9449Y-4.8898
X5.9449Y-4.9193
X5.9449Y-4.9488
X5.9449Y-4.9783
X5.9449Y-5.0148
X5.9449Y-5.0453
X5.9449Y-5.0748
X5.9449Y-5.1043
X5.9449Y-5.1339
X5.9449Y-5.1634
X5.9449Y-5.1929
X5.9449Y-5.2224
X5.9449Y-5.252
X5.9449Y-5.2815
X5.9449Y-5.311
X5.9449Y-5.3406
X5.9449Y-5.3701
X5.9449Y-5.3996
X5.9449Y-5.4291
X5.9449Y-5.4587
X5.9449Y-5.4882
X5.9449Y-5.5177
X5.9449Y-5.5472
X5.9449Y-5.5768
X5.9449Y-5.6063
X5.9449Y-5.6358
X5.9449Y-5.6654
X5.9449Y-5.6949
X5.9449Y-5.7244
X5.9449Y-5.7559
X5.9449Y-5.7874
X5.9449Y-5.8169
X5.9449Y-5.8465
X5.9449Y-5.876
X5.9449Y-5.9055
X5.9449Y-5.935
X5.9449Y-5.9646
X5.9449Y-5.9941
X5.9449Y-6.0236
X5.9449Y-6.0531
X5.9449Y-6.0827
X5.9449Y-6.1122
X5.9449Y-6.1417
X5.9449Y-6.1713
X5.9449Y-6.2008
X5.9449Y-6.2303
X5.9449Y-6.2598
X5.9449Y-6.2894
X5.9449Y-6.3189
X5.9449Y-6.3484
X5.9449Y-6.378
X5.9449Y-6.4075
X5.9449Y-6.437
X5.9449Y-6.4665
X5.9449Y-6.5059
X5.9449Y-6.5354
X5.9449Y-6.565
X5.9449Y-6.5945
X5.9449Y-6.624
X5.9449Y-6.6535
X5.9449Y-6.6732
T2
X5.4626Y-2.3976
X5.5354Y-2.5945
X5.5787Y-2.5945
T5
X5.8317Y-2.4567
T6
X3.102Y-1.7024
X3.1921Y-1.7024
X3.2319Y-1.4425
X3.2719Y-1.5126
X3.3119Y-1.4425
X3.3519Y-1.5126
X3.3919Y-1.4425
X3.4319Y-1.5126
X3.4719Y-1.4425
X3.5119Y-1.5126
X3.552Y-1.7024
X3.6421Y-1.7024
T7
X5.2707Y-2.1732
X5.2707Y-2.3583
X5.2707Y-2.5551
X5.3622Y-2.7362
X5.5512Y-2.7362
X5.7402Y-2.7362
X5.8317Y-2.1732
X5.8317Y-2.3583
X5.8317Y-2.5551
T8
X5.2707Y-1.4724
X5.2707Y-1.8661
X5.2707Y-2.2598
X5.2707Y-2.6535
X5.3957Y-2.063
X5.4941Y-1.2756
X5.6083Y-2.063
X5.8317Y-1.2756
X5.8317Y-1.6693
X5.8317Y-2.063
T9
X3.052Y-1.4776
X3.6921Y-1.4776
T10
X2.5591Y-2.9528
X2.5591Y-4.3701
X2.5591Y-4.7244
X2.5591Y-6.1417
X5.748Y-2.9528
X5.748Y-4.3701
X5.748Y-4.7244
X5.748Y-6.1417
T3
G00X4.7228Y-1.3012
M15
G01X4.7228Y-1.2421
M16
G05
G00X4.7228Y-1.5024
M15
G01X4.7228Y-1.463
M16
G05
G00X5.063Y-1.3012
M15
G01X5.063Y-1.2421
M16
G05
G00X5.063Y-1.5024
M15
G01X5.063Y-1.463
M16
G05
T4
G00X2.5551Y-1.2805
M15
G01X2.5551Y-1.2392
M16
G05
G00X2.5551Y-1.4128
M15
G01X2.5551Y-1.3715
M16
G05
G00X2.7992Y-1.2805
M15
G01X2.7992Y-1.2392
M16
G05
G00X2.7992Y-1.4128
M15
G01X2.7992Y-1.3715
M16
G05
M30
