%TF.GenerationSoftware,KiCad,Pcbnew,9.0.6-9.0.6~ubuntu22.04.1*%
%TF.CreationDate,2025-11-19T14:02:57+01:00*%
%TF.ProjectId,TRX055.01.01.PB.00.00,54525830-3535-42e3-9031-2e30312e5042,rev?*%
%TF.SameCoordinates,Original*%
%TF.FileFunction,Legend,Bot*%
%TF.FilePolarity,Positive*%
%FSLAX46Y46*%
G04 Gerber Fmt 4.6, Leading zero omitted, Abs format (unit mm)*
G04 Created by KiCad (PCBNEW 9.0.6-9.0.6~ubuntu22.04.1) date 2025-11-19 14:02:57*
%MOMM*%
%LPD*%
G01*
G04 APERTURE LIST*
G04 Aperture macros list*
%AMRoundRect*
0 Rectangle with rounded corners*
0 $1 Rounding radius*
0 $2 $3 $4 $5 $6 $7 $8 $9 X,Y pos of 4 corners*
0 Add a 4 corners polygon primitive as box body*
4,1,4,$2,$3,$4,$5,$6,$7,$8,$9,$2,$3,0*
0 Add four circle primitives for the rounded corners*
1,1,$1+$1,$2,$3*
1,1,$1+$1,$4,$5*
1,1,$1+$1,$6,$7*
1,1,$1+$1,$8,$9*
0 Add four rect primitives between the rounded corners*
20,1,$1+$1,$2,$3,$4,$5,0*
20,1,$1+$1,$4,$5,$6,$7,0*
20,1,$1+$1,$6,$7,$8,$9,0*
20,1,$1+$1,$8,$9,$2,$3,0*%
%AMFreePoly0*
4,1,7,0.300000,-0.300000,0.050000,-0.300000,0.050000,0.000000,-0.300000,0.000000,-0.300000,0.300000,0.300000,0.300000,0.300000,-0.300000,0.300000,-0.300000,$1*%
%AMFreePoly1*
4,1,7,0.300000,-0.300000,-0.300000,-0.300000,-0.300000,0.000000,0.050000,0.000000,0.050000,0.300000,0.300000,0.300000,0.300000,-0.300000,0.300000,-0.300000,$1*%
%AMFreePoly2*
4,1,7,-0.050000,0.000000,0.300000,0.000000,0.300000,-0.300000,-0.300000,-0.300000,-0.300000,0.300000,-0.050000,0.300000,-0.050000,0.000000,-0.050000,0.000000,$1*%
%AMFreePoly3*
4,1,7,0.300000,0.000000,-0.050000,0.000000,-0.050000,-0.300000,-0.300000,-0.300000,-0.300000,0.300000,0.300000,0.300000,0.300000,0.000000,0.300000,0.000000,$1*%
G04 Aperture macros list end*
%ADD10C,0.150000*%
%ADD11C,0.120000*%
%ADD12C,0.152500*%
%ADD13C,0.152000*%
%ADD14C,0.400000*%
%ADD15C,0.254000*%
%ADD16C,0.127000*%
%ADD17C,0.200000*%
%ADD18C,0.160000*%
%ADD19C,2.000000*%
%ADD20C,0.100000*%
%ADD21RoundRect,0.135000X-0.135000X-0.185000X0.135000X-0.185000X0.135000X0.185000X-0.135000X0.185000X0*%
%ADD22RoundRect,0.135000X0.185000X-0.135000X0.185000X0.135000X-0.185000X0.135000X-0.185000X-0.135000X0*%
%ADD23RoundRect,0.135000X0.135000X0.185000X-0.135000X0.185000X-0.135000X-0.185000X0.135000X-0.185000X0*%
%ADD24RoundRect,0.250000X0.325000X0.650000X-0.325000X0.650000X-0.325000X-0.650000X0.325000X-0.650000X0*%
%ADD25RoundRect,0.225000X0.225000X0.250000X-0.225000X0.250000X-0.225000X-0.250000X0.225000X-0.250000X0*%
%ADD26RoundRect,0.225000X-0.225000X-0.250000X0.225000X-0.250000X0.225000X0.250000X-0.225000X0.250000X0*%
%ADD27RoundRect,0.225000X-0.250000X0.225000X-0.250000X-0.225000X0.250000X-0.225000X0.250000X0.225000X0*%
%ADD28C,2.000000*%
%ADD29R,2.000000X2.000000*%
%ADD30C,1.500000*%
%ADD31C,6.300000*%
%ADD32O,1.188400X2.252400*%
%ADD33O,1.252400X2.752400*%
%ADD34R,3.000000X4.500000*%
%ADD35O,1.500000X2.550000*%
%ADD36C,3.250000*%
%ADD37R,1.500000X1.500000*%
%ADD38C,2.300000*%
%ADD39RoundRect,0.225000X0.250000X-0.225000X0.250000X0.225000X-0.250000X0.225000X-0.250000X-0.225000X0*%
%ADD40RoundRect,0.218750X0.218750X0.256250X-0.218750X0.256250X-0.218750X-0.256250X0.218750X-0.256250X0*%
%ADD41RoundRect,0.100000X-0.100000X0.130000X-0.100000X-0.130000X0.100000X-0.130000X0.100000X0.130000X0*%
%ADD42RoundRect,0.100000X0.130000X0.100000X-0.130000X0.100000X-0.130000X-0.100000X0.130000X-0.100000X0*%
%ADD43RoundRect,0.140000X-0.170000X0.140000X-0.170000X-0.140000X0.170000X-0.140000X0.170000X0.140000X0*%
%ADD44R,0.364000X0.665000*%
%ADD45R,3.400000X2.500000*%
%ADD46RoundRect,0.100000X0.100000X-0.130000X0.100000X0.130000X-0.100000X0.130000X-0.100000X-0.130000X0*%
%ADD47RoundRect,0.160000X0.160000X-0.222500X0.160000X0.222500X-0.160000X0.222500X-0.160000X-0.222500X0*%
%ADD48RoundRect,0.100000X-0.130000X-0.100000X0.130000X-0.100000X0.130000X0.100000X-0.130000X0.100000X0*%
%ADD49FreePoly0,270.000000*%
%ADD50R,0.250000X0.600000*%
%ADD51FreePoly1,270.000000*%
%ADD52R,2.400000X0.300000*%
%ADD53FreePoly2,270.000000*%
%ADD54FreePoly3,270.000000*%
%ADD55RoundRect,0.150000X0.150000X-0.587500X0.150000X0.587500X-0.150000X0.587500X-0.150000X-0.587500X0*%
%ADD56RoundRect,0.250000X0.300000X-0.300000X0.300000X0.300000X-0.300000X0.300000X-0.300000X-0.300000X0*%
%ADD57RoundRect,0.135000X-0.185000X0.135000X-0.185000X-0.135000X0.185000X-0.135000X0.185000X0.135000X0*%
%ADD58RoundRect,0.100000X-0.018372X-0.162980X0.162240X0.024048X0.018372X0.162980X-0.162240X-0.024048X0*%
%ADD59RoundRect,0.160000X0.222500X0.160000X-0.222500X0.160000X-0.222500X-0.160000X0.222500X-0.160000X0*%
%ADD60RoundRect,0.100000X-0.162635X0.021213X0.021213X-0.162635X0.162635X-0.021213X-0.021213X0.162635X0*%
%ADD61RoundRect,0.062500X-0.062500X-0.350000X0.062500X-0.350000X0.062500X0.350000X-0.062500X0.350000X0*%
%ADD62RoundRect,0.062500X-0.350000X-0.062500X0.350000X-0.062500X0.350000X0.062500X-0.350000X0.062500X0*%
%ADD63R,1.000000X1.500000*%
%ADD64RoundRect,0.160000X0.270468X-0.044194X-0.044194X0.270468X-0.270468X0.044194X0.044194X-0.270468X0*%
%ADD65RoundRect,0.218750X-0.256250X0.218750X-0.256250X-0.218750X0.256250X-0.218750X0.256250X0.218750X0*%
%ADD66RoundRect,0.140000X0.140000X0.170000X-0.140000X0.170000X-0.140000X-0.170000X0.140000X-0.170000X0*%
%ADD67RoundRect,0.140000X0.170000X-0.140000X0.170000X0.140000X-0.170000X0.140000X-0.170000X-0.140000X0*%
%ADD68RoundRect,0.100000X0.021213X0.162635X-0.162635X-0.021213X-0.021213X-0.162635X0.162635X0.021213X0*%
%ADD69R,3.700000X1.100000*%
%ADD70RoundRect,0.056750X0.320250X0.170250X-0.320250X0.170250X-0.320250X-0.170250X0.320250X-0.170250X0*%
%ADD71RoundRect,0.050500X0.326500X0.151500X-0.326500X0.151500X-0.326500X-0.151500X0.326500X-0.151500X0*%
%ADD72RoundRect,0.063000X0.189000X0.339000X-0.189000X0.339000X-0.189000X-0.339000X0.189000X-0.339000X0*%
%ADD73R,0.200000X0.595000*%
%ADD74R,0.595000X0.200000*%
%ADD75R,1.750000X0.950000*%
%ADD76RoundRect,0.056750X-0.170250X0.320250X-0.170250X-0.320250X0.170250X-0.320250X0.170250X0.320250X0*%
%ADD77RoundRect,0.050500X-0.151500X0.326500X-0.151500X-0.326500X0.151500X-0.326500X0.151500X0.326500X0*%
%ADD78RoundRect,0.063000X-0.339000X0.189000X-0.339000X-0.189000X0.339000X-0.189000X0.339000X0.189000X0*%
%ADD79RoundRect,0.218750X-0.218750X-0.256250X0.218750X-0.256250X0.218750X0.256250X-0.218750X0.256250X0*%
%ADD80RoundRect,0.218750X0.256250X-0.218750X0.256250X0.218750X-0.256250X0.218750X-0.256250X-0.218750X0*%
%ADD81RoundRect,0.140000X-0.140000X-0.170000X0.140000X-0.170000X0.140000X0.170000X-0.140000X0.170000X0*%
%ADD82RoundRect,0.160000X-0.222500X-0.160000X0.222500X-0.160000X0.222500X0.160000X-0.222500X0.160000X0*%
%ADD83RoundRect,0.100000X0.162635X-0.021213X-0.021213X0.162635X-0.162635X0.021213X0.021213X-0.162635X0*%
%ADD84RoundRect,0.100000X-0.021213X-0.162635X0.162635X0.021213X0.021213X0.162635X-0.162635X-0.021213X0*%
%ADD85R,0.200000X0.765000*%
%ADD86R,0.200000X0.665000*%
%ADD87R,0.665000X0.200000*%
%ADD88R,1.500000X0.800000*%
%ADD89RoundRect,0.362500X0.637500X-0.362500X0.637500X0.362500X-0.637500X0.362500X-0.637500X-0.362500X0*%
%ADD90RoundRect,0.250000X0.300000X0.300000X-0.300000X0.300000X-0.300000X-0.300000X0.300000X-0.300000X0*%
%ADD91RoundRect,0.062500X0.062500X0.350000X-0.062500X0.350000X-0.062500X-0.350000X0.062500X-0.350000X0*%
%ADD92RoundRect,0.062500X0.350000X0.062500X-0.350000X0.062500X-0.350000X-0.062500X0.350000X-0.062500X0*%
G04 APERTURE END LIST*
D10*
X94579686Y-90545179D02*
X95151114Y-90545179D01*
X94865400Y-90545179D02*
X94865400Y-91545179D01*
X94865400Y-91545179D02*
X94960638Y-91402322D01*
X94960638Y-91402322D02*
X95055876Y-91307084D01*
X95055876Y-91307084D02*
X95151114Y-91259465D01*
X114559104Y-94228094D02*
X114559104Y-93751904D01*
X114844819Y-94323332D02*
X113844819Y-93989999D01*
X113844819Y-93989999D02*
X114844819Y-93656666D01*
X114321009Y-92989999D02*
X114368628Y-92847142D01*
X114368628Y-92847142D02*
X114416247Y-92799523D01*
X114416247Y-92799523D02*
X114511485Y-92751904D01*
X114511485Y-92751904D02*
X114654342Y-92751904D01*
X114654342Y-92751904D02*
X114749580Y-92799523D01*
X114749580Y-92799523D02*
X114797200Y-92847142D01*
X114797200Y-92847142D02*
X114844819Y-92942380D01*
X114844819Y-92942380D02*
X114844819Y-93323332D01*
X114844819Y-93323332D02*
X113844819Y-93323332D01*
X113844819Y-93323332D02*
X113844819Y-92989999D01*
X113844819Y-92989999D02*
X113892438Y-92894761D01*
X113892438Y-92894761D02*
X113940057Y-92847142D01*
X113940057Y-92847142D02*
X114035295Y-92799523D01*
X114035295Y-92799523D02*
X114130533Y-92799523D01*
X114130533Y-92799523D02*
X114225771Y-92847142D01*
X114225771Y-92847142D02*
X114273390Y-92894761D01*
X114273390Y-92894761D02*
X114321009Y-92989999D01*
X114321009Y-92989999D02*
X114321009Y-93323332D01*
X95111904Y-73899942D02*
X95064285Y-73947561D01*
X95064285Y-73947561D02*
X94969047Y-73995180D01*
X94969047Y-73995180D02*
X94730952Y-73995180D01*
X94730952Y-73995180D02*
X94635714Y-73947561D01*
X94635714Y-73947561D02*
X94588095Y-73899942D01*
X94588095Y-73899942D02*
X94540476Y-73804704D01*
X94540476Y-73804704D02*
X94540476Y-73709466D01*
X94540476Y-73709466D02*
X94588095Y-73566609D01*
X94588095Y-73566609D02*
X95159523Y-72995180D01*
X95159523Y-72995180D02*
X94540476Y-72995180D01*
X94159523Y-73899942D02*
X94111904Y-73947561D01*
X94111904Y-73947561D02*
X94016666Y-73995180D01*
X94016666Y-73995180D02*
X93778571Y-73995180D01*
X93778571Y-73995180D02*
X93683333Y-73947561D01*
X93683333Y-73947561D02*
X93635714Y-73899942D01*
X93635714Y-73899942D02*
X93588095Y-73804704D01*
X93588095Y-73804704D02*
X93588095Y-73709466D01*
X93588095Y-73709466D02*
X93635714Y-73566609D01*
X93635714Y-73566609D02*
X94207142Y-72995180D01*
X94207142Y-72995180D02*
X93588095Y-72995180D01*
X96769104Y-92972694D02*
X96769104Y-92496504D01*
X97054819Y-93067932D02*
X96054819Y-92734599D01*
X96054819Y-92734599D02*
X97054819Y-92401266D01*
X130246904Y-31026819D02*
X130246904Y-31836342D01*
X130246904Y-31836342D02*
X130199285Y-31931580D01*
X130199285Y-31931580D02*
X130151666Y-31979200D01*
X130151666Y-31979200D02*
X130056428Y-32026819D01*
X130056428Y-32026819D02*
X129865952Y-32026819D01*
X129865952Y-32026819D02*
X129770714Y-31979200D01*
X129770714Y-31979200D02*
X129723095Y-31931580D01*
X129723095Y-31931580D02*
X129675476Y-31836342D01*
X129675476Y-31836342D02*
X129675476Y-31026819D01*
X129151666Y-32026819D02*
X128961190Y-32026819D01*
X128961190Y-32026819D02*
X128865952Y-31979200D01*
X128865952Y-31979200D02*
X128818333Y-31931580D01*
X128818333Y-31931580D02*
X128723095Y-31788723D01*
X128723095Y-31788723D02*
X128675476Y-31598247D01*
X128675476Y-31598247D02*
X128675476Y-31217295D01*
X128675476Y-31217295D02*
X128723095Y-31122057D01*
X128723095Y-31122057D02*
X128770714Y-31074438D01*
X128770714Y-31074438D02*
X128865952Y-31026819D01*
X128865952Y-31026819D02*
X129056428Y-31026819D01*
X129056428Y-31026819D02*
X129151666Y-31074438D01*
X129151666Y-31074438D02*
X129199285Y-31122057D01*
X129199285Y-31122057D02*
X129246904Y-31217295D01*
X129246904Y-31217295D02*
X129246904Y-31455390D01*
X129246904Y-31455390D02*
X129199285Y-31550628D01*
X129199285Y-31550628D02*
X129151666Y-31598247D01*
X129151666Y-31598247D02*
X129056428Y-31645866D01*
X129056428Y-31645866D02*
X128865952Y-31645866D01*
X128865952Y-31645866D02*
X128770714Y-31598247D01*
X128770714Y-31598247D02*
X128723095Y-31550628D01*
X128723095Y-31550628D02*
X128675476Y-31455390D01*
X123134047Y-133709580D02*
X123181666Y-133757200D01*
X123181666Y-133757200D02*
X123324523Y-133804819D01*
X123324523Y-133804819D02*
X123419761Y-133804819D01*
X123419761Y-133804819D02*
X123562618Y-133757200D01*
X123562618Y-133757200D02*
X123657856Y-133661961D01*
X123657856Y-133661961D02*
X123705475Y-133566723D01*
X123705475Y-133566723D02*
X123753094Y-133376247D01*
X123753094Y-133376247D02*
X123753094Y-133233390D01*
X123753094Y-133233390D02*
X123705475Y-133042914D01*
X123705475Y-133042914D02*
X123657856Y-132947676D01*
X123657856Y-132947676D02*
X123562618Y-132852438D01*
X123562618Y-132852438D02*
X123419761Y-132804819D01*
X123419761Y-132804819D02*
X123324523Y-132804819D01*
X123324523Y-132804819D02*
X123181666Y-132852438D01*
X123181666Y-132852438D02*
X123134047Y-132900057D01*
X122800713Y-132804819D02*
X122181666Y-132804819D01*
X122181666Y-132804819D02*
X122514999Y-133185771D01*
X122514999Y-133185771D02*
X122372142Y-133185771D01*
X122372142Y-133185771D02*
X122276904Y-133233390D01*
X122276904Y-133233390D02*
X122229285Y-133281009D01*
X122229285Y-133281009D02*
X122181666Y-133376247D01*
X122181666Y-133376247D02*
X122181666Y-133614342D01*
X122181666Y-133614342D02*
X122229285Y-133709580D01*
X122229285Y-133709580D02*
X122276904Y-133757200D01*
X122276904Y-133757200D02*
X122372142Y-133804819D01*
X122372142Y-133804819D02*
X122657856Y-133804819D01*
X122657856Y-133804819D02*
X122753094Y-133757200D01*
X122753094Y-133757200D02*
X122800713Y-133709580D01*
X121800713Y-132900057D02*
X121753094Y-132852438D01*
X121753094Y-132852438D02*
X121657856Y-132804819D01*
X121657856Y-132804819D02*
X121419761Y-132804819D01*
X121419761Y-132804819D02*
X121324523Y-132852438D01*
X121324523Y-132852438D02*
X121276904Y-132900057D01*
X121276904Y-132900057D02*
X121229285Y-132995295D01*
X121229285Y-132995295D02*
X121229285Y-133090533D01*
X121229285Y-133090533D02*
X121276904Y-133233390D01*
X121276904Y-133233390D02*
X121848332Y-133804819D01*
X121848332Y-133804819D02*
X121229285Y-133804819D01*
X120895951Y-132804819D02*
X120276904Y-132804819D01*
X120276904Y-132804819D02*
X120610237Y-133185771D01*
X120610237Y-133185771D02*
X120467380Y-133185771D01*
X120467380Y-133185771D02*
X120372142Y-133233390D01*
X120372142Y-133233390D02*
X120324523Y-133281009D01*
X120324523Y-133281009D02*
X120276904Y-133376247D01*
X120276904Y-133376247D02*
X120276904Y-133614342D01*
X120276904Y-133614342D02*
X120324523Y-133709580D01*
X120324523Y-133709580D02*
X120372142Y-133757200D01*
X120372142Y-133757200D02*
X120467380Y-133804819D01*
X120467380Y-133804819D02*
X120753094Y-133804819D01*
X120753094Y-133804819D02*
X120848332Y-133757200D01*
X120848332Y-133757200D02*
X120895951Y-133709580D01*
X87045180Y-82333333D02*
X86330895Y-82333333D01*
X86330895Y-82333333D02*
X86188038Y-82380952D01*
X86188038Y-82380952D02*
X86092800Y-82476190D01*
X86092800Y-82476190D02*
X86045180Y-82619047D01*
X86045180Y-82619047D02*
X86045180Y-82714285D01*
X87045180Y-81428571D02*
X87045180Y-81619047D01*
X87045180Y-81619047D02*
X86997561Y-81714285D01*
X86997561Y-81714285D02*
X86949942Y-81761904D01*
X86949942Y-81761904D02*
X86807085Y-81857142D01*
X86807085Y-81857142D02*
X86616609Y-81904761D01*
X86616609Y-81904761D02*
X86235657Y-81904761D01*
X86235657Y-81904761D02*
X86140419Y-81857142D01*
X86140419Y-81857142D02*
X86092800Y-81809523D01*
X86092800Y-81809523D02*
X86045180Y-81714285D01*
X86045180Y-81714285D02*
X86045180Y-81523809D01*
X86045180Y-81523809D02*
X86092800Y-81428571D01*
X86092800Y-81428571D02*
X86140419Y-81380952D01*
X86140419Y-81380952D02*
X86235657Y-81333333D01*
X86235657Y-81333333D02*
X86473752Y-81333333D01*
X86473752Y-81333333D02*
X86568990Y-81380952D01*
X86568990Y-81380952D02*
X86616609Y-81428571D01*
X86616609Y-81428571D02*
X86664228Y-81523809D01*
X86664228Y-81523809D02*
X86664228Y-81714285D01*
X86664228Y-81714285D02*
X86616609Y-81809523D01*
X86616609Y-81809523D02*
X86568990Y-81857142D01*
X86568990Y-81857142D02*
X86473752Y-81904761D01*
D11*
%TO.C,R166*%
X129816359Y-111590000D02*
X130123641Y-111590000D01*
X129816359Y-110830000D02*
X130123641Y-110830000D01*
%TO.C,R165*%
X129806359Y-112530000D02*
X130113641Y-112530000D01*
X129806359Y-111770000D02*
X130113641Y-111770000D01*
%TO.C,R164*%
X131706359Y-112540000D02*
X132013641Y-112540000D01*
X131706359Y-111780000D02*
X132013641Y-111780000D01*
%TO.C,R163*%
X122080000Y-110493641D02*
X122080000Y-110186359D01*
X121320000Y-110493641D02*
X121320000Y-110186359D01*
%TO.C,R162*%
X102013641Y-141980000D02*
X101706359Y-141980000D01*
X102013641Y-141220000D02*
X101706359Y-141220000D01*
%TO.C,C397*%
X73236252Y-121540000D02*
X71813748Y-121540000D01*
X73236252Y-123360000D02*
X71813748Y-123360000D01*
%TO.C,C396*%
X73236252Y-118190000D02*
X71813748Y-118190000D01*
X73236252Y-120010000D02*
X71813748Y-120010000D01*
%TO.C,C377*%
X129265580Y-47510000D02*
X128984420Y-47510000D01*
X129265580Y-46490000D02*
X128984420Y-46490000D01*
%TO.C,C376*%
X132359420Y-62890000D02*
X132640580Y-62890000D01*
X132359420Y-63910000D02*
X132640580Y-63910000D01*
%TO.C,C375*%
X132334420Y-60990000D02*
X132615580Y-60990000D01*
X132334420Y-62010000D02*
X132615580Y-62010000D01*
%TO.C,C374*%
X130659420Y-44890000D02*
X130940580Y-44890000D01*
X130659420Y-45910000D02*
X130940580Y-45910000D01*
%TO.C,C373*%
X117640580Y-39410000D02*
X117359420Y-39410000D01*
X117640580Y-38390000D02*
X117359420Y-38390000D01*
%TO.C,C372*%
X125910000Y-43559420D02*
X125910000Y-43840580D01*
X124890000Y-43559420D02*
X124890000Y-43840580D01*
%TO.C,C371*%
X124610000Y-43584420D02*
X124610000Y-43865580D01*
X123590000Y-43584420D02*
X123590000Y-43865580D01*
%TO.C,C370*%
X123110000Y-43534420D02*
X123110000Y-43815580D01*
X122090000Y-43534420D02*
X122090000Y-43815580D01*
%TO.C,C369*%
X121510000Y-43534420D02*
X121510000Y-43815580D01*
X120490000Y-43534420D02*
X120490000Y-43815580D01*
%TO.C,C325*%
X72310000Y-57775580D02*
X72310000Y-57494420D01*
X73330000Y-57775580D02*
X73330000Y-57494420D01*
%TO.C,FB18*%
X141062779Y-101490000D02*
X140737221Y-101490000D01*
X141062779Y-102510000D02*
X140737221Y-102510000D01*
%TO.C,R94*%
X85920000Y-140253641D02*
X85920000Y-139946359D01*
X86680000Y-140253641D02*
X86680000Y-139946359D01*
%TO.C,R129*%
X130793641Y-129270000D02*
X130486359Y-129270000D01*
X130793641Y-130030000D02*
X130486359Y-130030000D01*
%TO.C,R6*%
X101913641Y-143720000D02*
X101606359Y-143720000D01*
X101913641Y-144480000D02*
X101606359Y-144480000D01*
%TO.C,R127*%
X130793641Y-130170000D02*
X130486359Y-130170000D01*
X130793641Y-130930000D02*
X130486359Y-130930000D01*
%TO.C,C241*%
X73790000Y-142012164D02*
X73790000Y-142227836D01*
X74510000Y-142012164D02*
X74510000Y-142227836D01*
%TO.C,C212*%
X140290000Y-143322164D02*
X140290000Y-143537836D01*
X141010000Y-143322164D02*
X141010000Y-143537836D01*
D12*
%TO.C,U31*%
X76499000Y-60331500D02*
X76499000Y-63830000D01*
X76499000Y-64483500D02*
X76499000Y-60985000D01*
D13*
X76588000Y-60331500D02*
X76499000Y-60331500D01*
X76588000Y-64483500D02*
X76499000Y-64483500D01*
X80651000Y-60331500D02*
X80562000Y-60331500D01*
D12*
X80651000Y-60331500D02*
X80651000Y-63830000D01*
D13*
X80651000Y-64483500D02*
X80562000Y-64483500D01*
D12*
X80651000Y-64483500D02*
X80651000Y-60985000D01*
D14*
X80961000Y-64947500D02*
G75*
G02*
X80761000Y-64947500I-100000J0D01*
G01*
X80761000Y-64947500D02*
G75*
G02*
X80961000Y-64947500I100000J0D01*
G01*
D11*
%TO.C,R39*%
X102949000Y-43728641D02*
X102949000Y-43421359D01*
X103709000Y-43728641D02*
X103709000Y-43421359D01*
%TO.C,FB41*%
X115070000Y-104622700D02*
X115070000Y-104422300D01*
X115790000Y-104622700D02*
X115790000Y-104422300D01*
%TO.C,R109*%
X119253641Y-128820000D02*
X118946359Y-128820000D01*
X119253641Y-129580000D02*
X118946359Y-129580000D01*
%TO.C,R52*%
X106037000Y-80885641D02*
X106037000Y-80578359D01*
X106797000Y-80885641D02*
X106797000Y-80578359D01*
%TO.C,R35*%
X102005000Y-43720641D02*
X102005000Y-43413359D01*
X102765000Y-43720641D02*
X102765000Y-43413359D01*
D15*
%TO.C,U27*%
X129480000Y-39075000D02*
X129480000Y-39238000D01*
X129480000Y-41362000D02*
X129480000Y-41645000D01*
X129480000Y-41645000D02*
X129709500Y-41645000D01*
X129674500Y-39035000D02*
X129470000Y-39035000D01*
X131890500Y-41645000D02*
X132080000Y-41645000D01*
X132080000Y-39035000D02*
X131916500Y-39035000D01*
X132080000Y-39248500D02*
X132080000Y-39035000D01*
X132080000Y-41645000D02*
X132080000Y-41381500D01*
X129704500Y-38585000D02*
G75*
G02*
X129435500Y-38585000I-134500J0D01*
G01*
X129435500Y-38585000D02*
G75*
G02*
X129704500Y-38585000I134500J0D01*
G01*
D11*
%TO.C,U18*%
X120440000Y-134662500D02*
X120440000Y-134012500D01*
X120440000Y-134662500D02*
X120440000Y-135312500D01*
X123560000Y-134662500D02*
X123560000Y-134012500D01*
X123560000Y-134662500D02*
X123560000Y-136337500D01*
%TO.C,FB44*%
X124420000Y-104010200D02*
X124420000Y-103809800D01*
X125140000Y-104010200D02*
X125140000Y-103809800D01*
%TO.C,R37*%
X98090000Y-43710641D02*
X98090000Y-43403359D01*
X98850000Y-43710641D02*
X98850000Y-43403359D01*
%TO.C,R53*%
X103834000Y-79836641D02*
X103834000Y-79529359D01*
X104594000Y-79836641D02*
X104594000Y-79529359D01*
%TO.C,C146*%
X85490000Y-50165580D02*
X85490000Y-49884420D01*
X86510000Y-50165580D02*
X86510000Y-49884420D01*
%TO.C,D1*%
X133000000Y-43710000D02*
X133000000Y-39850000D01*
X135000000Y-43710000D02*
X133000000Y-43710000D01*
X135000000Y-43710000D02*
X135000000Y-39850000D01*
%TO.C,R86*%
X119320000Y-133633859D02*
X119320000Y-133941141D01*
X120080000Y-133633859D02*
X120080000Y-133941141D01*
%TO.C,R46*%
X103949000Y-43728641D02*
X103949000Y-43421359D01*
X104709000Y-43728641D02*
X104709000Y-43421359D01*
%TO.C,FB11*%
X106304700Y-81840000D02*
X106104300Y-81840000D01*
X106304700Y-82560000D02*
X106104300Y-82560000D01*
%TO.C,R156*%
X118976359Y-86300000D02*
X119283641Y-86300000D01*
X118976359Y-87060000D02*
X119283641Y-87060000D01*
%TO.C,C231*%
X136890000Y-58615580D02*
X136890000Y-58334420D01*
X137910000Y-58615580D02*
X137910000Y-58334420D01*
%TO.C,R33*%
X101005000Y-43720641D02*
X101005000Y-43413359D01*
X101765000Y-43720641D02*
X101765000Y-43413359D01*
%TO.C,U19*%
X144765000Y-81052500D02*
X144765000Y-81277500D01*
X145490000Y-81052500D02*
X144765000Y-81052500D01*
X145490000Y-84272500D02*
X144765000Y-84272500D01*
X146760000Y-81052500D02*
X147485000Y-81052500D01*
X146760000Y-84272500D02*
X147485000Y-84272500D01*
X147485000Y-81052500D02*
X147485000Y-81277500D01*
X147485000Y-84272500D02*
X147485000Y-84047500D01*
%TO.C,FB6*%
X101992294Y-83270411D02*
X101850589Y-83128706D01*
X102501411Y-82761294D02*
X102359706Y-82619589D01*
%TO.C,R115*%
X130813641Y-135570000D02*
X130506359Y-135570000D01*
X130813641Y-136330000D02*
X130506359Y-136330000D01*
%TO.C,FB3*%
X70840000Y-59087221D02*
X70840000Y-59412779D01*
X71860000Y-59087221D02*
X71860000Y-59412779D01*
%TO.C,R152*%
X110106359Y-86200000D02*
X110413641Y-86200000D01*
X110106359Y-86960000D02*
X110413641Y-86960000D01*
%TO.C,R92*%
X83695000Y-140086361D02*
X83695000Y-140393643D01*
X84455000Y-140086361D02*
X84455000Y-140393643D01*
%TO.C,C208*%
X64117836Y-126450000D02*
X63902164Y-126450000D01*
X64117836Y-127170000D02*
X63902164Y-127170000D01*
%TO.C,C188*%
X140290000Y-145452836D02*
X140290000Y-145237164D01*
X141010000Y-145452836D02*
X141010000Y-145237164D01*
%TO.C,FB12*%
X112740000Y-108800200D02*
X112740000Y-108599800D01*
X113460000Y-108800200D02*
X113460000Y-108599800D01*
%TO.C,FB31*%
X138687779Y-142415000D02*
X138362221Y-142415000D01*
X138687779Y-143435000D02*
X138362221Y-143435000D01*
%TO.C,L16*%
X135290000Y-43940000D02*
X135290000Y-48460000D01*
X135290000Y-43940000D02*
X135440000Y-43940000D01*
X135290000Y-48460000D02*
X135440000Y-48460000D01*
X139810000Y-43940000D02*
X139660000Y-43940000D01*
X139810000Y-43940000D02*
X139810000Y-48460000D01*
X139810000Y-48460000D02*
X139660000Y-48460000D01*
%TO.C,FB4*%
X74720000Y-62107221D02*
X74720000Y-62432779D01*
X75740000Y-62107221D02*
X75740000Y-62432779D01*
%TO.C,R40*%
X89643641Y-49570000D02*
X89336359Y-49570000D01*
X89643641Y-50330000D02*
X89336359Y-50330000D01*
%TO.C,R44*%
X89643641Y-57570000D02*
X89336359Y-57570000D01*
X89643641Y-58330000D02*
X89336359Y-58330000D01*
%TO.C,C142*%
X79690000Y-50165580D02*
X79690000Y-49884420D01*
X80710000Y-50165580D02*
X80710000Y-49884420D01*
%TO.C,C138*%
X73790000Y-50140580D02*
X73790000Y-49859420D01*
X74810000Y-50140580D02*
X74810000Y-49859420D01*
%TO.C,R131*%
X130803641Y-128370000D02*
X130496359Y-128370000D01*
X130803641Y-129130000D02*
X130496359Y-129130000D01*
%TO.C,C169*%
X123540000Y-112959420D02*
X123540000Y-113240580D01*
X124560000Y-112959420D02*
X124560000Y-113240580D01*
%TO.C,C242*%
X79037836Y-138540000D02*
X78822164Y-138540000D01*
X79037836Y-139260000D02*
X78822164Y-139260000D01*
%TO.C,C289*%
X80140000Y-66692164D02*
X80140000Y-66907836D01*
X80860000Y-66692164D02*
X80860000Y-66907836D01*
%TO.C,C251*%
X89962836Y-138540000D02*
X89747164Y-138540000D01*
X89962836Y-139260000D02*
X89747164Y-139260000D01*
%TO.C,R117*%
X130803641Y-134670000D02*
X130496359Y-134670000D01*
X130803641Y-135430000D02*
X130496359Y-135430000D01*
%TO.C,R16*%
X94087000Y-43716641D02*
X94087000Y-43409359D01*
X94847000Y-43716641D02*
X94847000Y-43409359D01*
%TO.C,R160*%
X85620000Y-46753641D02*
X85620000Y-46446359D01*
X86380000Y-46753641D02*
X86380000Y-46446359D01*
D16*
%TO.C,U9*%
X130150000Y-32855000D02*
X130470000Y-32855000D01*
X130150000Y-35245000D02*
X130470000Y-35245000D01*
X131650000Y-32855000D02*
X131330000Y-32855000D01*
X131650000Y-35245000D02*
X131330000Y-35245000D01*
D17*
X132685000Y-33300000D02*
G75*
G02*
X132485000Y-33300000I-100000J0D01*
G01*
X132485000Y-33300000D02*
G75*
G02*
X132685000Y-33300000I100000J0D01*
G01*
D11*
%TO.C,R122*%
X125203641Y-133270000D02*
X124896359Y-133270000D01*
X125203641Y-134030000D02*
X124896359Y-134030000D01*
%TO.C,C176*%
X119065580Y-131390000D02*
X118784420Y-131390000D01*
X119065580Y-132410000D02*
X118784420Y-132410000D01*
D12*
%TO.C,U26*%
X131824000Y-76124000D02*
X132235500Y-76124000D01*
X131824000Y-78276000D02*
X132235500Y-78276000D01*
X134776000Y-76124000D02*
X134364500Y-76124000D01*
X134776000Y-78276000D02*
X134364500Y-78276000D01*
D18*
X134580000Y-78700000D02*
G75*
G02*
X134420000Y-78700000I-80000J0D01*
G01*
X134420000Y-78700000D02*
G75*
G02*
X134580000Y-78700000I80000J0D01*
G01*
D11*
%TO.C,R93*%
X85920000Y-142263641D02*
X85920000Y-141956359D01*
X86680000Y-142263641D02*
X86680000Y-141956359D01*
%TO.C,R130*%
X127153641Y-130220000D02*
X126846359Y-130220000D01*
X127153641Y-130980000D02*
X126846359Y-130980000D01*
%TO.C,C171*%
X125740000Y-112959420D02*
X125740000Y-113240580D01*
X126760000Y-112959420D02*
X126760000Y-113240580D01*
%TO.C,FB16*%
X122450200Y-136777500D02*
X122249800Y-136777500D01*
X122450200Y-137497500D02*
X122249800Y-137497500D01*
%TO.C,R145*%
X93586359Y-78410000D02*
X93893641Y-78410000D01*
X93586359Y-79170000D02*
X93893641Y-79170000D01*
%TO.C,R10*%
X89643641Y-53570000D02*
X89336359Y-53570000D01*
X89643641Y-54330000D02*
X89336359Y-54330000D01*
%TO.C,R132*%
X125203641Y-129720000D02*
X124896359Y-129720000D01*
X125203641Y-130480000D02*
X124896359Y-130480000D01*
%TO.C,R95*%
X144670000Y-56286359D02*
X144670000Y-56593641D01*
X145430000Y-56286359D02*
X145430000Y-56593641D01*
D16*
%TO.C,U20*%
X123155000Y-33550000D02*
X123155000Y-33870000D01*
X123155000Y-35050000D02*
X123155000Y-34730000D01*
X125545000Y-33550000D02*
X125545000Y-33870000D01*
X125545000Y-35050000D02*
X125545000Y-34730000D01*
D17*
X123700000Y-32615000D02*
G75*
G02*
X123500000Y-32615000I-100000J0D01*
G01*
X123500000Y-32615000D02*
G75*
G02*
X123700000Y-32615000I100000J0D01*
G01*
D11*
%TO.C,FB32*%
X66257221Y-89890000D02*
X66582779Y-89890000D01*
X66257221Y-90910000D02*
X66582779Y-90910000D01*
%TO.C,FB19*%
X138625279Y-145315000D02*
X138299721Y-145315000D01*
X138625279Y-146335000D02*
X138299721Y-146335000D01*
%TO.C,R70*%
X99143641Y-79720000D02*
X98836359Y-79720000D01*
X99143641Y-80480000D02*
X98836359Y-80480000D01*
%TO.C,C150*%
X96890000Y-39765580D02*
X96890000Y-39484420D01*
X97910000Y-39765580D02*
X97910000Y-39484420D01*
%TO.C,R113*%
X130813641Y-136470000D02*
X130506359Y-136470000D01*
X130813641Y-137230000D02*
X130506359Y-137230000D01*
%TO.C,C323*%
X121874420Y-131410000D02*
X122155580Y-131410000D01*
X121874420Y-132430000D02*
X122155580Y-132430000D01*
%TO.C,FB35*%
X141390000Y-61962779D02*
X141390000Y-61637221D01*
X142410000Y-61962779D02*
X142410000Y-61637221D01*
%TO.C,C216*%
X65892164Y-132280000D02*
X66107836Y-132280000D01*
X65892164Y-133000000D02*
X66107836Y-133000000D01*
%TO.C,R11*%
X89643641Y-46570000D02*
X89336359Y-46570000D01*
X89643641Y-47330000D02*
X89336359Y-47330000D01*
%TO.C,C192*%
X67670000Y-128027836D02*
X67670000Y-127812164D01*
X68390000Y-128027836D02*
X68390000Y-127812164D01*
%TO.C,C194*%
X147190000Y-100787164D02*
X147190000Y-101002836D01*
X147910000Y-100787164D02*
X147910000Y-101002836D01*
%TO.C,FB34*%
X139890000Y-61962779D02*
X139890000Y-61637221D01*
X140910000Y-61962779D02*
X140910000Y-61637221D01*
%TO.C,R31*%
X97090000Y-43710641D02*
X97090000Y-43403359D01*
X97850000Y-43710641D02*
X97850000Y-43403359D01*
%TO.C,R136*%
X125203641Y-128470000D02*
X124896359Y-128470000D01*
X125203641Y-129230000D02*
X124896359Y-129230000D01*
%TO.C,C165*%
X112240580Y-105790000D02*
X111959420Y-105790000D01*
X112240580Y-106810000D02*
X111959420Y-106810000D01*
%TO.C,C214*%
X65972164Y-88770000D02*
X66187836Y-88770000D01*
X65972164Y-89490000D02*
X66187836Y-89490000D01*
%TO.C,R153*%
X91240000Y-75253641D02*
X91240000Y-74946359D01*
X92000000Y-75253641D02*
X92000000Y-74946359D01*
%TO.C,R15*%
X89643641Y-48570000D02*
X89336359Y-48570000D01*
X89643641Y-49330000D02*
X89336359Y-49330000D01*
%TO.C,R128*%
X125203641Y-130770000D02*
X124896359Y-130770000D01*
X125203641Y-131530000D02*
X124896359Y-131530000D01*
%TO.C,FB1*%
X74590000Y-59049721D02*
X74590000Y-59375279D01*
X75610000Y-59049721D02*
X75610000Y-59375279D01*
%TO.C,FB14*%
X123749800Y-110740000D02*
X123950200Y-110740000D01*
X123749800Y-111460000D02*
X123950200Y-111460000D01*
%TO.C,R124*%
X127153641Y-132720000D02*
X126846359Y-132720000D01*
X127153641Y-133480000D02*
X126846359Y-133480000D01*
%TO.C,R143*%
X119320000Y-138253641D02*
X119320000Y-137946359D01*
X120080000Y-138253641D02*
X120080000Y-137946359D01*
%TO.C,C134*%
X67790000Y-50140580D02*
X67790000Y-49859420D01*
X68810000Y-50140580D02*
X68810000Y-49859420D01*
%TO.C,C196*%
X146797164Y-147415000D02*
X147012836Y-147415000D01*
X146797164Y-148135000D02*
X147012836Y-148135000D01*
%TO.C,R155*%
X118976359Y-85140000D02*
X119283641Y-85140000D01*
X118976359Y-85900000D02*
X119283641Y-85900000D01*
%TO.C,FB40*%
X138137221Y-77040000D02*
X138462779Y-77040000D01*
X138137221Y-78060000D02*
X138462779Y-78060000D01*
%TO.C,R59*%
X67940000Y-52753641D02*
X67940000Y-52446359D01*
X68700000Y-52753641D02*
X68700000Y-52446359D01*
%TO.C,R126*%
X125203641Y-132220000D02*
X124896359Y-132220000D01*
X125203641Y-132980000D02*
X124896359Y-132980000D01*
%TO.C,FB21*%
X69907221Y-127920000D02*
X70232779Y-127920000D01*
X69907221Y-128940000D02*
X70232779Y-128940000D01*
%TO.C,C227*%
X139865580Y-63590000D02*
X139584420Y-63590000D01*
X139865580Y-64610000D02*
X139584420Y-64610000D01*
%TO.C,R119*%
X130803641Y-133770000D02*
X130496359Y-133770000D01*
X130803641Y-134530000D02*
X130496359Y-134530000D01*
%TO.C,C286*%
X135390000Y-42240580D02*
X135390000Y-41959420D01*
X136410000Y-42240580D02*
X136410000Y-41959420D01*
%TO.C,R36*%
X96087000Y-43716641D02*
X96087000Y-43409359D01*
X96847000Y-43716641D02*
X96847000Y-43409359D01*
%TO.C,FB23*%
X147137221Y-148490000D02*
X147462779Y-148490000D01*
X147137221Y-149510000D02*
X147462779Y-149510000D01*
%TO.C,C252*%
X83715000Y-142012164D02*
X83715000Y-142227836D01*
X84435000Y-142012164D02*
X84435000Y-142227836D01*
%TO.C,C164*%
X114290000Y-111859420D02*
X114290000Y-112140580D01*
X115310000Y-111859420D02*
X115310000Y-112140580D01*
%TO.C,C174*%
X121140000Y-138996920D02*
X121140000Y-139278080D01*
X122160000Y-138996920D02*
X122160000Y-139278080D01*
%TO.C,R121*%
X130803641Y-132870000D02*
X130496359Y-132870000D01*
X130803641Y-133630000D02*
X130496359Y-133630000D01*
%TO.C,R69*%
X101220000Y-78946359D02*
X101220000Y-79253641D01*
X101980000Y-78946359D02*
X101980000Y-79253641D01*
%TO.C,FB22*%
X148290000Y-102837221D02*
X148290000Y-103162779D01*
X149310000Y-102837221D02*
X149310000Y-103162779D01*
%TO.C,R48*%
X94110000Y-53596359D02*
X94110000Y-53903641D01*
X94870000Y-53596359D02*
X94870000Y-53903641D01*
%TO.C,FB26*%
X145940000Y-105037221D02*
X145940000Y-105362779D01*
X146960000Y-105037221D02*
X146960000Y-105362779D01*
%TO.C,FB33*%
X66437221Y-133390000D02*
X66762779Y-133390000D01*
X66437221Y-134410000D02*
X66762779Y-134410000D01*
%TO.C,FB15*%
X125999800Y-110740000D02*
X126200200Y-110740000D01*
X125999800Y-111460000D02*
X126200200Y-111460000D01*
%TO.C,R159*%
X99686359Y-78350000D02*
X99993641Y-78350000D01*
X99686359Y-79110000D02*
X99993641Y-79110000D01*
D17*
%TO.C,U22*%
X139228500Y-54866500D02*
X139228500Y-54966500D01*
X139228500Y-56771500D02*
X139228500Y-56898500D01*
X139228500Y-56898500D02*
X139736500Y-56898500D01*
X139736500Y-54866500D02*
X139228500Y-54866500D01*
X141541500Y-54866500D02*
X142022500Y-54866500D01*
X142022500Y-54866500D02*
X142022500Y-54966500D01*
X142022500Y-56798500D02*
X142022500Y-56898500D01*
X142022500Y-56898500D02*
X141541500Y-56898500D01*
D10*
X141299500Y-57322500D02*
G75*
G02*
X141150500Y-57322500I-74500J0D01*
G01*
X141150500Y-57322500D02*
G75*
G02*
X141299500Y-57322500I74500J0D01*
G01*
D11*
%TO.C,R68*%
X85620000Y-52753641D02*
X85620000Y-52446359D01*
X86380000Y-52753641D02*
X86380000Y-52446359D01*
%TO.C,R133*%
X130803641Y-127420000D02*
X130496359Y-127420000D01*
X130803641Y-128180000D02*
X130496359Y-128180000D01*
%TO.C,R1*%
X79013641Y-139820000D02*
X78706359Y-139820000D01*
X79013641Y-140580000D02*
X78706359Y-140580000D01*
%TO.C,R135*%
X130778641Y-126495000D02*
X130471359Y-126495000D01*
X130778641Y-127255000D02*
X130471359Y-127255000D01*
%TO.C,R150*%
X84590000Y-76603641D02*
X84590000Y-76296359D01*
X85350000Y-76603641D02*
X85350000Y-76296359D01*
%TO.C,R116*%
X127153641Y-135120000D02*
X126846359Y-135120000D01*
X127153641Y-135880000D02*
X126846359Y-135880000D01*
%TO.C,R38*%
X100105000Y-43720641D02*
X100105000Y-43413359D01*
X100865000Y-43720641D02*
X100865000Y-43413359D01*
%TO.C,R125*%
X130803641Y-131070000D02*
X130496359Y-131070000D01*
X130803641Y-131830000D02*
X130496359Y-131830000D01*
%TO.C,C284*%
X133000000Y-51889420D02*
X133000000Y-52170580D01*
X134020000Y-51889420D02*
X134020000Y-52170580D01*
%TO.C,C210*%
X144667164Y-103815000D02*
X144882836Y-103815000D01*
X144667164Y-104535000D02*
X144882836Y-104535000D01*
%TO.C,R96*%
X130120000Y-148431359D02*
X130120000Y-148738641D01*
X130880000Y-148431359D02*
X130880000Y-148738641D01*
%TO.C,R111*%
X130823641Y-137370000D02*
X130516359Y-137370000D01*
X130823641Y-138130000D02*
X130516359Y-138130000D01*
%TO.C,C229*%
X142534420Y-63590000D02*
X142815580Y-63590000D01*
X142534420Y-64610000D02*
X142815580Y-64610000D01*
%TO.C,R97*%
X136846359Y-118620000D02*
X137153641Y-118620000D01*
X136846359Y-119380000D02*
X137153641Y-119380000D01*
%TO.C,R112*%
X127153641Y-136370000D02*
X126846359Y-136370000D01*
X127153641Y-137130000D02*
X126846359Y-137130000D01*
%TO.C,C255*%
X84715000Y-142012164D02*
X84715000Y-142227836D01*
X85435000Y-142012164D02*
X85435000Y-142227836D01*
%TO.C,C288*%
X80990000Y-60359420D02*
X80990000Y-60640580D01*
X82010000Y-60359420D02*
X82010000Y-60640580D01*
%TO.C,R13*%
X89643641Y-50570000D02*
X89336359Y-50570000D01*
X89643641Y-51330000D02*
X89336359Y-51330000D01*
%TO.C,R51*%
X90670000Y-52196359D02*
X90670000Y-52503641D01*
X91430000Y-52196359D02*
X91430000Y-52503641D01*
%TO.C,R107*%
X78120000Y-66253641D02*
X78120000Y-65946359D01*
X78880000Y-66253641D02*
X78880000Y-65946359D01*
%TO.C,C243*%
X72790000Y-142012164D02*
X72790000Y-142227836D01*
X73510000Y-142012164D02*
X73510000Y-142227836D01*
%TO.C,R42*%
X89643641Y-52570000D02*
X89336359Y-52570000D01*
X89643641Y-53330000D02*
X89336359Y-53330000D01*
%TO.C,R3*%
X74995000Y-140053641D02*
X74995000Y-139746359D01*
X75755000Y-140053641D02*
X75755000Y-139746359D01*
%TO.C,R7*%
X102013641Y-140270000D02*
X101706359Y-140270000D01*
X102013641Y-141030000D02*
X101706359Y-141030000D01*
%TO.C,R8*%
X102013641Y-139270000D02*
X101706359Y-139270000D01*
X102013641Y-140030000D02*
X101706359Y-140030000D01*
%TO.C,J6*%
X69140000Y-87260000D02*
X69140000Y-73440000D01*
X71640000Y-73440000D02*
X69140000Y-73440000D01*
X71640000Y-87260000D02*
X69140000Y-87260000D01*
X74160000Y-87260000D02*
X79940000Y-87260000D01*
X79940000Y-73440000D02*
X74160000Y-73440000D01*
X83860000Y-73440000D02*
X82460000Y-73440000D01*
X83860000Y-87260000D02*
X82460000Y-87260000D01*
X83860000Y-87260000D02*
X83860000Y-73440000D01*
%TO.C,R134*%
X127153641Y-129095000D02*
X126846359Y-129095000D01*
X127153641Y-129855000D02*
X126846359Y-129855000D01*
%TO.C,FB5*%
X83190000Y-60100279D02*
X83190000Y-59774721D01*
X84210000Y-60100279D02*
X84210000Y-59774721D01*
%TO.C,R62*%
X73940000Y-52753641D02*
X73940000Y-52446359D01*
X74700000Y-52753641D02*
X74700000Y-52446359D01*
%TO.C,C148*%
X87210580Y-58439000D02*
X86929420Y-58439000D01*
X87210580Y-59459000D02*
X86929420Y-59459000D01*
%TO.C,C326*%
X82790000Y-51559420D02*
X82790000Y-51840580D01*
X83810000Y-51559420D02*
X83810000Y-51840580D01*
%TO.C,R17*%
X123366000Y-38791641D02*
X123366000Y-38484359D01*
X124126000Y-38791641D02*
X124126000Y-38484359D01*
%TO.C,R30*%
X89643641Y-47570000D02*
X89336359Y-47570000D01*
X89643641Y-48330000D02*
X89336359Y-48330000D01*
%TO.C,R41*%
X89643641Y-51570000D02*
X89336359Y-51570000D01*
X89643641Y-52330000D02*
X89336359Y-52330000D01*
%TO.C,C202*%
X146107836Y-102765000D02*
X145892164Y-102765000D01*
X146107836Y-103485000D02*
X145892164Y-103485000D01*
%TO.C,FB25*%
X62230000Y-134277221D02*
X62230000Y-134602779D01*
X63250000Y-134277221D02*
X63250000Y-134602779D01*
%TO.C,R65*%
X79820000Y-52753641D02*
X79820000Y-52446359D01*
X80580000Y-52753641D02*
X80580000Y-52446359D01*
%TO.C,FB30*%
X142925279Y-104865000D02*
X142599721Y-104865000D01*
X142925279Y-105885000D02*
X142599721Y-105885000D01*
%TO.C,C200*%
X63212164Y-131910000D02*
X63427836Y-131910000D01*
X63212164Y-132630000D02*
X63427836Y-132630000D01*
%TO.C,R43*%
X89643641Y-60570000D02*
X89336359Y-60570000D01*
X89643641Y-61330000D02*
X89336359Y-61330000D01*
%TO.C,R114*%
X125203641Y-135720000D02*
X124896359Y-135720000D01*
X125203641Y-136480000D02*
X124896359Y-136480000D01*
%TO.C,R9*%
X89643641Y-54570000D02*
X89336359Y-54570000D01*
X89643641Y-55330000D02*
X89336359Y-55330000D01*
%TO.C,R50*%
X110648596Y-50796359D02*
X110648596Y-51103641D01*
X111408596Y-50796359D02*
X111408596Y-51103641D01*
%TO.C,R91*%
X89938641Y-139820000D02*
X89631359Y-139820000D01*
X89938641Y-140580000D02*
X89631359Y-140580000D01*
%TO.C,FB2*%
X83949721Y-63790000D02*
X84275279Y-63790000D01*
X83949721Y-64810000D02*
X84275279Y-64810000D01*
%TO.C,R14*%
X124369000Y-38793641D02*
X124369000Y-38486359D01*
X125129000Y-38793641D02*
X125129000Y-38486359D01*
%TO.C,R161*%
X80620000Y-46753641D02*
X80620000Y-46446359D01*
X81380000Y-46753641D02*
X81380000Y-46446359D01*
%TO.C,R123*%
X130803641Y-131970000D02*
X130496359Y-131970000D01*
X130803641Y-132730000D02*
X130496359Y-132730000D01*
%TO.C,C324*%
X73240000Y-62139420D02*
X73240000Y-62420580D01*
X74260000Y-62139420D02*
X74260000Y-62420580D01*
%TO.C,R108*%
X77053641Y-65220000D02*
X76746359Y-65220000D01*
X77053641Y-65980000D02*
X76746359Y-65980000D01*
%TO.C,R32*%
X99105000Y-43720641D02*
X99105000Y-43413359D01*
X99865000Y-43720641D02*
X99865000Y-43413359D01*
%TO.C,R118*%
X125203641Y-134470000D02*
X124896359Y-134470000D01*
X125203641Y-135230000D02*
X124896359Y-135230000D01*
%TO.C,C254*%
X84715000Y-140112164D02*
X84715000Y-140327836D01*
X85435000Y-140112164D02*
X85435000Y-140327836D01*
%TO.C,R34*%
X95087000Y-43716641D02*
X95087000Y-43409359D01*
X95847000Y-43716641D02*
X95847000Y-43409359D01*
%TO.C,D5*%
X136800000Y-43660000D02*
X136800000Y-39800000D01*
X138800000Y-43660000D02*
X136800000Y-43660000D01*
X138800000Y-43660000D02*
X138800000Y-39800000D01*
%TO.C,R120*%
X127143641Y-133870000D02*
X126836359Y-133870000D01*
X127143641Y-134630000D02*
X126836359Y-134630000D01*
%TO.C,FB17*%
X119340000Y-136002700D02*
X119340000Y-135802300D01*
X120060000Y-136002700D02*
X120060000Y-135802300D01*
%TO.C,D2*%
X117010000Y-35900000D02*
X113150000Y-35900000D01*
X117010000Y-35900000D02*
X117010000Y-37900000D01*
X117010000Y-37900000D02*
X113150000Y-37900000D01*
%TO.C,C237*%
X73790000Y-140112164D02*
X73790000Y-140327836D01*
X74510000Y-140112164D02*
X74510000Y-140327836D01*
%TO.C,R4*%
X72770000Y-140086361D02*
X72770000Y-140393643D01*
X73530000Y-140086361D02*
X73530000Y-140393643D01*
%TO.C,R149*%
X90240000Y-74946359D02*
X90240000Y-75253641D01*
X91000000Y-74946359D02*
X91000000Y-75253641D01*
%TO.C,FB29*%
X63912779Y-125020000D02*
X63587221Y-125020000D01*
X63912779Y-126040000D02*
X63587221Y-126040000D01*
%TO.C,R45*%
X89643641Y-56570000D02*
X89336359Y-56570000D01*
X89643641Y-57330000D02*
X89336359Y-57330000D01*
%TO.C,FB27*%
X142925279Y-148490000D02*
X142599721Y-148490000D01*
X142925279Y-149510000D02*
X142599721Y-149510000D01*
%TO.C,FB13*%
X116800200Y-110640000D02*
X116599800Y-110640000D01*
X116800200Y-111360000D02*
X116599800Y-111360000D01*
%TO.C,R146*%
X86986359Y-73860000D02*
X87293641Y-73860000D01*
X86986359Y-74620000D02*
X87293641Y-74620000D01*
%TO.C,R47*%
X89643641Y-55570000D02*
X89336359Y-55570000D01*
X89643641Y-56330000D02*
X89336359Y-56330000D01*
%TO.C,U23*%
X68865000Y-103127500D02*
X68865000Y-103352500D01*
X68865000Y-106347500D02*
X68865000Y-106122500D01*
X69590000Y-103127500D02*
X68865000Y-103127500D01*
X69590000Y-106347500D02*
X68865000Y-106347500D01*
X70860000Y-103127500D02*
X71585000Y-103127500D01*
X70860000Y-106347500D02*
X71585000Y-106347500D01*
X71585000Y-106347500D02*
X71585000Y-106122500D01*
%TO.C,C204*%
X143202836Y-147340000D02*
X142987164Y-147340000D01*
X143202836Y-148060000D02*
X142987164Y-148060000D01*
%TO.C,R5*%
X101913641Y-144720000D02*
X101606359Y-144720000D01*
X101913641Y-145480000D02*
X101606359Y-145480000D01*
%TO.C,C186*%
X141757836Y-100365000D02*
X141542164Y-100365000D01*
X141757836Y-101085000D02*
X141542164Y-101085000D01*
%TO.C,R2*%
X74995000Y-142253641D02*
X74995000Y-141946359D01*
X75755000Y-142253641D02*
X75755000Y-141946359D01*
%TD*%
%LPC*%
D19*
X129000000Y-63600000D02*
X129000000Y-69400000D01*
X129000000Y-69400000D02*
X127600000Y-72000000D01*
X73800000Y-40600000D02*
X93800000Y-40600000D01*
X66500000Y-46400000D02*
X79600000Y-46400000D01*
X150800000Y-30400000D02*
X150800000Y-170400000D01*
X106000000Y-40600000D02*
X116600000Y-40600000D01*
X134000000Y-105800000D02*
X134000000Y-113800000D01*
X111600000Y-118400000D02*
X134000000Y-118400000D01*
X72200000Y-99000000D02*
X87400000Y-99000000D01*
X61000000Y-30000000D02*
X61000000Y-169600000D01*
D20*
X62317000Y-42293000D02*
X64883000Y-42293000D01*
X64883000Y-69000000D01*
X62317000Y-69000000D01*
X62317000Y-42293000D01*
G36*
X62317000Y-42293000D02*
G01*
X64883000Y-42293000D01*
X64883000Y-69000000D01*
X62317000Y-69000000D01*
X62317000Y-42293000D01*
G37*
D19*
X129000000Y-48800000D02*
X129000000Y-59400000D01*
X127600000Y-72000000D02*
X127600000Y-87200000D01*
X110600000Y-98800000D02*
X136400000Y-98800000D01*
D21*
%TO.C,R166*%
X129460000Y-111210000D03*
X130480000Y-111210000D03*
%TD*%
%TO.C,R165*%
X129450000Y-112150000D03*
X130470000Y-112150000D03*
%TD*%
%TO.C,R164*%
X131350000Y-112160000D03*
X132370000Y-112160000D03*
%TD*%
D22*
%TO.C,R163*%
X121700000Y-110850000D03*
X121700000Y-109830000D03*
%TD*%
D23*
%TO.C,R162*%
X101350000Y-141600000D03*
X102370000Y-141600000D03*
%TD*%
D24*
%TO.C,C397*%
X74000000Y-122450000D03*
X71050000Y-122450000D03*
%TD*%
%TO.C,C396*%
X74000000Y-119100000D03*
X71050000Y-119100000D03*
%TD*%
D25*
%TO.C,C377*%
X129900000Y-47000000D03*
X128350000Y-47000000D03*
%TD*%
D26*
%TO.C,C376*%
X131725000Y-63400000D03*
X133275000Y-63400000D03*
%TD*%
%TO.C,C375*%
X131700000Y-61500000D03*
X133250000Y-61500000D03*
%TD*%
%TO.C,C374*%
X130025000Y-45400000D03*
X131575000Y-45400000D03*
%TD*%
D25*
%TO.C,C373*%
X118275000Y-38900000D03*
X116725000Y-38900000D03*
%TD*%
D27*
%TO.C,C372*%
X125400000Y-42925000D03*
X125400000Y-44475000D03*
%TD*%
%TO.C,C371*%
X124100000Y-42950000D03*
X124100000Y-44500000D03*
%TD*%
%TO.C,C370*%
X122600000Y-42900000D03*
X122600000Y-44450000D03*
%TD*%
%TO.C,C369*%
X121000000Y-42900000D03*
X121000000Y-44450000D03*
%TD*%
D28*
%TO.C,J5*%
X145800000Y-63300000D03*
X136200000Y-63300000D03*
D29*
X148125000Y-32400000D03*
X139550000Y-32400000D03*
X133875000Y-37400000D03*
X148125000Y-42400000D03*
X133875000Y-47400000D03*
X148125000Y-52400000D03*
X142450000Y-52400000D03*
X137050000Y-52400000D03*
D30*
X148125000Y-55200000D03*
X133875000Y-55200000D03*
D29*
X133875000Y-57400000D03*
D30*
X148125000Y-59900000D03*
X133875000Y-59900000D03*
D29*
X148125000Y-62400000D03*
D30*
X148125000Y-64900000D03*
X133875000Y-64900000D03*
D29*
X133875000Y-67400000D03*
D30*
X145800000Y-69500000D03*
X141000000Y-69500000D03*
X136200000Y-69500000D03*
%TD*%
D31*
%TO.C,M1*%
X146000000Y-111000000D03*
X146000000Y-75000000D03*
%TD*%
D32*
%TO.C,J9*%
X128600000Y-37660000D03*
X119960000Y-37660000D03*
D33*
X128600000Y-32300000D03*
X119960000Y-32300000D03*
%TD*%
D31*
%TO.C,M2*%
X146000000Y-156000000D03*
X146000000Y-120000000D03*
%TD*%
%TO.C,M4*%
X65000000Y-120000000D03*
X65000000Y-156000000D03*
%TD*%
D34*
%TO.C,J11*%
X70360000Y-165450000D03*
X63360000Y-165450000D03*
%TD*%
D31*
%TO.C,M3*%
X65000000Y-75000000D03*
X65000000Y-111000000D03*
%TD*%
D34*
%TO.C,J13*%
X124500000Y-165450000D03*
X117500000Y-165450000D03*
%TD*%
%TO.C,J15*%
X106500000Y-165450000D03*
X99500000Y-165450000D03*
%TD*%
D35*
%TO.C,J7*%
X71100000Y-35360000D03*
X71100000Y-32000000D03*
X64900000Y-35360000D03*
X64900000Y-32000000D03*
%TD*%
D34*
%TO.C,J17*%
X88360000Y-165450000D03*
X81360000Y-165450000D03*
%TD*%
D36*
%TO.C,J8*%
X79300000Y-34100000D03*
X92000000Y-34100000D03*
D37*
X82090000Y-36640000D03*
D30*
X83106000Y-38420000D03*
X84122000Y-36640000D03*
X85138000Y-38420000D03*
X86154000Y-36640000D03*
X87170000Y-38420000D03*
X88186000Y-36640000D03*
X89202000Y-38420000D03*
X78790000Y-43240000D03*
X81080000Y-43240000D03*
X90220000Y-43240000D03*
X92510000Y-43240000D03*
D38*
X77520000Y-37530000D03*
X93780000Y-37530000D03*
%TD*%
D39*
%TO.C,C325*%
X72820000Y-58410000D03*
X72820000Y-56860000D03*
%TD*%
D40*
%TO.C,FB18*%
X141687500Y-102000000D03*
X140112500Y-102000000D03*
%TD*%
D22*
%TO.C,R94*%
X86300000Y-140610000D03*
X86300000Y-139590000D03*
%TD*%
D41*
%TO.C,C30*%
X106300000Y-84630000D03*
X106300000Y-85270000D03*
%TD*%
D23*
%TO.C,R129*%
X131150000Y-129650000D03*
X130130000Y-129650000D03*
%TD*%
%TO.C,R6*%
X102270000Y-144100000D03*
X101250000Y-144100000D03*
%TD*%
%TO.C,R127*%
X131150000Y-130550000D03*
X130130000Y-130550000D03*
%TD*%
D42*
%TO.C,C308*%
X127270000Y-108770000D03*
X126630000Y-108770000D03*
%TD*%
D43*
%TO.C,C241*%
X74150000Y-141640000D03*
X74150000Y-142600000D03*
%TD*%
%TO.C,C212*%
X140650000Y-142950000D03*
X140650000Y-143910000D03*
%TD*%
D44*
%TO.C,U31*%
X80200000Y-64315000D03*
X79550000Y-64315000D03*
X78900000Y-64315000D03*
X78250000Y-64315000D03*
X77600000Y-64315000D03*
X76950000Y-64315000D03*
X76950000Y-60500000D03*
X77600000Y-60500000D03*
X78250000Y-60500000D03*
X78900000Y-60500000D03*
X79550000Y-60500000D03*
X80200000Y-60500000D03*
D45*
X78575000Y-62407500D03*
%TD*%
D42*
%TO.C,C224*%
X63865000Y-87600000D03*
X63225000Y-87600000D03*
%TD*%
D46*
%TO.C,C63*%
X105176000Y-75531000D03*
X105176000Y-74891000D03*
%TD*%
D22*
%TO.C,R39*%
X103329000Y-44085000D03*
X103329000Y-43065000D03*
%TD*%
D47*
%TO.C,FB41*%
X115430000Y-105095000D03*
X115430000Y-103950000D03*
%TD*%
D48*
%TO.C,C43*%
X115250000Y-86900000D03*
X115890000Y-86900000D03*
%TD*%
D23*
%TO.C,R109*%
X119610000Y-129200000D03*
X118590000Y-129200000D03*
%TD*%
D22*
%TO.C,R52*%
X106417000Y-81242000D03*
X106417000Y-80222000D03*
%TD*%
%TO.C,R35*%
X102385000Y-44077000D03*
X102385000Y-43057000D03*
%TD*%
D49*
%TO.C,U27*%
X129900000Y-39385000D03*
D50*
X130575000Y-39395000D03*
X131025000Y-39394500D03*
D51*
X131700000Y-39394500D03*
D52*
X130800000Y-40065000D03*
X130800000Y-40565000D03*
D53*
X131700000Y-41215000D03*
D50*
X131025000Y-41205000D03*
X130575000Y-41205000D03*
D54*
X129900000Y-41215000D03*
%TD*%
D55*
%TO.C,U18*%
X122950000Y-135600000D03*
X121050000Y-135600000D03*
X122000000Y-133725000D03*
%TD*%
D47*
%TO.C,FB44*%
X124780000Y-104482500D03*
X124780000Y-103337500D03*
%TD*%
D41*
%TO.C,C46*%
X110450000Y-85030000D03*
X110450000Y-85670000D03*
%TD*%
D22*
%TO.C,R37*%
X98470000Y-44067000D03*
X98470000Y-43047000D03*
%TD*%
D41*
%TO.C,C271*%
X135550000Y-77530000D03*
X135550000Y-78170000D03*
%TD*%
D22*
%TO.C,R53*%
X104214000Y-80193000D03*
X104214000Y-79173000D03*
%TD*%
D39*
%TO.C,C146*%
X86000000Y-50800000D03*
X86000000Y-49250000D03*
%TD*%
D56*
%TO.C,D1*%
X134000000Y-42900000D03*
X134000000Y-40100000D03*
%TD*%
D48*
%TO.C,C53*%
X108575000Y-80094000D03*
X109215000Y-80094000D03*
%TD*%
D42*
%TO.C,C328*%
X109269000Y-52741000D03*
X108629000Y-52741000D03*
%TD*%
D57*
%TO.C,R86*%
X119700000Y-133277500D03*
X119700000Y-134297500D03*
%TD*%
D22*
%TO.C,R46*%
X104329000Y-44085000D03*
X104329000Y-43065000D03*
%TD*%
D41*
%TO.C,C222*%
X147400000Y-88575000D03*
X147400000Y-89215000D03*
%TD*%
D58*
%TO.C,C47*%
X110387709Y-88120189D03*
X110832291Y-87659811D03*
%TD*%
D59*
%TO.C,FB11*%
X106777000Y-82200000D03*
X105632000Y-82200000D03*
%TD*%
D41*
%TO.C,C38*%
X106900000Y-82980000D03*
X106900000Y-83620000D03*
%TD*%
D21*
%TO.C,R156*%
X118620000Y-86680000D03*
X119640000Y-86680000D03*
%TD*%
D46*
%TO.C,C65*%
X99680000Y-75410000D03*
X99680000Y-74770000D03*
%TD*%
D41*
%TO.C,C48*%
X109050000Y-89770000D03*
X109050000Y-90410000D03*
%TD*%
D60*
%TO.C,C52*%
X107407000Y-80155000D03*
X107859548Y-80607548D03*
%TD*%
D42*
%TO.C,C253*%
X88240000Y-143100000D03*
X87600000Y-143100000D03*
%TD*%
D46*
%TO.C,C264*%
X130360000Y-75470000D03*
X130360000Y-74830000D03*
%TD*%
D39*
%TO.C,C231*%
X137400000Y-59250000D03*
X137400000Y-57700000D03*
%TD*%
D41*
%TO.C,C34*%
X104200000Y-84680000D03*
X104200000Y-85320000D03*
%TD*%
D22*
%TO.C,R33*%
X101385000Y-44077000D03*
X101385000Y-43057000D03*
%TD*%
D61*
%TO.C,U19*%
X145875000Y-84100000D03*
D62*
X144937500Y-83662500D03*
X144937500Y-83162500D03*
X144937500Y-82662500D03*
X144937500Y-82162500D03*
X144937500Y-81662500D03*
D61*
X145875000Y-81225000D03*
X146375000Y-81225000D03*
D62*
X147312500Y-81662500D03*
X147312500Y-82162500D03*
X147312500Y-82662500D03*
X147312500Y-83162500D03*
X147312500Y-83662500D03*
D61*
X146375000Y-84100000D03*
D63*
X146125000Y-82662500D03*
%TD*%
D46*
%TO.C,C61*%
X111200000Y-72925000D03*
X111200000Y-72285000D03*
%TD*%
D41*
%TO.C,C28*%
X108050000Y-84250000D03*
X108050000Y-84890000D03*
%TD*%
D64*
%TO.C,FB6*%
X102580819Y-83349819D03*
X101771181Y-82540181D03*
%TD*%
D23*
%TO.C,R115*%
X131170000Y-135950000D03*
X130150000Y-135950000D03*
%TD*%
D65*
%TO.C,FB3*%
X71350000Y-58462500D03*
X71350000Y-60037500D03*
%TD*%
D21*
%TO.C,R152*%
X109750000Y-86580000D03*
X110770000Y-86580000D03*
%TD*%
D42*
%TO.C,C329*%
X95135000Y-55051000D03*
X94495000Y-55051000D03*
%TD*%
D57*
%TO.C,R92*%
X84075000Y-139730002D03*
X84075000Y-140750002D03*
%TD*%
D66*
%TO.C,C208*%
X64490000Y-126810000D03*
X63530000Y-126810000D03*
%TD*%
D67*
%TO.C,C188*%
X140650000Y-145825000D03*
X140650000Y-144865000D03*
%TD*%
D47*
%TO.C,FB12*%
X113100000Y-109272500D03*
X113100000Y-108127500D03*
%TD*%
D42*
%TO.C,C357*%
X98220000Y-55600000D03*
X97580000Y-55600000D03*
%TD*%
D48*
%TO.C,C350*%
X111930000Y-55700000D03*
X112570000Y-55700000D03*
%TD*%
D40*
%TO.C,FB31*%
X139312500Y-142925000D03*
X137737500Y-142925000D03*
%TD*%
D46*
%TO.C,C74*%
X98314000Y-86591000D03*
X98314000Y-85951000D03*
%TD*%
D68*
%TO.C,C71*%
X98208274Y-89371726D03*
X97755726Y-89824274D03*
%TD*%
D69*
%TO.C,L16*%
X137550000Y-44700000D03*
X137550000Y-47700000D03*
%TD*%
D46*
%TO.C,C73*%
X100350000Y-85620000D03*
X100350000Y-84980000D03*
%TD*%
D65*
%TO.C,FB4*%
X75230000Y-61482500D03*
X75230000Y-63057500D03*
%TD*%
D46*
%TO.C,C57*%
X95500000Y-81320000D03*
X95500000Y-80680000D03*
%TD*%
D23*
%TO.C,R40*%
X90000000Y-49950000D03*
X88980000Y-49950000D03*
%TD*%
%TO.C,R44*%
X90000000Y-57950000D03*
X88980000Y-57950000D03*
%TD*%
D39*
%TO.C,C142*%
X80200000Y-50800000D03*
X80200000Y-49250000D03*
%TD*%
%TO.C,C138*%
X74300000Y-50775000D03*
X74300000Y-49225000D03*
%TD*%
D23*
%TO.C,R131*%
X131160000Y-128750000D03*
X130140000Y-128750000D03*
%TD*%
D27*
%TO.C,C169*%
X124050000Y-112325000D03*
X124050000Y-113875000D03*
%TD*%
D42*
%TO.C,C58*%
X99300000Y-82680000D03*
X98660000Y-82680000D03*
%TD*%
D66*
%TO.C,C242*%
X79410000Y-138900000D03*
X78450000Y-138900000D03*
%TD*%
D43*
%TO.C,C289*%
X80500000Y-66320000D03*
X80500000Y-67280000D03*
%TD*%
D48*
%TO.C,C355*%
X116785000Y-61400000D03*
X117425000Y-61400000D03*
%TD*%
D66*
%TO.C,C251*%
X90335000Y-138900000D03*
X89375000Y-138900000D03*
%TD*%
D23*
%TO.C,R117*%
X131160000Y-135050000D03*
X130140000Y-135050000D03*
%TD*%
D22*
%TO.C,R16*%
X94467000Y-44073000D03*
X94467000Y-43053000D03*
%TD*%
%TO.C,R160*%
X86000000Y-47110000D03*
X86000000Y-46090000D03*
%TD*%
D42*
%TO.C,C221*%
X147640000Y-142950000D03*
X147000000Y-142950000D03*
%TD*%
D70*
%TO.C,U9*%
X131575000Y-33300000D03*
D71*
X131575000Y-33800000D03*
X131575000Y-34300000D03*
D70*
X131575000Y-34800000D03*
D72*
X130900000Y-34950000D03*
D70*
X130225000Y-34800000D03*
D71*
X130225000Y-34300000D03*
X130225000Y-33800000D03*
D70*
X130225000Y-33300000D03*
D72*
X130900000Y-33150000D03*
%TD*%
D23*
%TO.C,R122*%
X125560000Y-133650000D03*
X124540000Y-133650000D03*
%TD*%
D25*
%TO.C,C176*%
X119700000Y-131900000D03*
X118150000Y-131900000D03*
%TD*%
D73*
%TO.C,U26*%
X134100000Y-78200000D03*
X133700000Y-78200000D03*
X133300000Y-78200000D03*
X132900000Y-78200000D03*
X132500000Y-78200000D03*
D74*
X131900000Y-77800000D03*
X131900000Y-77400000D03*
X131900000Y-77000000D03*
X131900000Y-76600000D03*
D73*
X132500000Y-76200000D03*
X132900000Y-76200000D03*
X133300000Y-76200000D03*
X133700000Y-76200000D03*
X134100000Y-76200000D03*
D74*
X134700000Y-76600000D03*
X134700000Y-77000000D03*
X134700000Y-77400000D03*
X134700000Y-77800000D03*
D75*
X133300000Y-77200000D03*
%TD*%
D22*
%TO.C,R93*%
X86300000Y-142620000D03*
X86300000Y-141600000D03*
%TD*%
D41*
%TO.C,C77*%
X105001000Y-90432000D03*
X105001000Y-91072000D03*
%TD*%
D23*
%TO.C,R130*%
X127510000Y-130600000D03*
X126490000Y-130600000D03*
%TD*%
D27*
%TO.C,C171*%
X126250000Y-112325000D03*
X126250000Y-113875000D03*
%TD*%
D46*
%TO.C,C83*%
X111400000Y-76500000D03*
X111400000Y-75860000D03*
%TD*%
D59*
%TO.C,FB16*%
X122922500Y-137137500D03*
X121777500Y-137137500D03*
%TD*%
D42*
%TO.C,C87*%
X108520000Y-78300000D03*
X107880000Y-78300000D03*
%TD*%
D21*
%TO.C,R145*%
X93230000Y-78790000D03*
X94250000Y-78790000D03*
%TD*%
D23*
%TO.C,R10*%
X90000000Y-53950000D03*
X88980000Y-53950000D03*
%TD*%
%TO.C,R132*%
X125560000Y-130100000D03*
X124540000Y-130100000D03*
%TD*%
D57*
%TO.C,R95*%
X145050000Y-55930000D03*
X145050000Y-56950000D03*
%TD*%
D46*
%TO.C,C42*%
X113000000Y-90020000D03*
X113000000Y-89380000D03*
%TD*%
%TO.C,C60*%
X94775000Y-74360000D03*
X94775000Y-73720000D03*
%TD*%
D76*
%TO.C,U20*%
X123600000Y-33625000D03*
D77*
X124100000Y-33625000D03*
X124600000Y-33625000D03*
D76*
X125100000Y-33625000D03*
D78*
X125250000Y-34300000D03*
D76*
X125100000Y-34975000D03*
D77*
X124600000Y-34975000D03*
X124100000Y-34975000D03*
D76*
X123600000Y-34975000D03*
D78*
X123450000Y-34300000D03*
%TD*%
D79*
%TO.C,FB32*%
X65632500Y-90400000D03*
X67207500Y-90400000D03*
%TD*%
D40*
%TO.C,FB19*%
X139250000Y-145825000D03*
X137675000Y-145825000D03*
%TD*%
D23*
%TO.C,R70*%
X99500000Y-80100000D03*
X98480000Y-80100000D03*
%TD*%
D39*
%TO.C,C150*%
X97400000Y-40400000D03*
X97400000Y-38850000D03*
%TD*%
D23*
%TO.C,R113*%
X131170000Y-136850000D03*
X130150000Y-136850000D03*
%TD*%
D26*
%TO.C,C323*%
X121240000Y-131920000D03*
X122790000Y-131920000D03*
%TD*%
D42*
%TO.C,C177*%
X118795000Y-134300000D03*
X118155000Y-134300000D03*
%TD*%
%TO.C,C228*%
X140520000Y-65200000D03*
X139880000Y-65200000D03*
%TD*%
D80*
%TO.C,FB35*%
X141900000Y-62587500D03*
X141900000Y-61012500D03*
%TD*%
D41*
%TO.C,C36*%
X107800000Y-81780000D03*
X107800000Y-82420000D03*
%TD*%
D42*
%TO.C,C316*%
X116920000Y-108750000D03*
X116280000Y-108750000D03*
%TD*%
D81*
%TO.C,C216*%
X65520000Y-132640000D03*
X66480000Y-132640000D03*
%TD*%
D23*
%TO.C,R11*%
X90000000Y-46950000D03*
X88980000Y-46950000D03*
%TD*%
D48*
%TO.C,C40*%
X115260000Y-87650000D03*
X115900000Y-87650000D03*
%TD*%
D67*
%TO.C,C192*%
X68030000Y-128400000D03*
X68030000Y-127440000D03*
%TD*%
D43*
%TO.C,C194*%
X147550000Y-100415000D03*
X147550000Y-101375000D03*
%TD*%
D80*
%TO.C,FB34*%
X140400000Y-62587500D03*
X140400000Y-61012500D03*
%TD*%
D22*
%TO.C,R31*%
X97470000Y-44067000D03*
X97470000Y-43047000D03*
%TD*%
D46*
%TO.C,C75*%
X99489000Y-91306000D03*
X99489000Y-90666000D03*
%TD*%
D23*
%TO.C,R136*%
X125560000Y-128850000D03*
X124540000Y-128850000D03*
%TD*%
D25*
%TO.C,C165*%
X112875000Y-106300000D03*
X111325000Y-106300000D03*
%TD*%
D81*
%TO.C,C214*%
X65600000Y-89130000D03*
X66560000Y-89130000D03*
%TD*%
D42*
%TO.C,C358*%
X98184000Y-58000000D03*
X97544000Y-58000000D03*
%TD*%
D22*
%TO.C,R153*%
X91620000Y-75610000D03*
X91620000Y-74590000D03*
%TD*%
D48*
%TO.C,C41*%
X114380000Y-91400000D03*
X115020000Y-91400000D03*
%TD*%
D23*
%TO.C,R15*%
X90000000Y-48950000D03*
X88980000Y-48950000D03*
%TD*%
%TO.C,R128*%
X125560000Y-131150000D03*
X124540000Y-131150000D03*
%TD*%
D65*
%TO.C,FB1*%
X75100000Y-58425000D03*
X75100000Y-60000000D03*
%TD*%
D42*
%TO.C,C360*%
X91675000Y-59450000D03*
X91035000Y-59450000D03*
%TD*%
D82*
%TO.C,FB14*%
X123277500Y-111100000D03*
X124422500Y-111100000D03*
%TD*%
D42*
%TO.C,C353*%
X107319000Y-59599000D03*
X106679000Y-59599000D03*
%TD*%
%TO.C,C62*%
X106970000Y-75150000D03*
X106330000Y-75150000D03*
%TD*%
D41*
%TO.C,C272*%
X136350000Y-77530000D03*
X136350000Y-78170000D03*
%TD*%
D23*
%TO.C,R124*%
X127510000Y-133100000D03*
X126490000Y-133100000D03*
%TD*%
D83*
%TO.C,C70*%
X100800000Y-88023000D03*
X100347452Y-87570452D03*
%TD*%
D22*
%TO.C,R143*%
X119700000Y-138610000D03*
X119700000Y-137590000D03*
%TD*%
D39*
%TO.C,C134*%
X68300000Y-50775000D03*
X68300000Y-49225000D03*
%TD*%
D81*
%TO.C,C196*%
X146425000Y-147775000D03*
X147385000Y-147775000D03*
%TD*%
D41*
%TO.C,C78*%
X102608000Y-90359000D03*
X102608000Y-90999000D03*
%TD*%
D21*
%TO.C,R155*%
X118620000Y-85520000D03*
X119640000Y-85520000D03*
%TD*%
D41*
%TO.C,C309*%
X124790000Y-106510000D03*
X124790000Y-107150000D03*
%TD*%
D79*
%TO.C,FB40*%
X137512500Y-77550000D03*
X139087500Y-77550000D03*
%TD*%
D84*
%TO.C,C39*%
X108773726Y-81476274D03*
X109226274Y-81023726D03*
%TD*%
D22*
%TO.C,R59*%
X68320000Y-53110000D03*
X68320000Y-52090000D03*
%TD*%
D46*
%TO.C,C72*%
X96000000Y-88875000D03*
X96000000Y-88235000D03*
%TD*%
D48*
%TO.C,C178*%
X69680000Y-55430000D03*
X70320000Y-55430000D03*
%TD*%
D46*
%TO.C,C220*%
X63800000Y-97420000D03*
X63800000Y-96780000D03*
%TD*%
D42*
%TO.C,C367*%
X98220000Y-59407000D03*
X97580000Y-59407000D03*
%TD*%
D83*
%TO.C,C68*%
X99816274Y-77366274D03*
X99363726Y-76913726D03*
%TD*%
D46*
%TO.C,C32*%
X105400000Y-83870000D03*
X105400000Y-83230000D03*
%TD*%
D23*
%TO.C,R126*%
X125560000Y-132600000D03*
X124540000Y-132600000D03*
%TD*%
D79*
%TO.C,FB21*%
X69282500Y-128430000D03*
X70857500Y-128430000D03*
%TD*%
D25*
%TO.C,C227*%
X140500000Y-64100000D03*
X138950000Y-64100000D03*
%TD*%
D48*
%TO.C,C226*%
X130980000Y-32100000D03*
X131620000Y-32100000D03*
%TD*%
D23*
%TO.C,R119*%
X131160000Y-134150000D03*
X130140000Y-134150000D03*
%TD*%
D39*
%TO.C,C286*%
X135900000Y-42875000D03*
X135900000Y-41325000D03*
%TD*%
D22*
%TO.C,R36*%
X96467000Y-44073000D03*
X96467000Y-43053000D03*
%TD*%
D79*
%TO.C,FB23*%
X146512500Y-149000000D03*
X148087500Y-149000000D03*
%TD*%
D43*
%TO.C,C252*%
X84075000Y-141640000D03*
X84075000Y-142600000D03*
%TD*%
D27*
%TO.C,C164*%
X114800000Y-111225000D03*
X114800000Y-112775000D03*
%TD*%
D48*
%TO.C,C85*%
X115380000Y-76000000D03*
X116020000Y-76000000D03*
%TD*%
D27*
%TO.C,C174*%
X121650000Y-138362500D03*
X121650000Y-139912500D03*
%TD*%
D23*
%TO.C,R121*%
X131160000Y-133250000D03*
X130140000Y-133250000D03*
%TD*%
D57*
%TO.C,R69*%
X101600000Y-78590000D03*
X101600000Y-79610000D03*
%TD*%
D65*
%TO.C,FB22*%
X148800000Y-102212500D03*
X148800000Y-103787500D03*
%TD*%
D57*
%TO.C,R48*%
X94490000Y-53240000D03*
X94490000Y-54260000D03*
%TD*%
D48*
%TO.C,C349*%
X100780000Y-56600000D03*
X101420000Y-56600000D03*
%TD*%
%TO.C,C49*%
X111270000Y-85230000D03*
X111910000Y-85230000D03*
%TD*%
D65*
%TO.C,FB26*%
X146450000Y-104412500D03*
X146450000Y-105987500D03*
%TD*%
D79*
%TO.C,FB33*%
X65812500Y-133900000D03*
X67387500Y-133900000D03*
%TD*%
D82*
%TO.C,FB15*%
X125527500Y-111100000D03*
X126672500Y-111100000D03*
%TD*%
D21*
%TO.C,R159*%
X99330001Y-78730000D03*
X100349999Y-78730000D03*
%TD*%
D85*
%TO.C,U22*%
X141225000Y-56665000D03*
D86*
X140825000Y-56715000D03*
X140425500Y-56715000D03*
X140025500Y-56715000D03*
D87*
X139393500Y-56482500D03*
X139393000Y-56082500D03*
X139393000Y-55682500D03*
X139393000Y-55282500D03*
D86*
X140025500Y-55050000D03*
X140425500Y-55050000D03*
X140825000Y-55050000D03*
X141225000Y-55050000D03*
D87*
X141857000Y-55282500D03*
X141857000Y-55682500D03*
X141857000Y-56082500D03*
X141857000Y-56482500D03*
%TD*%
D41*
%TO.C,C37*%
X108650000Y-82330000D03*
X108650000Y-82970000D03*
%TD*%
D22*
%TO.C,R68*%
X86000000Y-53110000D03*
X86000000Y-52090000D03*
%TD*%
D23*
%TO.C,R133*%
X131160000Y-127800000D03*
X130140000Y-127800000D03*
%TD*%
%TO.C,R1*%
X79370000Y-140200000D03*
X78350000Y-140200000D03*
%TD*%
%TO.C,R135*%
X131135000Y-126875000D03*
X130115000Y-126875000D03*
%TD*%
D22*
%TO.C,R150*%
X84970000Y-76960000D03*
X84970000Y-75940000D03*
%TD*%
D23*
%TO.C,R116*%
X127510000Y-135500000D03*
X126490000Y-135500000D03*
%TD*%
D46*
%TO.C,C29*%
X103575000Y-81536000D03*
X103575000Y-80896000D03*
%TD*%
D22*
%TO.C,R38*%
X100485000Y-44077000D03*
X100485000Y-43057000D03*
%TD*%
D41*
%TO.C,C232*%
X122400000Y-34380000D03*
X122400000Y-35020000D03*
%TD*%
D23*
%TO.C,R125*%
X131160000Y-131450000D03*
X130140000Y-131450000D03*
%TD*%
D27*
%TO.C,C284*%
X133510000Y-51255000D03*
X133510000Y-52805000D03*
%TD*%
D41*
%TO.C,C274*%
X145050000Y-57930000D03*
X145050000Y-58570000D03*
%TD*%
D81*
%TO.C,C210*%
X144295000Y-104175000D03*
X145255000Y-104175000D03*
%TD*%
D57*
%TO.C,R96*%
X130500000Y-148075000D03*
X130500000Y-149095000D03*
%TD*%
D23*
%TO.C,R111*%
X131180000Y-137750000D03*
X130160000Y-137750000D03*
%TD*%
D26*
%TO.C,C229*%
X141900000Y-64100000D03*
X143450000Y-64100000D03*
%TD*%
D46*
%TO.C,C81*%
X105017000Y-86748000D03*
X105017000Y-86108000D03*
%TD*%
D21*
%TO.C,R97*%
X136490000Y-119000000D03*
X137510000Y-119000000D03*
%TD*%
D46*
%TO.C,C31*%
X106200000Y-83870000D03*
X106200000Y-83230000D03*
%TD*%
D23*
%TO.C,R112*%
X127510000Y-136750000D03*
X126490000Y-136750000D03*
%TD*%
D42*
%TO.C,C347*%
X107270000Y-52750000D03*
X106630000Y-52750000D03*
%TD*%
D48*
%TO.C,C50*%
X101443000Y-81365000D03*
X102083000Y-81365000D03*
%TD*%
D43*
%TO.C,C255*%
X85075000Y-141640000D03*
X85075000Y-142600000D03*
%TD*%
D48*
%TO.C,C330*%
X94530000Y-52317000D03*
X95170000Y-52317000D03*
%TD*%
D41*
%TO.C,C327*%
X115475000Y-55025000D03*
X115475000Y-55665000D03*
%TD*%
D46*
%TO.C,C59*%
X95872000Y-74352000D03*
X95872000Y-73712000D03*
%TD*%
D27*
%TO.C,C288*%
X81500000Y-59725000D03*
X81500000Y-61275000D03*
%TD*%
D42*
%TO.C,C352*%
X91620000Y-57450000D03*
X90980000Y-57450000D03*
%TD*%
D41*
%TO.C,C64*%
X101616000Y-73579000D03*
X101616000Y-74219000D03*
%TD*%
D23*
%TO.C,R13*%
X90000000Y-50950000D03*
X88980000Y-50950000D03*
%TD*%
D57*
%TO.C,R51*%
X91050000Y-51840000D03*
X91050000Y-52860000D03*
%TD*%
D22*
%TO.C,R107*%
X78500000Y-66610000D03*
X78500000Y-65590000D03*
%TD*%
D46*
%TO.C,C265*%
X134200000Y-74525000D03*
X134200000Y-73885000D03*
%TD*%
D41*
%TO.C,C55*%
X102845000Y-80729000D03*
X102845000Y-81369000D03*
%TD*%
D46*
%TO.C,C266*%
X129630000Y-75470000D03*
X129630000Y-74830000D03*
%TD*%
D43*
%TO.C,C243*%
X73150000Y-141640000D03*
X73150000Y-142600000D03*
%TD*%
D23*
%TO.C,R42*%
X90000000Y-52950000D03*
X88980000Y-52950000D03*
%TD*%
D22*
%TO.C,R3*%
X75375000Y-140410000D03*
X75375000Y-139390000D03*
%TD*%
D23*
%TO.C,R7*%
X102370000Y-140650000D03*
X101350000Y-140650000D03*
%TD*%
%TO.C,R8*%
X102370000Y-139650000D03*
X101350000Y-139650000D03*
%TD*%
D46*
%TO.C,C79*%
X106950000Y-86133000D03*
X106950000Y-85493000D03*
%TD*%
D88*
%TO.C,J6*%
X78600000Y-83555000D03*
X78600000Y-82455000D03*
X78600000Y-81355000D03*
X78600000Y-80255000D03*
X78600000Y-79155000D03*
X78600000Y-78055000D03*
X78600000Y-76955000D03*
X78600000Y-75855000D03*
D89*
X72900000Y-87225000D03*
X81200000Y-87225000D03*
X72900000Y-73475000D03*
X81200000Y-73475000D03*
%TD*%
D23*
%TO.C,R134*%
X127510000Y-129475000D03*
X126490000Y-129475000D03*
%TD*%
D48*
%TO.C,C225*%
X64625000Y-135300000D03*
X65265000Y-135300000D03*
%TD*%
D80*
%TO.C,FB5*%
X83700000Y-60725000D03*
X83700000Y-59150000D03*
%TD*%
D42*
%TO.C,C67*%
X98220000Y-61076000D03*
X97580000Y-61076000D03*
%TD*%
D22*
%TO.C,R62*%
X74320000Y-53110000D03*
X74320000Y-52090000D03*
%TD*%
D25*
%TO.C,C148*%
X87845000Y-58949000D03*
X86295000Y-58949000D03*
%TD*%
D27*
%TO.C,C326*%
X83300000Y-50925000D03*
X83300000Y-52475000D03*
%TD*%
D42*
%TO.C,C354*%
X107962000Y-58478000D03*
X107322000Y-58478000D03*
%TD*%
%TO.C,C235*%
X77315000Y-143100000D03*
X76675000Y-143100000D03*
%TD*%
D22*
%TO.C,R17*%
X123746000Y-39148000D03*
X123746000Y-38128000D03*
%TD*%
D46*
%TO.C,C69*%
X105191000Y-78176000D03*
X105191000Y-77536000D03*
%TD*%
D42*
%TO.C,C361*%
X95160000Y-56573000D03*
X94520000Y-56573000D03*
%TD*%
%TO.C,C356*%
X108070000Y-55700000D03*
X107430000Y-55700000D03*
%TD*%
D23*
%TO.C,R30*%
X90000000Y-47950000D03*
X88980000Y-47950000D03*
%TD*%
D41*
%TO.C,C287*%
X139350000Y-42180000D03*
X139350000Y-42820000D03*
%TD*%
D23*
%TO.C,R41*%
X90000000Y-51950000D03*
X88980000Y-51950000D03*
%TD*%
D41*
%TO.C,C54*%
X105550000Y-80185000D03*
X105550000Y-80825000D03*
%TD*%
D66*
%TO.C,C202*%
X146480000Y-103125000D03*
X145520000Y-103125000D03*
%TD*%
D65*
%TO.C,FB25*%
X62740000Y-133652500D03*
X62740000Y-135227500D03*
%TD*%
D22*
%TO.C,R65*%
X80200000Y-53110000D03*
X80200000Y-52090000D03*
%TD*%
D40*
%TO.C,FB30*%
X143550000Y-105375000D03*
X141975000Y-105375000D03*
%TD*%
D46*
%TO.C,C56*%
X103400000Y-79970000D03*
X103400000Y-79330000D03*
%TD*%
D81*
%TO.C,C200*%
X62840000Y-132270000D03*
X63800000Y-132270000D03*
%TD*%
D23*
%TO.C,R43*%
X90000000Y-60950000D03*
X88980000Y-60950000D03*
%TD*%
D41*
%TO.C,C351*%
X93750000Y-55880000D03*
X93750000Y-56520000D03*
%TD*%
D23*
%TO.C,R114*%
X125560000Y-136100000D03*
X124540000Y-136100000D03*
%TD*%
%TO.C,R9*%
X90000000Y-54950000D03*
X88980000Y-54950000D03*
%TD*%
D57*
%TO.C,R50*%
X111028596Y-50440000D03*
X111028596Y-51460000D03*
%TD*%
D60*
%TO.C,C80*%
X107816000Y-88639000D03*
X108268548Y-89091548D03*
%TD*%
D23*
%TO.C,R91*%
X90295000Y-140200000D03*
X89275000Y-140200000D03*
%TD*%
D79*
%TO.C,FB2*%
X83325000Y-64300000D03*
X84900000Y-64300000D03*
%TD*%
D22*
%TO.C,R14*%
X124749000Y-39150000D03*
X124749000Y-38130000D03*
%TD*%
%TO.C,R161*%
X81000000Y-47110000D03*
X81000000Y-46090000D03*
%TD*%
D41*
%TO.C,C33*%
X105000000Y-84680000D03*
X105000000Y-85320000D03*
%TD*%
D46*
%TO.C,C263*%
X133470000Y-74515000D03*
X133470000Y-73875000D03*
%TD*%
D23*
%TO.C,R123*%
X131160000Y-132350000D03*
X130140000Y-132350000D03*
%TD*%
D41*
%TO.C,C359*%
X98900000Y-51430000D03*
X98900000Y-52070000D03*
%TD*%
D27*
%TO.C,C324*%
X73750000Y-61505000D03*
X73750000Y-63055000D03*
%TD*%
D46*
%TO.C,C273*%
X144200000Y-55925000D03*
X144200000Y-55285000D03*
%TD*%
D23*
%TO.C,R108*%
X77410000Y-65600000D03*
X76390000Y-65600000D03*
%TD*%
D22*
%TO.C,R32*%
X99485000Y-44077000D03*
X99485000Y-43057000D03*
%TD*%
D23*
%TO.C,R118*%
X125560000Y-134850000D03*
X124540000Y-134850000D03*
%TD*%
D43*
%TO.C,C254*%
X85075000Y-139740000D03*
X85075000Y-140700000D03*
%TD*%
D41*
%TO.C,C35*%
X102640000Y-85040000D03*
X102640000Y-85680000D03*
%TD*%
D22*
%TO.C,R34*%
X95467000Y-44073000D03*
X95467000Y-43053000D03*
%TD*%
D56*
%TO.C,D5*%
X137800000Y-42850000D03*
X137800000Y-40050000D03*
%TD*%
D42*
%TO.C,C203*%
X146495000Y-102275000D03*
X145855000Y-102275000D03*
%TD*%
D23*
%TO.C,R120*%
X127500000Y-134250000D03*
X126480000Y-134250000D03*
%TD*%
D48*
%TO.C,C66*%
X100880000Y-59300000D03*
X101520000Y-59300000D03*
%TD*%
D41*
%TO.C,C185*%
X104700000Y-82585000D03*
X104700000Y-83225000D03*
%TD*%
D47*
%TO.C,FB17*%
X119700000Y-136475000D03*
X119700000Y-135330000D03*
%TD*%
D90*
%TO.C,D2*%
X116200000Y-36900000D03*
X113400000Y-36900000D03*
%TD*%
D48*
%TO.C,C44*%
X113630000Y-86000000D03*
X114270000Y-86000000D03*
%TD*%
D43*
%TO.C,C237*%
X74150000Y-139740000D03*
X74150000Y-140700000D03*
%TD*%
D57*
%TO.C,R4*%
X73150000Y-139730002D03*
X73150000Y-140750002D03*
%TD*%
D48*
%TO.C,C230*%
X141880000Y-65200000D03*
X142520000Y-65200000D03*
%TD*%
D46*
%TO.C,C213*%
X144200000Y-144320000D03*
X144200000Y-143680000D03*
%TD*%
%TO.C,C219*%
X143000000Y-84220000D03*
X143000000Y-83580000D03*
%TD*%
D57*
%TO.C,R149*%
X90620000Y-74590000D03*
X90620000Y-75610000D03*
%TD*%
D42*
%TO.C,C362*%
X107322000Y-60997000D03*
X106682000Y-60997000D03*
%TD*%
D40*
%TO.C,FB29*%
X64537500Y-125530000D03*
X62962500Y-125530000D03*
%TD*%
D41*
%TO.C,C45*%
X109680000Y-85060000D03*
X109680000Y-85700000D03*
%TD*%
D23*
%TO.C,R45*%
X90000000Y-56950000D03*
X88980000Y-56950000D03*
%TD*%
D40*
%TO.C,FB27*%
X143550000Y-149000000D03*
X141975000Y-149000000D03*
%TD*%
D59*
%TO.C,FB13*%
X117272500Y-111000000D03*
X116127500Y-111000000D03*
%TD*%
D48*
%TO.C,C84*%
X113130000Y-81900000D03*
X113770000Y-81900000D03*
%TD*%
D41*
%TO.C,C26*%
X97802000Y-78291000D03*
X97802000Y-78931000D03*
%TD*%
D42*
%TO.C,C27*%
X97225000Y-76182000D03*
X96585000Y-76182000D03*
%TD*%
D21*
%TO.C,R146*%
X86630000Y-74240000D03*
X87650000Y-74240000D03*
%TD*%
D23*
%TO.C,R47*%
X90000000Y-55950000D03*
X88980000Y-55950000D03*
%TD*%
D91*
%TO.C,U23*%
X70475000Y-103300000D03*
D92*
X71412500Y-103737500D03*
X71412500Y-104237500D03*
X71412500Y-104737500D03*
X71412500Y-105237500D03*
X71412500Y-105737500D03*
D91*
X70475000Y-106175000D03*
X69975000Y-106175000D03*
D92*
X69037500Y-105737500D03*
X69037500Y-105237500D03*
X69037500Y-104737500D03*
X69037500Y-104237500D03*
X69037500Y-103737500D03*
D91*
X69975000Y-103300000D03*
D63*
X70225000Y-104737500D03*
%TD*%
D42*
%TO.C,C184*%
X103731000Y-82275000D03*
X103091000Y-82275000D03*
%TD*%
D46*
%TO.C,C223*%
X70700000Y-102075000D03*
X70700000Y-101435000D03*
%TD*%
D48*
%TO.C,C86*%
X112830000Y-80200000D03*
X113470000Y-80200000D03*
%TD*%
D66*
%TO.C,C204*%
X143575000Y-147700000D03*
X142615000Y-147700000D03*
%TD*%
D48*
%TO.C,C76*%
X108280000Y-91600000D03*
X108920000Y-91600000D03*
%TD*%
%TO.C,C51*%
X101482000Y-80656000D03*
X102122000Y-80656000D03*
%TD*%
D23*
%TO.C,R5*%
X102270000Y-145100000D03*
X101250000Y-145100000D03*
%TD*%
D66*
%TO.C,C186*%
X142130000Y-100725000D03*
X141170000Y-100725000D03*
%TD*%
D22*
%TO.C,R2*%
X75375000Y-142610000D03*
X75375000Y-141590000D03*
%TD*%
D46*
%TO.C,C218*%
X146500000Y-97920000D03*
X146500000Y-97280000D03*
%TD*%
D42*
%TO.C,C348*%
X91675000Y-58500000D03*
X91035000Y-58500000D03*
%TD*%
%LPD*%
M02*
